{
.appVersion = "911";
copyright = "Copyright 2011-2016 The Varela Round Project Authors, with Reserved Font Names 'Varela' and 'Varela'";
customParameters = (
{
name = license;
value = "This Font Software is licensed under the SIL Open Font License, Version 1.1. This license is available with a FAQ at: http://scripts.sil.org/OFL";
},
{
name = licenseURL;
value = "http://scripts.sil.org/OFL";
},
{
name = fsType;
value = (
);
},
{
name = "Disable Last Change";
value = 1;
}
);
date = "2016-08-03 19:11:27 +0000";
designer = "Joe Prince, Avraham Cornfeld";
designerURL = "http://www.admixdesigns.com";
familyName = "Varela Round";
featurePrefixes = (
{
automatic = 1;
code = "languagesystem DFLT dflt;\012languagesystem cyrl dflt;\012languagesystem grek dflt;\012languagesystem latn dflt;\012languagesystem hebr dflt;\012languagesystem latn AZE;\012languagesystem latn CRT;\012languagesystem latn DEU;\012languagesystem latn MOL;\012languagesystem latn ROM;\012languagesystem latn TRK;\012languagesystem cyrl SRB;\012";
name = Languagesystems;
}
);
features = (
{

glyphs = (
{
glyphname = A;
layers = (
{
anchors = (
{
name = bottom;
position = "{349, 0}";
},
{
name = ogonek;
position = "{661, 10}";
},
{
name = top;
position = "{349, 698}";
}
);
layerId = "A99C00BB-606F-4263-964D-93C8B7F0BADD";
paths = (
{
closed = 1;
nodes = (
"90 -5 OFFCURVE",
"106 5 OFFCURVE",
"114 23 CURVE SMOOTH",
"179 179 LINE",
"519 179 LINE",
"584 23 LINE SMOOTH",
"592 5 OFFCURVE",
"608 -5 OFFCURVE",
"627 -5 CURVE SMOOTH",
"655 -5 OFFCURVE",
"672 15 OFFCURVE",
"672 40 CURVE SMOOTH",
"672 46 OFFCURVE",
"670 53 OFFCURVE",
"667 60 CURVE SMOOTH",
"412 662 LINE SMOOTH",
"403 683 OFFCURVE",
"384 703 OFFCURVE",
"354 703 CURVE SMOOTH",
"344 703 LINE SMOOTH",
"314 703 OFFCURVE",
"295 683 OFFCURVE",
"286 662 CURVE SMOOTH",
"31 60 LINE SMOOTH",
"28 53 OFFCURVE",
"26 46 OFFCURVE",
"26 40 CURVE SMOOTH",
"26 15 OFFCURVE",
"43 -5 OFFCURVE",
"71 -5 CURVE SMOOTH"
);
},
{
closed = 1;
nodes = (
"349 587 LINE",
"484 262 LINE",
"214 262 LINE"
);
}
);
width = 697;
}
);
leftKerningGroup = A;
note = A;
rightKerningGroup = A;
unicode = 0041;
},
{
color = 9;
glyphname = Aacute;
layers = (
{
background = {
paths = (
{
closed = 1;
nodes = (
"90 -5 OFFCURVE",
"106 5 OFFCURVE",
"114 23 CURVE SMOOTH",
"179 179 LINE",
"519 179 LINE",
"584 23 LINE SMOOTH",
"592 5 OFFCURVE",
"608 -5 OFFCURVE",
"627 -5 CURVE SMOOTH",
"655 -5 OFFCURVE",
"672 15 OFFCURVE",
"672 40 CURVE SMOOTH",
"672 46 OFFCURVE",
"670 53 OFFCURVE",
"667 60 CURVE SMOOTH",
"412 662 LINE SMOOTH",
"403 683 OFFCURVE",
"384 703 OFFCURVE",
"354 703 CURVE SMOOTH",
"344 703 LINE SMOOTH",
"314 703 OFFCURVE",
"295 683 OFFCURVE",
"286 662 CURVE SMOOTH",
"31 60 LINE SMOOTH",
"28 53 OFFCURVE",
"26 46 OFFCURVE",
"26 40 CURVE SMOOTH",
"26 15 OFFCURVE",
"43 -5 OFFCURVE",
"71 -5 CURVE SMOOTH"
);
},
{
closed = 1;
nodes = (
"349 587 LINE",
"484 262 LINE",
"214 262 LINE"
);
},
{
closed = 1;
nodes = (
"349 739 OFFCURVE",
"355 743 OFFCURVE",
"361 750 CURVE SMOOTH",
"430 832 LINE SMOOTH",
"437 840 OFFCURVE",
"440 848 OFFCURVE",
"440 857 CURVE SMOOTH",
"440 879 OFFCURVE",
"425 894 OFFCURVE",
"403 894 CURVE SMOOTH",
"386 894 OFFCURVE",
"376 886 OFFCURVE",
"370 875 CURVE SMOOTH",
"319 785 LINE",
"317 782 OFFCURVE",
"312 774 OFFCURVE",
"312 766 CURVE SMOOTH",
"312 750 OFFCURVE",
"323 739 OFFCURVE",
"339 739 CURVE SMOOTH"
);
}
);
};
components = (
{
name = A;
},
{
name = acutecomb.case;
transform = "{1, 0, 0, 1, 149, 0}";
}
);
layerId = "A99C00BB-606F-4263-964D-93C8B7F0BADD";
width = 697;
}
);
leftKerningGroup = A;
note = Aacute;
rightKerningGroup = A;
unicode = 00C1;
},
{
color = 9;
glyphname = Acircumflex;
layers = (
{
background = {
paths = (
{
closed = 1;
nodes = (
"90 -5 OFFCURVE",
"106 5 OFFCURVE",
"114 23 CURVE SMOOTH",
"179 179 LINE",
"519 179 LINE",
"584 23 LINE SMOOTH",
"592 5 OFFCURVE",
"608 -5 OFFCURVE",
"627 -5 CURVE SMOOTH",
"655 -5 OFFCURVE",
"672 15 OFFCURVE",
"672 40 CURVE SMOOTH",
"672 46 OFFCURVE",
"670 53 OFFCURVE",
"667 60 CURVE SMOOTH",
"412 662 LINE SMOOTH",
"403 683 OFFCURVE",
"384 703 OFFCURVE",
"354 703 CURVE SMOOTH",
"344 703 LINE SMOOTH",
"314 703 OFFCURVE",
"295 683 OFFCURVE",
"286 662 CURVE SMOOTH",
"31 60 LINE SMOOTH",
"28 53 OFFCURVE",
"26 46 OFFCURVE",
"26 40 CURVE SMOOTH",
"26 15 OFFCURVE",
"43 -5 OFFCURVE",
"71 -5 CURVE SMOOTH"
);
},
{
closed = 1;
nodes = (
"349 587 LINE",
"484 262 LINE",
"214 262 LINE"
);
},
{
closed = 1;
nodes = (
"250 738 OFFCURVE",
"258 741 OFFCURVE",
"262 745 CURVE",
"349 819 LINE",
"436 745 LINE",
"440 741 OFFCURVE",
"448 738 OFFCURVE",
"454 738 CURVE SMOOTH",
"471 738 OFFCURVE",
"485 753 OFFCURVE",
"484 768 CURVE",
"484 775 OFFCURVE",
"481 782 OFFCURVE",
"476 787 CURVE SMOOTH",
"408 857 LINE SMOOTH",
"398 868 OFFCURVE",
"387 877 OFFCURVE",
"368 877 CURVE SMOOTH",
"330 877 LINE SMOOTH",
"311 877 OFFCURVE",
"300 868 OFFCURVE",
"290 857 CURVE SMOOTH",
"222 787 LINE SMOOTH",
"217 782 OFFCURVE",
"214 775 OFFCURVE",
"214 768 CURVE",
"213 753 OFFCURVE",
"227 738 OFFCURVE",
"244 738 CURVE SMOOTH"
);
}
);
};
components = (
{
name = A;
},
{
name = circumflexcomb.case;
transform = "{1, 0, 0, 1, 149, 0}";
}
);
layerId = "A99C00BB-606F-4263-964D-93C8B7F0BADD";
width = 697;
}
);
leftKerningGroup = A;
note = Acircumflex;
rightKerningGroup = A;
unicode = 00C2;
},
{
color = 9;
glyphname = Agrave;
layers = (
{
background = {
paths = (
{
closed = 1;
nodes = (
"90 -5 OFFCURVE",
"106 5 OFFCURVE",
"114 23 CURVE SMOOTH",
"179 179 LINE",
"519 179 LINE",
"584 23 LINE SMOOTH",
"592 5 OFFCURVE",
"608 -5 OFFCURVE",
"627 -5 CURVE SMOOTH",
"655 -5 OFFCURVE",
"672 15 OFFCURVE",
"672 40 CURVE SMOOTH",
"672 46 OFFCURVE",
"670 53 OFFCURVE",
"667 60 CURVE SMOOTH",
"412 662 LINE SMOOTH",
"403 683 OFFCURVE",
"384 703 OFFCURVE",
"354 703 CURVE SMOOTH",
"344 703 LINE SMOOTH",
"314 703 OFFCURVE",
"295 683 OFFCURVE",
"286 662 CURVE SMOOTH",
"31 60 LINE SMOOTH",
"28 53 OFFCURVE",
"26 46 OFFCURVE",
"26 40 CURVE SMOOTH",
"26 15 OFFCURVE",
"43 -5 OFFCURVE",
"71 -5 CURVE SMOOTH"
);
},
{
closed = 1;
nodes = (
"349 587 LINE",
"484 262 LINE",
"214 262 LINE"
);
},
{
closed = 1;
nodes = (
"374 739 OFFCURVE",
"385 750 OFFCURVE",
"385 766 CURVE SMOOTH",
"385 774 OFFCURVE",
"380 782 OFFCURVE",
"378 785 CURVE",
"327 875 LINE SMOOTH",
"321 886 OFFCURVE",
"311 894 OFFCURVE",
"294 894 CURVE SMOOTH",
"272 894 OFFCURVE",
"257 879 OFFCURVE",
"257 857 CURVE SMOOTH",
"257 848 OFFCURVE",
"260 840 OFFCURVE",
"267 832 CURVE SMOOTH",
"336 750 LINE SMOOTH",
"342 743 OFFCURVE",
"348 739 OFFCURVE",
"358 739 CURVE SMOOTH"
);
}
);
};
components = (
{
name = A;
},
{
name = gravecomb.case;
transform = "{1, 0, 0, 1, 149, 0}";
}
);
layerId = "A99C00BB-606F-4263-964D-93C8B7F0BADD";
width = 697;
}
);
leftKerningGroup = A;
note = Agrave;
rightKerningGroup = A;
unicode = 00C0;
},
{
color = 9;
glyphname = Aring;
layers = (
{
background = {
paths = (
{
closed = 1;
nodes = (
"90 -5 OFFCURVE",
"106 5 OFFCURVE",
"114 23 CURVE SMOOTH",
"179 179 LINE",
"519 179 LINE",
"584 23 LINE SMOOTH",
"592 5 OFFCURVE",
"608 -5 OFFCURVE",
"627 -5 CURVE SMOOTH",
"655 -5 OFFCURVE",
"672 15 OFFCURVE",
"672 40 CURVE SMOOTH",
"672 46 OFFCURVE",
"670 53 OFFCURVE",
"667 60 CURVE SMOOTH",
"412 662 LINE SMOOTH",
"403 683 OFFCURVE",
"384 703 OFFCURVE",
"354 703 CURVE SMOOTH",
"344 703 LINE SMOOTH",
"314 703 OFFCURVE",
"295 683 OFFCURVE",
"286 662 CURVE SMOOTH",
"31 60 LINE SMOOTH",
"28 53 OFFCURVE",
"26 46 OFFCURVE",
"26 40 CURVE SMOOTH",
"26 15 OFFCURVE",
"43 -5 OFFCURVE",
"71 -5 CURVE SMOOTH"
);
},
{
closed = 1;
nodes = (
"349 587 LINE",
"484 262 LINE",
"214 262 LINE"
);
},
{
closed = 1;
nodes = (
"401 730 OFFCURVE",
"443 772 OFFCURVE",
"443 824 CURVE SMOOTH",
"443 876 OFFCURVE",
"401 918 OFFCURVE",
"349 918 CURVE SMOOTH",
"297 918 OFFCURVE",
"255 876 OFFCURVE",
"255 824 CURVE SMOOTH",
"255 772 OFFCURVE",
"297 730 OFFCURVE",
"349 730 CURVE SMOOTH"
);
},
{
closed = 1;
nodes = (
"322 775 OFFCURVE",
"300 797 OFFCURVE",
"300 824 CURVE SMOOTH",
"300 851 OFFCURVE",
"322 873 OFFCURVE",
"349 873 CURVE SMOOTH",
"376 873 OFFCURVE",
"398 851 OFFCURVE",
"398 824 CURVE SMOOTH",
"398 797 OFFCURVE",
"376 775 OFFCURVE",
"349 775 CURVE SMOOTH"
);
}
);
};
components = (
{
name = A;
},
{
name = ringcomb.case;
transform = "{1, 0, 0, 1, 149, 0}";
}
);
layerId = "A99C00BB-606F-4263-964D-93C8B7F0BADD";
width = 697;
}
);
leftKerningGroup = A;
note = Aring;
rightKerningGroup = A;
unicode = 00C5;
},
{
glyphname = Atilde;
layers = (
{
background = {
paths = (
{
closed = 1;
nodes = (
"90 -5 OFFCURVE",
"106 5 OFFCURVE",
"114 23 CURVE SMOOTH",
"179 179 LINE",
"519 179 LINE",
"584 23 LINE SMOOTH",
"592 5 OFFCURVE",
"608 -5 OFFCURVE",
"627 -5 CURVE SMOOTH",
"655 -5 OFFCURVE",
"672 15 OFFCURVE",
"672 40 CURVE SMOOTH",
"672 46 OFFCURVE",
"670 53 OFFCURVE",
"667 60 CURVE SMOOTH",
"412 662 LINE SMOOTH",
"403 683 OFFCURVE",
"384 703 OFFCURVE",
"354 703 CURVE SMOOTH",
"344 703 LINE SMOOTH",
"314 703 OFFCURVE",
"295 683 OFFCURVE",
"286 662 CURVE SMOOTH",
"31 60 LINE SMOOTH",
"28 53 OFFCURVE",
"26 46 OFFCURVE",
"26 40 CURVE SMOOTH",
"26 15 OFFCURVE",
"43 -5 OFFCURVE",
"71 -5 CURVE SMOOTH"
);
},
{
closed = 1;
nodes = (
"349 587 LINE",
"484 262 LINE",
"214 262 LINE"
);
},
{
closed = 1;
nodes = (
"225 743 OFFCURVE",
"232 752 OFFCURVE",
"235 761 CURVE",
"243 780 OFFCURVE",
"254 793 OFFCURVE",
"274 793 CURVE SMOOTH",
"326 793 OFFCURVE",
"369 745 OFFCURVE",
"428 745 CURVE SMOOTH",
"478 745 OFFCURVE",
"512 797 OFFCURVE",
"512 840 CURVE",
"511 852 OFFCURVE",
"503 862 OFFCURVE",
"489 862 CURVE SMOOTH",
"474 862 OFFCURVE",
"468 852 OFFCURVE",
"464 841 CURVE SMOOTH",
"458 824 OFFCURVE",
"448 814 OFFCURVE",
"427 814 CURVE SMOOTH",
"373 814 OFFCURVE",
"331 861 OFFCURVE",
"273 861 CURVE SMOOTH",
"221 861 OFFCURVE",
"189 806 OFFCURVE",
"189 766 CURVE SMOOTH",
"189 753 OFFCURVE",
"200 743 OFFCURVE",
"212 743 CURVE SMOOTH"
);
}
);
};
components = (
{
name = A;
},
{
name = tildecomb.case;
transform = "{1, 0, 0, 1, 149, 0}";
}
);
layerId = "A99C00BB-606F-4263-964D-93C8B7F0BADD";
width = 697;
}
);
leftKerningGroup = A;
note = Atilde;
rightKerningGroup = A;
unicode = 00C3;
},
{
glyphname = AE;
layers = (
{
anchors = (
{
name = bottom;
position = "{545, 0}";
},
{
name = top;
position = "{545, 698}";
}
);
layerId = "A99C00BB-606F-4263-964D-93C8B7F0BADD";
paths = (
{
closed = 1;
nodes = (
"66 -5 OFFCURVE",
"80 7 OFFCURVE",
"89 21 CURVE SMOOTH",
"191 179 LINE",
"499 179 LINE",
"499 45 LINE SMOOTH",
"499 20 OFFCURVE",
"519 0 OFFCURVE",
"544 0 CURVE SMOOTH",
"945 0 LINE SMOOTH",
"969 0 OFFCURVE",
"988 18 OFFCURVE",
"988 42 CURVE SMOOTH",
"988 66 OFFCURVE",
"969 85 OFFCURVE",
"945 85 CURVE SMOOTH",
"590 85 LINE",
"590 307 LINE",
"909 307 LINE SMOOTH",
"933 307 OFFCURVE",
"952 325 OFFCURVE",
"952 349 CURVE SMOOTH",
"952 373 OFFCURVE",
"933 392 OFFCURVE",
"909 392 CURVE SMOOTH",
"590 392 LINE",
"590 613 LINE",
"945 613 LINE SMOOTH",
"969 613 OFFCURVE",
"988 631 OFFCURVE",
"988 655 CURVE SMOOTH",
"988 679 OFFCURVE",
"969 698 OFFCURVE",
"945 698 CURVE SMOOTH",
"457 698 LINE SMOOTH",
"438 698 OFFCURVE",
"421 688 OFFCURVE",
"411 673 CURVE SMOOTH",
"12 68 LINE SMOOTH",
"6 59 OFFCURVE",
"2 51 OFFCURVE",
"2 40 CURVE SMOOTH",
"2 15 OFFCURVE",
"22 -5 OFFCURVE",
"48 -5 CURVE SMOOTH"
);
},
{
closed = 1;
nodes = (
"474 613 LINE",
"499 613 LINE",
"499 262 LINE",
"245 262 LINE"
);
}
);
width = 1040;
}
);
leftKerningGroup = AE;
note = AE;
rightKerningGroup = E;
rightMetricsKey = E;
unicode = 00C6;
},
{
glyphname = AEacute;
layers = (
{
layerId = "A99C00BB-606F-4263-964D-93C8B7F0BADD";
paths = (
{
closed = 1;
nodes = (
"66 -5 OFFCURVE",
"80 7 OFFCURVE",
"89 21 CURVE SMOOTH",
"191 179 LINE",
"499 179 LINE",
"499 45 LINE SMOOTH",
"499 20 OFFCURVE",
"519 0 OFFCURVE",
"544 0 CURVE SMOOTH",
"945 0 LINE SMOOTH",
"969 0 OFFCURVE",
"988 18 OFFCURVE",
"988 42 CURVE SMOOTH",
"988 66 OFFCURVE",
"969 85 OFFCURVE",
"945 85 CURVE SMOOTH",
"590 85 LINE",
"590 307 LINE",
"909 307 LINE SMOOTH",
"933 307 OFFCURVE",
"952 325 OFFCURVE",
"952 349 CURVE SMOOTH",
"952 373 OFFCURVE",
"933 392 OFFCURVE",
"909 392 CURVE SMOOTH",
"590 392 LINE",
"590 613 LINE",
"945 613 LINE SMOOTH",
"969 613 OFFCURVE",
"988 631 OFFCURVE",
"988 655 CURVE SMOOTH",
"988 679 OFFCURVE",
"969 698 OFFCURVE",
"945 698 CURVE SMOOTH",
"457 698 LINE SMOOTH",
"438 698 OFFCURVE",
"421 688 OFFCURVE",
"411 673 CURVE SMOOTH",
"12 68 LINE SMOOTH",
"6 59 OFFCURVE",
"2 51 OFFCURVE",
"2 40 CURVE SMOOTH",
"2 15 OFFCURVE",
"22 -5 OFFCURVE",
"48 -5 CURVE SMOOTH"
);
},
{
closed = 1;
nodes = (
"474 613 LINE",
"499 613 LINE",
"499 262 LINE",
"245 262 LINE"
);
},
{
closed = 1;
nodes = (
"523 739 OFFCURVE",
"529 743 OFFCURVE",
"535 750 CURVE SMOOTH",
"604 832 LINE SMOOTH",
"611 840 OFFCURVE",
"614 848 OFFCURVE",
"614 857 CURVE SMOOTH",
"614 879 OFFCURVE",
"599 894 OFFCURVE",
"577 894 CURVE SMOOTH",
"560 894 OFFCURVE",
"550 886 OFFCURVE",
"544 875 CURVE SMOOTH",
"493 785 LINE",
"491 782 OFFCURVE",
"486 774 OFFCURVE",
"486 766 CURVE SMOOTH",
"486 750 OFFCURVE",
"497 739 OFFCURVE",
"513 739 CURVE SMOOTH"
);
}
);
width = 1040;
}
);
leftKerningGroup = AE;
note = AEacute;
rightKerningGroup = E;
unicode = 01FC;
},
{
glyphname = B;
layers = (
{
anchors = (
{
name = bottom;
position = "{347, 0}";
},
{
name = top;
position = "{347, 698}";
}
);
layerId = "A99C00BB-606F-4263-964D-93C8B7F0BADD";
paths = (
{
closed = 1;
nodes = (
"384 0 LINE SMOOTH",
"569 0 OFFCURVE",
"641 79 OFFCURVE",
"641 196 CURVE SMOOTH",
"641 288 OFFCURVE",
"576 340 OFFCURVE",
"504 363 CURVE",
"555 386 OFFCURVE",
"602 434 OFFCURVE",
"602 517 CURVE SMOOTH",
"602 625 OFFCURVE",
"524 698 OFFCURVE",
"378 698 CURVE SMOOTH",
"142 698 LINE SMOOTH",
"117 698 OFFCURVE",
"97 677 OFFCURVE",
"97 652 CURVE SMOOTH",
"97 45 LINE SMOOTH",
"97 20 OFFCURVE",
"117 0 OFFCURVE",
"142 0 CURVE SMOOTH"
);
},
{
closed = 1;
nodes = (
"188 314 LINE",
"376 314 LINE SMOOTH",
"491 314 OFFCURVE",
"553 279 OFFCURVE",
"553 200 CURVE SMOOTH",
"553 132 OFFCURVE",
"512 85 OFFCURVE",
"375 85 CURVE SMOOTH",
"188 85 LINE"
);
},
{
closed = 1;
nodes = (
"188 613 LINE",
"371 613 LINE SMOOTH",
"462 613 OFFCURVE",
"515 572 OFFCURVE",
"515 510 CURVE SMOOTH",
"515 445 OFFCURVE",
"480 396 OFFCURVE",
"354 396 CURVE SMOOTH",
"188 396 LINE"
);
}
);
width = 693;
}
);
leftKerningGroup = B;
leftMetricsKey = I;
note = B;
unicode = 0042;
},
{
glyphname = C;
layers = (
{
anchors = (
{
name = bottom;
position = "{405, 0}";
},
{
name = top;
position = "{413, 698}";
}
);
layerId = "A99C00BB-606F-4263-964D-93C8B7F0BADD";
paths = (
{
closed = 1;
nodes = (
"503 -10 OFFCURVE",
"571 17 OFFCURVE",
"633 52 CURVE SMOOTH",
"646 59 OFFCURVE",
"654 69 OFFCURVE",
"655 88 CURVE SMOOTH",
"656 109 OFFCURVE",
"640 128 OFFCURVE",
"615 128 CURVE SMOOTH",
"610 128 OFFCURVE",
"603 127 OFFCURVE",
"597 124 CURVE SMOOTH",
"544 96 OFFCURVE",
"492 77 OFFCURVE",
"414 77 CURVE SMOOTH",
"237 77 OFFCURVE",
"146 195 OFFCURVE",
"146 349 CURVE SMOOTH",
"146 503 OFFCURVE",
"237 621 OFFCURVE",
"414 621 CURVE SMOOTH",
"492 621 OFFCURVE",
"544 602 OFFCURVE",
"597 574 CURVE SMOOTH",
"603 571 OFFCURVE",
"610 570 OFFCURVE",
"615 570 CURVE SMOOTH",
"640 570 OFFCURVE",
"656 589 OFFCURVE",
"655 610 CURVE SMOOTH",
"654 629 OFFCURVE",
"646 639 OFFCURVE",
"633 646 CURVE SMOOTH",
"571 681 OFFCURVE",
"503 708 OFFCURVE",
"405 708 CURVE SMOOTH",
"206 708 OFFCURVE",
"55 572 OFFCURVE",
"55 349 CURVE SMOOTH",
"55 126 OFFCURVE",
"206 -10 OFFCURVE",
"405 -10 CURVE SMOOTH"
);
}
);
width = 697;
}
);
leftKerningGroup = C;
leftMetricsKey = O;
note = C;
rightKerningGroup = C;
unicode = 0043;
},
{
glyphname = Ccedilla;
layers = (
{
layerId = "A99C00BB-606F-4263-964D-93C8B7F0BADD";
paths = (
{
closed = 1;
nodes = (
"452 -221 OFFCURVE",
"492 -191 OFFCURVE",
"492 -129 CURVE SMOOTH",
"492 -87 OFFCURVE",
"460 -59 OFFCURVE",
"415 -59 CURVE SMOOTH",
"403 -59 OFFCURVE",
"393 -60 OFFCURVE",
"381 -63 CURVE",
"411 -10 LINE",
"506 -9 OFFCURVE",
"573 17 OFFCURVE",
"634 52 CURVE SMOOTH",
"647 59 OFFCURVE",
"655 69 OFFCURVE",
"656 88 CURVE SMOOTH",
"657 109 OFFCURVE",
"641 128 OFFCURVE",
"616 128 CURVE SMOOTH",
"611 128 OFFCURVE",
"604 127 OFFCURVE",
"598 124 CURVE SMOOTH",
"545 96 OFFCURVE",
"493 77 OFFCURVE",
"415 77 CURVE SMOOTH",
"238 77 OFFCURVE",
"147 195 OFFCURVE",
"147 349 CURVE SMOOTH",
"147 503 OFFCURVE",
"238 621 OFFCURVE",
"415 621 CURVE SMOOTH",
"493 621 OFFCURVE",
"545 602 OFFCURVE",
"598 574 CURVE SMOOTH",
"604 571 OFFCURVE",
"611 570 OFFCURVE",
"616 570 CURVE SMOOTH",
"641 570 OFFCURVE",
"657 589 OFFCURVE",
"656 610 CURVE SMOOTH",
"655 629 OFFCURVE",
"647 639 OFFCURVE",
"634 646 CURVE SMOOTH",
"572 681 OFFCURVE",
"504 708 OFFCURVE",
"406 708 CURVE SMOOTH",
"207 708 OFFCURVE",
"56 572 OFFCURVE",
"56 349 CURVE SMOOTH",
"56 140 OFFCURVE",
"188 8 OFFCURVE",
"369 -8 CURVE",
"321 -85 LINE SMOOTH",
"319 -88 OFFCURVE",
"317 -92 OFFCURVE",
"317 -99 CURVE SMOOTH",
"317 -108 OFFCURVE",
"326 -115 OFFCURVE",
"335 -115 CURVE SMOOTH",
"339 -115 OFFCURVE",
"343 -113 OFFCURVE",
"345 -112 CURVE SMOOTH",
"363 -103 OFFCURVE",
"375 -101 OFFCURVE",
"389 -101 CURVE SMOOTH",
"409 -101 OFFCURVE",
"425 -112 OFFCURVE",
"425 -132 CURVE SMOOTH",
"425 -167 OFFCURVE",
"400 -178 OFFCURVE",
"368 -178 CURVE SMOOTH",
"351 -178 OFFCURVE",
"331 -173 OFFCURVE",
"309 -161 CURVE",
"307 -160 OFFCURVE",
"303 -158 OFFCURVE",
"299 -158 CURVE SMOOTH",
"286 -158 OFFCURVE",
"280 -168 OFFCURVE",
"280 -178 CURVE SMOOTH",
"280 -185 OFFCURVE",
"286 -192 OFFCURVE",
"291 -195 CURVE SMOOTH",
"325 -216 OFFCURVE",
"359 -221 OFFCURVE",
"381 -221 CURVE SMOOTH"
);
}
);
width = 698;
}
);
leftKerningGroup = C;
note = Ccedilla;
rightKerningGroup = C;
unicode = 00C7;
},
{
glyphname = D;
layers = (
{
anchors = (
{
name = bottom;
position = "{375, 0}";
},
{
name = center;
position = "{375, 349}";
},
{
name = top;
position = "{375, 698}";
}
);
layerId = "A99C00BB-606F-4263-964D-93C8B7F0BADD";
paths = (
{
closed = 1;
nodes = (
"343 0 LINE SMOOTH",
"582 0 OFFCURVE",
"696 181 OFFCURVE",
"696 349 CURVE SMOOTH",
"696 518 OFFCURVE",
"582 698 OFFCURVE",
"343 698 CURVE SMOOTH",
"142 698 LINE SMOOTH",
"117 698 OFFCURVE",
"97 677 OFFCURVE",
"97 652 CURVE SMOOTH",
"97 45 LINE SMOOTH",
"97 20 OFFCURVE",
"117 0 OFFCURVE",
"142 0 CURVE SMOOTH"
);
},
{
closed = 1;
nodes = (
"188 613 LINE",
"332 613 LINE SMOOTH",
"499 613 OFFCURVE",
"606 505 OFFCURVE",
"606 349 CURVE SMOOTH",
"606 193 OFFCURVE",
"499 85 OFFCURVE",
"332 85 CURVE SMOOTH",
"188 85 LINE"
);
}
);
width = 750;
}
);
leftKerningGroup = B;
leftMetricsKey = I;
note = D;
rightKerningGroup = D;
unicode = 0044;
},
{
glyphname = Eth;
layers = (
{
layerId = "A99C00BB-606F-4263-964D-93C8B7F0BADD";
paths = (
{
closed = 1;
nodes = (
"350 0 LINE SMOOTH",
"589 0 OFFCURVE",
"703 181 OFFCURVE",
"703 349 CURVE SMOOTH",
"703 518 OFFCURVE",
"589 698 OFFCURVE",
"350 698 CURVE SMOOTH",
"149 698 LINE SMOOTH",
"124 698 OFFCURVE",
"104 677 OFFCURVE",
"104 652 CURVE SMOOTH",
"104 382 LINE",
"50 382 LINE SMOOTH",
"31 382 OFFCURVE",
"17 367 OFFCURVE",
"17 348 CURVE SMOOTH",
"17 329 OFFCURVE",
"31 315 OFFCURVE",
"50 315 CURVE SMOOTH",
"104 315 LINE",
"104 45 LINE SMOOTH",
"104 20 OFFCURVE",
"124 0 OFFCURVE",
"149 0 CURVE SMOOTH"
);
},
{
closed = 1;
nodes = (
"195 315 LINE",
"312 315 LINE SMOOTH",
"331 315 OFFCURVE",
"346 329 OFFCURVE",
"346 348 CURVE SMOOTH",
"346 367 OFFCURVE",
"331 382 OFFCURVE",
"312 382 CURVE SMOOTH",
"195 382 LINE",
"195 613 LINE",
"339 613 LINE SMOOTH",
"506 613 OFFCURVE",
"613 505 OFFCURVE",
"613 349 CURVE SMOOTH",
"613 193 OFFCURVE",
"506 85 OFFCURVE",
"339 85 CURVE SMOOTH",
"195 85 LINE"
);
}
);
width = 757;
}
);
leftKerningGroup = B;
note = Eth;
rightKerningGroup = D;
unicode = 00D0;
},
{
glyphname = E;
layers = (
{
anchors = (
{
name = bottom;
position = "{319, 0}";
},
{
name = ogonek;
position = "{571, 10}";
},
{
name = top;
position = "{319, 698}";
},
{
name = topleft;
position = "{20, 698}";
}
);
layerId = "A99C00BB-606F-4263-964D-93C8B7F0BADD";
paths = (
{
closed = 1;
nodes = (
"543 0 LINE SMOOTH",
"567 0 OFFCURVE",
"586 18 OFFCURVE",
"586 42 CURVE SMOOTH",
"586 66 OFFCURVE",
"567 85 OFFCURVE",
"543 85 CURVE SMOOTH",
"188 85 LINE",
"188 307 LINE",
"507 307 LINE SMOOTH",
"531 307 OFFCURVE",
"550 325 OFFCURVE",
"550 349 CURVE SMOOTH",
"550 373 OFFCURVE",
"531 392 OFFCURVE",
"507 392 CURVE SMOOTH",
"188 392 LINE",
"188 613 LINE",
"543 613 LINE SMOOTH",
"567 613 OFFCURVE",
"586 631 OFFCURVE",
"586 655 CURVE SMOOTH",
"586 679 OFFCURVE",
"567 698 OFFCURVE",
"543 698 CURVE SMOOTH",
"142 698 LINE SMOOTH",
"117 698 OFFCURVE",
"97 677 OFFCURVE",
"97 652 CURVE SMOOTH",
"97 45 LINE SMOOTH",
"97 20 OFFCURVE",
"117 0 OFFCURVE",
"142 0 CURVE SMOOTH"
);
}
);
width = 638;
}
);
leftKerningGroup = B;
leftMetricsKey = I;
note = E;
rightKerningGroup = E;
unicode = 0045;
},
{
glyphname = Eacute;
layers = (
{
layerId = "A99C00BB-606F-4263-964D-93C8B7F0BADD";
paths = (
{
closed = 1;
nodes = (
"543 0 LINE SMOOTH",
"567 0 OFFCURVE",
"586 18 OFFCURVE",
"586 42 CURVE SMOOTH",
"586 66 OFFCURVE",
"567 85 OFFCURVE",
"543 85 CURVE SMOOTH",
"188 85 LINE",
"188 307 LINE",
"507 307 LINE SMOOTH",
"531 307 OFFCURVE",
"550 325 OFFCURVE",
"550 349 CURVE SMOOTH",
"550 373 OFFCURVE",
"531 392 OFFCURVE",
"507 392 CURVE SMOOTH",
"188 392 LINE",
"188 613 LINE",
"543 613 LINE SMOOTH",
"567 613 OFFCURVE",
"586 631 OFFCURVE",
"586 655 CURVE SMOOTH",
"586 679 OFFCURVE",
"567 698 OFFCURVE",
"543 698 CURVE SMOOTH",
"142 698 LINE SMOOTH",
"117 698 OFFCURVE",
"97 677 OFFCURVE",
"97 652 CURVE SMOOTH",
"97 45 LINE SMOOTH",
"97 20 OFFCURVE",
"117 0 OFFCURVE",
"142 0 CURVE SMOOTH"
);
},
{
closed = 1;
nodes = (
"339 739 OFFCURVE",
"345 743 OFFCURVE",
"351 750 CURVE SMOOTH",
"420 832 LINE SMOOTH",
"427 840 OFFCURVE",
"430 848 OFFCURVE",
"430 857 CURVE SMOOTH",
"430 879 OFFCURVE",
"415 894 OFFCURVE",
"393 894 CURVE SMOOTH",
"376 894 OFFCURVE",
"366 886 OFFCURVE",
"360 875 CURVE SMOOTH",
"309 785 LINE",
"307 782 OFFCURVE",
"302 774 OFFCURVE",
"302 766 CURVE SMOOTH",
"302 750 OFFCURVE",
"313 739 OFFCURVE",
"329 739 CURVE SMOOTH"
);
}
);
width = 638;
}
);
leftKerningGroup = B;
note = Eacute;
rightKerningGroup = E;
unicode = 00C9;
},
{
glyphname = Edieresis;
layers = (
{
layerId = "A99C00BB-606F-4263-964D-93C8B7F0BADD";
paths = (
{
closed = 1;
nodes = (
"543 0 LINE SMOOTH",
"567 0 OFFCURVE",
"586 18 OFFCURVE",
"586 42 CURVE SMOOTH",
"586 66 OFFCURVE",
"567 85 OFFCURVE",
"543 85 CURVE SMOOTH",
"188 85 LINE",
"188 307 LINE",
"507 307 LINE SMOOTH",
"531 307 OFFCURVE",
"550 325 OFFCURVE",
"550 349 CURVE SMOOTH",
"550 373 OFFCURVE",
"531 392 OFFCURVE",
"507 392 CURVE SMOOTH",
"188 392 LINE",
"188 613 LINE",
"543 613 LINE SMOOTH",
"567 613 OFFCURVE",
"586 631 OFFCURVE",
"586 655 CURVE SMOOTH",
"586 679 OFFCURVE",
"567 698 OFFCURVE",
"543 698 CURVE SMOOTH",
"142 698 LINE SMOOTH",
"117 698 OFFCURVE",
"97 677 OFFCURVE",
"97 652 CURVE SMOOTH",
"97 45 LINE SMOOTH",
"97 20 OFFCURVE",
"117 0 OFFCURVE",
"142 0 CURVE SMOOTH"
);
},
{
closed = 1;
nodes = (
"282 747 OFFCURVE",
"305 770 OFFCURVE",
"305 798 CURVE SMOOTH",
"305 826 OFFCURVE",
"282 849 OFFCURVE",
"254 849 CURVE SMOOTH",
"226 849 OFFCURVE",
"203 826 OFFCURVE",
"203 798 CURVE SMOOTH",
"203 770 OFFCURVE",
"226 747 OFFCURVE",
"254 747 CURVE SMOOTH"
);
},
{
closed = 1;
nodes = (
"451 747 OFFCURVE",
"474 770 OFFCURVE",
"474 798 CURVE SMOOTH",
"474 826 OFFCURVE",
"451 849 OFFCURVE",
"423 849 CURVE SMOOTH",
"395 849 OFFCURVE",
"372 826 OFFCURVE",
"372 798 CURVE SMOOTH",
"372 770 OFFCURVE",
"395 747 OFFCURVE",
"423 747 CURVE SMOOTH"
);
}
);
width = 638;
}
);
leftKerningGroup = B;
note = Edieresis;
rightKerningGroup = E;
unicode = 00CB;
},
{
glyphname = F;
layers = (
{
anchors = (
{
name = bottom;
position = "{305, 0}";
},
{
name = top;
position = "{305, 698}";
}
);
layerId = "A99C00BB-606F-4263-964D-93C8B7F0BADD";
paths = (
{
closed = 1;
nodes = (
"167 -5 OFFCURVE",
"188 15 OFFCURVE",
"188 40 CURVE SMOOTH",
"188 307 LINE",
"496 307 LINE SMOOTH",
"520 307 OFFCURVE",
"539 325 OFFCURVE",
"539 349 CURVE SMOOTH",
"539 373 OFFCURVE",
"520 392 OFFCURVE",
"496 392 CURVE SMOOTH",
"188 392 LINE",
"188 613 LINE",
"531 613 LINE SMOOTH",
"555 613 OFFCURVE",
"574 631 OFFCURVE",
"574 655 CURVE SMOOTH",
"574 679 OFFCURVE",
"555 698 OFFCURVE",
"531 698 CURVE SMOOTH",
"142 698 LINE SMOOTH",
"117 698 OFFCURVE",
"97 677 OFFCURVE",
"97 652 CURVE SMOOTH",
"97 40 LINE SMOOTH",
"97 15 OFFCURVE",
"117 -5 OFFCURVE",
"142 -5 CURVE SMOOTH"
);
}
);
width = 610;
}
);
leftKerningGroup = B;
leftMetricsKey = I;
note = F;
unicode = 0046;
},
{
glyphname = G;
layers = (
{
anchors = (
{
name = bottom;
position = "{406, 0}";
},
{
name = top;
position = "{406, 698}";
}
);
layerId = "A99C00BB-606F-4263-964D-93C8B7F0BADD";
paths = (
{
closed = 1;
nodes = (
"493 -10 OFFCURVE",
"569 13 OFFCURVE",
"635 46 CURVE SMOOTH",
"658 57 OFFCURVE",
"673 80 OFFCURVE",
"673 108 CURVE SMOOTH",
"673 335 LINE SMOOTH",
"673 362 OFFCURVE",
"652 383 OFFCURVE",
"625 383 CURVE SMOOTH",
"428 383 LINE SMOOTH",
"405 383 OFFCURVE",
"387 365 OFFCURVE",
"387 342 CURVE SMOOTH",
"387 319 OFFCURVE",
"405 301 OFFCURVE",
"428 301 CURVE SMOOTH",
"593 301 LINE",
"593 120 LINE",
"547 95 OFFCURVE",
"488 76 OFFCURVE",
"418 76 CURVE SMOOTH",
"246 76 OFFCURVE",
"146 194 OFFCURVE",
"146 348 CURVE SMOOTH",
"146 523 OFFCURVE",
"262 620 OFFCURVE",
"413 620 CURVE SMOOTH",
"490 620 OFFCURVE",
"550 599 OFFCURVE",
"609 564 CURVE",
"615 561 OFFCURVE",
"622 559 OFFCURVE",
"630 559 CURVE SMOOTH",
"656 559 OFFCURVE",
"672 579 OFFCURVE",
"672 600 CURVE SMOOTH",
"672 618 OFFCURVE",
"661 631 OFFCURVE",
"652 636 CURVE",
"589 676 OFFCURVE",
"516 708 OFFCURVE",
"403 708 CURVE SMOOTH",
"209 708 OFFCURVE",
"55 565 OFFCURVE",
"55 348 CURVE SMOOTH",
"55 139 OFFCURVE",
"196 -10 OFFCURVE",
"406 -10 CURVE SMOOTH"
);
}
);
width = 744;
}
);
leftKerningGroup = C;
leftMetricsKey = O;
note = G;
unicode = 0047;
},
{
glyphname = H;
layers = (
{
anchors = (
{
name = bottom;
position = "{378, 0}";
},
{
name = center;
position = "{378, 349}";
},
{
name = top;
position = "{378, 698}";
},
{
name = topleft;
position = "{20, 698}";
}
);
layerId = "A99C00BB-606F-4263-964D-93C8B7F0BADD";
paths = (
{
closed = 1;
nodes = (
"167 -5 OFFCURVE",
"188 15 OFFCURVE",
"188 40 CURVE SMOOTH",
"188 306 LINE",
"567 306 LINE",
"567 40 LINE SMOOTH",
"567 15 OFFCURVE",
"587 -5 OFFCURVE",
"612 -5 CURVE SMOOTH",
"637 -5 OFFCURVE",
"658 15 OFFCURVE",
"658 40 CURVE SMOOTH",
"658 657 LINE SMOOTH",
"658 682 OFFCURVE",
"637 703 OFFCURVE",
"612 703 CURVE SMOOTH",
"587 703 OFFCURVE",
"567 682 OFFCURVE",
"567 657 CURVE SMOOTH",
"567 391 LINE",
"188 391 LINE",
"188 657 LINE SMOOTH",
"188 682 OFFCURVE",
"167 703 OFFCURVE",
"142 703 CURVE SMOOTH",
"117 703 OFFCURVE",
"97 682 OFFCURVE",
"97 657 CURVE SMOOTH",
"97 40 LINE SMOOTH",
"97 15 OFFCURVE",
"117 -5 OFFCURVE",
"142 -5 CURVE SMOOTH"
);
}
);
width = 755;
}
);
leftKerningGroup = B;
leftMetricsKey = I;
note = H;
rightKerningGroup = H;
rightMetricsKey = I;
unicode = 0048;
},
{
glyphname = I;
layers = (
{
anchors = (
{
name = bottom;
position = "{143, 0}";
},
{
name = ogonek;
position = "{176, 10}";
},
{
name = top;
position = "{143, 698}";
},
{
name = topleft;
position = "{20, 698}";
}
);
layerId = "A99C00BB-606F-4263-964D-93C8B7F0BADD";
paths = (
{
closed = 1;
nodes = (
"167 -5 OFFCURVE",
"188 15 OFFCURVE",
"188 40 CURVE SMOOTH",
"188 657 LINE SMOOTH",
"188 682 OFFCURVE",
"167 703 OFFCURVE",
"142 703 CURVE SMOOTH",
"117 703 OFFCURVE",
"97 682 OFFCURVE",
"97 657 CURVE SMOOTH",
"97 40 LINE SMOOTH",
"97 15 OFFCURVE",
"117 -5 OFFCURVE",
"142 -5 CURVE SMOOTH"
);
}
);
width = 285;
}
);
leftKerningGroup = B;
note = I;
rightKerningGroup = H;
unicode = 0049;
},
{
glyphname = Iacute;
layers = (
{
layerId = "A99C00BB-606F-4263-964D-93C8B7F0BADD";
paths = (
{
closed = 1;
nodes = (
"167 -5 OFFCURVE",
"188 15 OFFCURVE",
"188 40 CURVE SMOOTH",
"188 657 LINE SMOOTH",
"188 682 OFFCURVE",
"167 703 OFFCURVE",
"142 703 CURVE SMOOTH",
"117 703 OFFCURVE",
"97 682 OFFCURVE",
"97 657 CURVE SMOOTH",
"97 40 LINE SMOOTH",
"97 15 OFFCURVE",
"117 -5 OFFCURVE",
"142 -5 CURVE SMOOTH"
);
},
{
closed = 1;
nodes = (
"138 739 OFFCURVE",
"144 743 OFFCURVE",
"150 750 CURVE SMOOTH",
"219 832 LINE SMOOTH",
"226 840 OFFCURVE",
"229 848 OFFCURVE",
"229 857 CURVE SMOOTH",
"229 879 OFFCURVE",
"214 894 OFFCURVE",
"192 894 CURVE SMOOTH",
"175 894 OFFCURVE",
"165 886 OFFCURVE",
"159 875 CURVE SMOOTH",
"108 785 LINE",
"106 782 OFFCURVE",
"101 774 OFFCURVE",
"101 766 CURVE SMOOTH",
"101 750 OFFCURVE",
"112 739 OFFCURVE",
"128 739 CURVE SMOOTH"
);
}
);
width = 285;
}
);
leftKerningGroup = B;
note = Iacute;
rightKerningGroup = H;
unicode = 00CD;
},
{
glyphname = Idieresis;
layers = (
{
layerId = "A99C00BB-606F-4263-964D-93C8B7F0BADD";
paths = (
{
closed = 1;
nodes = (
"167 -5 OFFCURVE",
"188 15 OFFCURVE",
"188 40 CURVE SMOOTH",
"188 657 LINE SMOOTH",
"188 682 OFFCURVE",
"167 703 OFFCURVE",
"142 703 CURVE SMOOTH",
"117 703 OFFCURVE",
"97 682 OFFCURVE",
"97 657 CURVE SMOOTH",
"97 40 LINE SMOOTH",
"97 15 OFFCURVE",
"117 -5 OFFCURVE",
"142 -5 CURVE SMOOTH"
);
},
{
closed = 1;
nodes = (
"86 747 OFFCURVE",
"109 770 OFFCURVE",
"109 798 CURVE SMOOTH",
"109 826 OFFCURVE",
"86 849 OFFCURVE",
"58 849 CURVE SMOOTH",
"30 849 OFFCURVE",
"7 826 OFFCURVE",
"7 798 CURVE SMOOTH",
"7 770 OFFCURVE",
"30 747 OFFCURVE",
"58 747 CURVE SMOOTH"
);
},
{
closed = 1;
nodes = (
"255 747 OFFCURVE",
"278 770 OFFCURVE",
"278 798 CURVE SMOOTH",
"278 826 OFFCURVE",
"255 849 OFFCURVE",
"227 849 CURVE SMOOTH",
"199 849 OFFCURVE",
"176 826 OFFCURVE",
"176 798 CURVE SMOOTH",
"176 770 OFFCURVE",
"199 747 OFFCURVE",
"227 747 CURVE SMOOTH"
);
}
);
width = 285;
}
);
leftKerningGroup = B;
note = Idieresis;
rightKerningGroup = H;
unicode = 00CF;
},
{
glyphname = J;
layers = (
{
anchors = (
{
name = bottom;
position = "{233, 0}";
},
{
name = top;
position = "{233, 698}";
}
);
layerId = "A99C00BB-606F-4263-964D-93C8B7F0BADD";
paths = (
{
closed = 1;
nodes = (
"269 -10 OFFCURVE",
"373 39 OFFCURVE",
"373 230 CURVE SMOOTH",
"373 657 LINE SMOOTH",
"373 682 OFFCURVE",
"352 703 OFFCURVE",
"327 703 CURVE SMOOTH",
"302 703 OFFCURVE",
"282 682 OFFCURVE",
"282 657 CURVE SMOOTH",
"282 224 LINE SMOOTH",
"282 98 OFFCURVE",
"221 76 OFFCURVE",
"161 76 CURVE SMOOTH",
"126 76 OFFCURVE",
"95 85 OFFCURVE",
"68 98 CURVE SMOOTH",
"62 101 OFFCURVE",
"55 102 OFFCURVE",
"50 102 CURVE SMOOTH",
"27 102 OFFCURVE",
"12 82 OFFCURVE",
"12 61 CURVE SMOOTH",
"12 42 OFFCURVE",
"22 31 OFFCURVE",
"34 24 CURVE SMOOTH",
"71 3 OFFCURVE",
"116 -10 OFFCURVE",
"167 -10 CURVE SMOOTH"
);
}
);
width = 466;
}
);
note = J;
unicode = 004A;
},
{
glyphname = K;
layers = (
{
anchors = (
{
name = bottom;
position = "{335, 0}";
},
{
name = top;
position = "{335, 698}";
}
);
layerId = "A99C00BB-606F-4263-964D-93C8B7F0BADD";
paths = (
{
closed = 1;
nodes = (
"167 -5 OFFCURVE",
"188 15 OFFCURVE",
"188 40 CURVE SMOOTH",
"188 227 LINE",
"302 342 LINE",
"560 13 LINE",
"568 2 OFFCURVE",
"581 -5 OFFCURVE",
"596 -5 CURVE SMOOTH",
"621 -5 OFFCURVE",
"641 15 OFFCURVE",
"640 39 CURVE",
"640 50 OFFCURVE",
"636 59 OFFCURVE",
"629 68 CURVE SMOOTH",
"364 402 LINE",
"595 632 LINE SMOOTH",
"602 639 OFFCURVE",
"605 649 OFFCURVE",
"606 660 CURVE SMOOTH",
"608 684 OFFCURVE",
"588 703 OFFCURVE",
"564 703 CURVE SMOOTH",
"549 703 OFFCURVE",
"537 695 OFFCURVE",
"530 687 CURVE",
"188 339 LINE",
"188 657 LINE SMOOTH",
"188 682 OFFCURVE",
"167 703 OFFCURVE",
"142 703 CURVE SMOOTH",
"117 703 OFFCURVE",
"97 682 OFFCURVE",
"97 657 CURVE SMOOTH",
"97 40 LINE SMOOTH",
"97 15 OFFCURVE",
"117 -5 OFFCURVE",
"142 -5 CURVE SMOOTH"
);
}
);
width = 670;
}
);
leftKerningGroup = B;
leftMetricsKey = I;
note = K;
unicode = 004B;
},
{
glyphname = L;
layers = (
{
anchors = (
{
name = bottom;
position = "{329, 0}";
},
{
name = center;
position = "{288, 349}";
},
{
name = top;
position = "{288, 698}";
},
{
name = topright;
position = "{431, 698}";
}
);
layerId = "A99C00BB-606F-4263-964D-93C8B7F0BADD";
paths = (
{
closed = 1;
nodes = (
"515 0 LINE SMOOTH",
"540 0 OFFCURVE",
"561 20 OFFCURVE",
"561 45 CURVE SMOOTH",
"561 70 OFFCURVE",
"540 91 OFFCURVE",
"515 91 CURVE SMOOTH",
"188 91 LINE",
"188 657 LINE SMOOTH",
"188 682 OFFCURVE",
"167 703 OFFCURVE",
"142 703 CURVE SMOOTH",
"117 703 OFFCURVE",
"97 682 OFFCURVE",
"97 657 CURVE SMOOTH",
"97 63 LINE SMOOTH",
"97 28 OFFCURVE",
"125 0 OFFCURVE",
"160 0 CURVE SMOOTH"
);
}
);
width = 576;
}
);
leftKerningGroup = B;
leftMetricsKey = I;
note = L;
unicode = 004C;
},
{
glyphname = M;
layers = (
{
anchors = (
{
name = bottom;
position = "{483, 0}";
},
{
name = top;
position = "{483, 698}";
}
);
layerId = "A99C00BB-606F-4263-964D-93C8B7F0BADD";
paths = (
{
closed = 1;
nodes = (
"167 -5 OFFCURVE",
"188 15 OFFCURVE",
"188 40 CURVE SMOOTH",
"188 608 LINE",
"419 37 LINE SMOOTH",
"430 12 OFFCURVE",
"454 -5 OFFCURVE",
"483 -5 CURVE SMOOTH",
"512 -5 OFFCURVE",
"536 12 OFFCURVE",
"547 37 CURVE SMOOTH",
"778 608 LINE",
"778 40 LINE SMOOTH",
"778 15 OFFCURVE",
"799 -5 OFFCURVE",
"824 -5 CURVE SMOOTH",
"849 -5 OFFCURVE",
"869 15 OFFCURVE",
"869 40 CURVE SMOOTH",
"869 637 LINE SMOOTH",
"869 673 OFFCURVE",
"840 703 OFFCURVE",
"804 703 CURVE SMOOTH",
"771 703 LINE SMOOTH",
"744 703 OFFCURVE",
"720 685 OFFCURVE",
"710 661 CURVE SMOOTH",
"483 95 LINE",
"256 661 LINE SMOOTH",
"246 685 OFFCURVE",
"222 703 OFFCURVE",
"195 703 CURVE SMOOTH",
"162 703 LINE SMOOTH",
"126 703 OFFCURVE",
"97 673 OFFCURVE",
"97 637 CURVE SMOOTH",
"97 40 LINE SMOOTH",
"97 15 OFFCURVE",
"117 -5 OFFCURVE",
"142 -5 CURVE SMOOTH"
);
}
);
width = 966;
}
);
leftKerningGroup = B;
leftMetricsKey = I;
note = M;
rightKerningGroup = H;
rightMetricsKey = I;
unicode = 004D;
},
{
glyphname = N;
layers = (
{
anchors = (
{
name = bottom;
position = "{402, 0}";
},
{
name = top;
position = "{402, 698}";
}
);
layerId = "A99C00BB-606F-4263-964D-93C8B7F0BADD";
paths = (
{
closed = 1;
nodes = (
"167 -5 OFFCURVE",
"188 15 OFFCURVE",
"188 40 CURVE SMOOTH",
"188 581 LINE",
"575 22 LINE",
"587 6 OFFCURVE",
"606 -5 OFFCURVE",
"628 -5 CURVE SMOOTH",
"640 -5 LINE SMOOTH",
"676 -5 OFFCURVE",
"706 24 OFFCURVE",
"706 60 CURVE SMOOTH",
"706 657 LINE SMOOTH",
"706 682 OFFCURVE",
"685 703 OFFCURVE",
"660 703 CURVE SMOOTH",
"635 703 OFFCURVE",
"615 682 OFFCURVE",
"615 657 CURVE SMOOTH",
"615 117 LINE",
"230 673 LINE",
"216 691 OFFCURVE",
"197 703 OFFCURVE",
"175 703 CURVE SMOOTH",
"162 703 LINE SMOOTH",
"126 703 OFFCURVE",
"97 673 OFFCURVE",
"97 637 CURVE SMOOTH",
"97 40 LINE SMOOTH",
"97 15 OFFCURVE",
"117 -5 OFFCURVE",
"142 -5 CURVE SMOOTH"
);
}
);
width = 803;
}
);
leftKerningGroup = B;
leftMetricsKey = I;
note = N;
rightKerningGroup = H;
rightMetricsKey = I;
unicode = 004E;
},
{
glyphname = O;
layers = (
{
anchors = (
{
name = bottom;
position = "{406, 0}";
},
{
name = center;
position = "{406, 349}";
},
{
name = ogonek;
position = "{531, 10}";
},
{
name = top;
position = "{406, 698}";
},
{
name = topleft;
position = "{20, 698}";
},
{
name = topright;
position = "{791, 698}";
}
);
layerId = "A99C00BB-606F-4263-964D-93C8B7F0BADD";
paths = (
{
closed = 1;
nodes = (
"619 -10 OFFCURVE",
"753 140 OFFCURVE",
"757 349 CURVE",
"753 558 OFFCURVE",
"619 708 OFFCURVE",
"406 708 CURVE SMOOTH",
"192 708 OFFCURVE",
"59 558 OFFCURVE",
"55 349 CURVE",
"59 140 OFFCURVE",
"192 -10 OFFCURVE",
"406 -10 CURVE SMOOTH"
);
},
{
closed = 1;
nodes = (
"240 75 OFFCURVE",
"146 195 OFFCURVE",
"146 349 CURVE SMOOTH",
"146 503 OFFCURVE",
"240 623 OFFCURVE",
"406 623 CURVE SMOOTH",
"571 623 OFFCURVE",
"666 503 OFFCURVE",
"666 349 CURVE SMOOTH",
"666 195 OFFCURVE",
"571 75 OFFCURVE",
"406 75 CURVE SMOOTH"
);
}
);
width = 811;
}
);
leftKerningGroup = C;
note = O;
rightKerningGroup = O;
unicode = 004F;
},
{
glyphname = Oacute;
layers = (
{
layerId = "A99C00BB-606F-4263-964D-93C8B7F0BADD";
paths = (
{
closed = 1;
nodes = (
"619 -10 OFFCURVE",
"753 140 OFFCURVE",
"757 349 CURVE",
"753 558 OFFCURVE",
"619 708 OFFCURVE",
"406 708 CURVE SMOOTH",
"192 708 OFFCURVE",
"59 558 OFFCURVE",
"55 349 CURVE",
"59 140 OFFCURVE",
"192 -10 OFFCURVE",
"406 -10 CURVE SMOOTH"
);
},
{
closed = 1;
nodes = (
"240 75 OFFCURVE",
"146 195 OFFCURVE",
"146 349 CURVE SMOOTH",
"146 503 OFFCURVE",
"240 623 OFFCURVE",
"406 623 CURVE SMOOTH",
"571 623 OFFCURVE",
"666 503 OFFCURVE",
"666 349 CURVE SMOOTH",
"666 195 OFFCURVE",
"571 75 OFFCURVE",
"406 75 CURVE SMOOTH"
);
},
{
closed = 1;
nodes = (
"399 739 OFFCURVE",
"405 743 OFFCURVE",
"411 750 CURVE SMOOTH",
"480 832 LINE SMOOTH",
"487 840 OFFCURVE",
"490 848 OFFCURVE",
"490 857 CURVE SMOOTH",
"490 879 OFFCURVE",
"475 894 OFFCURVE",
"453 894 CURVE SMOOTH",
"436 894 OFFCURVE",
"426 886 OFFCURVE",
"420 875 CURVE SMOOTH",
"369 785 LINE",
"367 782 OFFCURVE",
"362 774 OFFCURVE",
"362 766 CURVE SMOOTH",
"362 750 OFFCURVE",
"373 739 OFFCURVE",
"389 739 CURVE SMOOTH"
);
}
);
width = 811;
}
);
leftKerningGroup = C;
note = Oacute;
rightKerningGroup = O;
unicode = 00D3;
},
{
glyphname = Oslash;
layers = (
{
anchors = (
{
name = bottom;
position = "{406, 0}";
},
{
name = top;
position = "{406, 698}";
}
);
layerId = "A99C00BB-606F-4263-964D-93C8B7F0BADD";
paths = (
{
closed = 1;
nodes = (
"166 -30 OFFCURVE",
"174 -27 OFFCURVE",
"179 -20 CURVE SMOOTH",
"219 37 LINE",
"271 7 OFFCURVE",
"334 -10 OFFCURVE",
"406 -10 CURVE SMOOTH",
"619 -10 OFFCURVE",
"753 140 OFFCURVE",
"757 349 CURVE",
"754 467 OFFCURVE",
"711 566 OFFCURVE",
"635 630 CURVE",
"674 686 LINE SMOOTH",
"678 692 OFFCURVE",
"680 697 OFFCURVE",
"680 703 CURVE SMOOTH",
"680 716 OFFCURVE",
"670 727 OFFCURVE",
"655 727 CURVE SMOOTH",
"647 727 OFFCURVE",
"639 724 OFFCURVE",
"634 717 CURVE SMOOTH",
"594 659 LINE",
"542 690 OFFCURVE",
"478 708 OFFCURVE",
"406 708 CURVE SMOOTH",
"192 708 OFFCURVE",
"59 558 OFFCURVE",
"55 349 CURVE",
"57 230 OFFCURVE",
"101 130 OFFCURVE",
"178 66 CURVE",
"139 11 LINE SMOOTH",
"135 5 OFFCURVE",
"133 0 OFFCURVE",
"133 -6 CURVE SMOOTH",
"133 -19 OFFCURVE",
"143 -30 OFFCURVE",
"158 -30 CURVE SMOOTH"
);
},
{
closed = 1;
nodes = (
"175 189 OFFCURVE",
"146 263 OFFCURVE",
"146 349 CURVE SMOOTH",
"146 503 OFFCURVE",
"240 623 OFFCURVE",
"406 623 CURVE SMOOTH",
"459 623 OFFCURVE",
"505 610 OFFCURVE",
"543 588 CURVE",
"229 139 LINE"
);
},
{
closed = 1;
nodes = (
"353 75 OFFCURVE",
"307 87 OFFCURVE",
"269 109 CURVE",
"584 558 LINE",
"637 508 OFFCURVE",
"666 433 OFFCURVE",
"666 349 CURVE SMOOTH",
"666 195 OFFCURVE",
"571 75 OFFCURVE",
"406 75 CURVE SMOOTH"
);
}
);
width = 811;
}
);
leftKerningGroup = C;
leftMetricsKey = O;
note = Oslash;
rightKerningGroup = O;
rightMetricsKey = O;
unicode = 00D8;
},
{
glyphname = Oslashacute;
layers = (
{
layerId = "A99C00BB-606F-4263-964D-93C8B7F0BADD";
paths = (
{
closed = 1;
nodes = (
"166 -30 OFFCURVE",
"174 -27 OFFCURVE",
"179 -20 CURVE SMOOTH",
"219 37 LINE",
"271 7 OFFCURVE",
"334 -10 OFFCURVE",
"406 -10 CURVE SMOOTH",
"619 -10 OFFCURVE",
"753 140 OFFCURVE",
"757 349 CURVE",
"754 467 OFFCURVE",
"711 566 OFFCURVE",
"635 630 CURVE",
"674 686 LINE SMOOTH",
"678 692 OFFCURVE",
"680 697 OFFCURVE",
"680 703 CURVE SMOOTH",
"680 716 OFFCURVE",
"670 727 OFFCURVE",
"655 727 CURVE SMOOTH",
"647 727 OFFCURVE",
"639 724 OFFCURVE",
"634 717 CURVE SMOOTH",
"594 659 LINE",
"542 690 OFFCURVE",
"478 708 OFFCURVE",
"406 708 CURVE SMOOTH",
"192 708 OFFCURVE",
"59 558 OFFCURVE",
"55 349 CURVE",
"57 230 OFFCURVE",
"101 130 OFFCURVE",
"178 66 CURVE",
"139 11 LINE SMOOTH",
"135 5 OFFCURVE",
"133 0 OFFCURVE",
"133 -6 CURVE SMOOTH",
"133 -19 OFFCURVE",
"143 -30 OFFCURVE",
"158 -30 CURVE SMOOTH"
);
},
{
closed = 1;
nodes = (
"175 189 OFFCURVE",
"146 263 OFFCURVE",
"146 349 CURVE SMOOTH",
"146 503 OFFCURVE",
"240 623 OFFCURVE",
"406 623 CURVE SMOOTH",
"459 623 OFFCURVE",
"505 610 OFFCURVE",
"543 588 CURVE",
"229 139 LINE"
);
},
{
closed = 1;
nodes = (
"353 75 OFFCURVE",
"307 87 OFFCURVE",
"269 109 CURVE",
"584 558 LINE",
"637 508 OFFCURVE",
"666 433 OFFCURVE",
"666 349 CURVE SMOOTH",
"666 195 OFFCURVE",
"571 75 OFFCURVE",
"406 75 CURVE SMOOTH"
);
},
{
closed = 1;
nodes = (
"399 739 OFFCURVE",
"405 743 OFFCURVE",
"411 750 CURVE SMOOTH",
"480 832 LINE SMOOTH",
"487 840 OFFCURVE",
"490 848 OFFCURVE",
"490 857 CURVE SMOOTH",
"490 879 OFFCURVE",
"475 894 OFFCURVE",
"453 894 CURVE SMOOTH",
"436 894 OFFCURVE",
"426 886 OFFCURVE",
"420 875 CURVE SMOOTH",
"369 785 LINE",
"367 782 OFFCURVE",
"362 774 OFFCURVE",
"362 766 CURVE SMOOTH",
"362 750 OFFCURVE",
"373 739 OFFCURVE",
"389 739 CURVE SMOOTH"
);
}
);
width = 811;
}
);
leftKerningGroup = C;
note = Oslashacute;
rightKerningGroup = O;
unicode = 01FE;
},
{
glyphname = Otilde;
layers = (
{
layerId = "A99C00BB-606F-4263-964D-93C8B7F0BADD";
paths = (
{
closed = 1;
nodes = (
"619 -10 OFFCURVE",
"753 140 OFFCURVE",
"757 349 CURVE",
"753 558 OFFCURVE",
"619 708 OFFCURVE",
"406 708 CURVE SMOOTH",
"192 708 OFFCURVE",
"59 558 OFFCURVE",
"55 349 CURVE",
"59 140 OFFCURVE",
"192 -10 OFFCURVE",
"406 -10 CURVE SMOOTH"
);
},
{
closed = 1;
nodes = (
"240 75 OFFCURVE",
"146 195 OFFCURVE",
"146 349 CURVE SMOOTH",
"146 503 OFFCURVE",
"240 623 OFFCURVE",
"406 623 CURVE SMOOTH",
"571 623 OFFCURVE",
"666 503 OFFCURVE",
"666 349 CURVE SMOOTH",
"666 195 OFFCURVE",
"571 75 OFFCURVE",
"406 75 CURVE SMOOTH"
);
},
{
closed = 1;
nodes = (
"281 743 OFFCURVE",
"288 752 OFFCURVE",
"291 761 CURVE",
"299 780 OFFCURVE",
"310 793 OFFCURVE",
"330 793 CURVE SMOOTH",
"382 793 OFFCURVE",
"425 745 OFFCURVE",
"484 745 CURVE SMOOTH",
"534 745 OFFCURVE",
"568 797 OFFCURVE",
"568 840 CURVE",
"567 852 OFFCURVE",
"559 862 OFFCURVE",
"545 862 CURVE SMOOTH",
"530 862 OFFCURVE",
"524 852 OFFCURVE",
"520 841 CURVE SMOOTH",
"514 824 OFFCURVE",
"504 814 OFFCURVE",
"483 814 CURVE SMOOTH",
"429 814 OFFCURVE",
"387 861 OFFCURVE",
"329 861 CURVE SMOOTH",
"277 861 OFFCURVE",
"245 806 OFFCURVE",
"245 766 CURVE SMOOTH",
"245 753 OFFCURVE",
"256 743 OFFCURVE",
"268 743 CURVE SMOOTH"
);
}
);
width = 811;
}
);
leftKerningGroup = C;
note = Otilde;
rightKerningGroup = O;
unicode = 00D5;
},
{
glyphname = P;
layers = (
{
anchors = (
{
name = bottom;
position = "{335, 0}";
},
{
name = top;
position = "{335, 698}";
}
);
layerId = "A99C00BB-606F-4263-964D-93C8B7F0BADD";
paths = (
{
closed = 1;
nodes = (
"167 -5 OFFCURVE",
"188 15 OFFCURVE",
"188 40 CURVE SMOOTH",
"188 254 LINE",
"370 254 LINE SMOOTH",
"572 254 OFFCURVE",
"637 370 OFFCURVE",
"637 476 CURVE SMOOTH",
"637 582 OFFCURVE",
"572 698 OFFCURVE",
"370 698 CURVE SMOOTH",
"142 698 LINE SMOOTH",
"117 698 OFFCURVE",
"97 677 OFFCURVE",
"97 652 CURVE SMOOTH",
"97 40 LINE SMOOTH",
"97 15 OFFCURVE",
"117 -5 OFFCURVE",
"142 -5 CURVE SMOOTH"
);
},
{
closed = 1;
nodes = (
"188 612 LINE",
"361 612 LINE SMOOTH",
"510 612 OFFCURVE",
"546 541 OFFCURVE",
"546 476 CURVE SMOOTH",
"546 411 OFFCURVE",
"510 340 OFFCURVE",
"361 340 CURVE SMOOTH",
"188 340 LINE"
);
}
);
width = 669;
}
);
leftKerningGroup = B;
leftMetricsKey = I;
note = P;
unicode = 0050;
},
{
glyphname = Thorn;
layers = (
{
anchors = (
{
name = bottom;
position = "{336, 0}";
},
{
name = top;
position = "{336, 698}";
}
);
layerId = "A99C00BB-606F-4263-964D-93C8B7F0BADD";
paths = (
{
closed = 1;
nodes = (
"167 -5 OFFCURVE",
"188 15 OFFCURVE",
"188 40 CURVE SMOOTH",
"188 142 LINE",
"370 142 LINE SMOOTH",
"572 142 OFFCURVE",
"637 258 OFFCURVE",
"637 364 CURVE SMOOTH",
"637 470 OFFCURVE",
"572 586 OFFCURVE",
"370 586 CURVE SMOOTH",
"188 586 LINE",
"188 657 LINE SMOOTH",
"188 682 OFFCURVE",
"167 703 OFFCURVE",
"142 703 CURVE SMOOTH",
"117 703 OFFCURVE",
"97 682 OFFCURVE",
"97 657 CURVE SMOOTH",
"97 40 LINE SMOOTH",
"97 15 OFFCURVE",
"117 -5 OFFCURVE",
"142 -5 CURVE SMOOTH"
);
},
{
closed = 1;
nodes = (
"188 500 LINE",
"361 500 LINE SMOOTH",
"510 500 OFFCURVE",
"546 429 OFFCURVE",
"546 364 CURVE SMOOTH",
"546 299 OFFCURVE",
"510 228 OFFCURVE",
"361 228 CURVE SMOOTH",
"188 228 LINE"
);
}
);
width = 671;
}
);
leftKerningGroup = B;
leftMetricsKey = I;
note = Thorn;
unicode = 00DE;
},
{
glyphname = Q;
layers = (
{
anchors = (
{
name = bottom;
position = "{406, 0}";
},
{
name = top;
position = "{406, 698}";
}
);
layerId = "A99C00BB-606F-4263-964D-93C8B7F0BADD";
paths = (
{
closed = 1;
nodes = (
"631 -152 OFFCURVE",
"651 -132 OFFCURVE",
"650 -109 CURVE",
"650 -98 OFFCURVE",
"645 -87 OFFCURVE",
"638 -80 CURVE",
"550 17 LINE",
"678 70 OFFCURVE",
"754 193 OFFCURVE",
"757 349 CURVE",
"753 558 OFFCURVE",
"619 708 OFFCURVE",
"406 708 CURVE SMOOTH",
"192 708 OFFCURVE",
"59 558 OFFCURVE",
"55 349 CURVE",
"59 140 OFFCURVE",
"192 -10 OFFCURVE",
"406 -10 CURVE SMOOTH",
"427 -10 OFFCURVE",
"447 -9 OFFCURVE",
"466 -6 CURVE",
"575 -136 LINE SMOOTH",
"583 -146 OFFCURVE",
"594 -152 OFFCURVE",
"607 -152 CURVE SMOOTH"
);
},
{
closed = 1;
nodes = (
"240 75 OFFCURVE",
"146 195 OFFCURVE",
"146 349 CURVE SMOOTH",
"146 503 OFFCURVE",
"240 623 OFFCURVE",
"406 623 CURVE SMOOTH",
"571 623 OFFCURVE",
"666 503 OFFCURVE",
"666 349 CURVE SMOOTH",
"666 195 OFFCURVE",
"571 75 OFFCURVE",
"406 75 CURVE SMOOTH"
);
}
);
width = 811;
}
);
leftKerningGroup = C;
leftMetricsKey = O;
note = Q;
rightKerningGroup = O;
rightMetricsKey = O;
unicode = 0051;
},
{
glyphname = R;
layers = (
{
anchors = (
{
name = bottom;
position = "{356, 0}";
},
{
name = top;
position = "{356, 698}";
}
);
layerId = "A99C00BB-606F-4263-964D-93C8B7F0BADD";
paths = (
{
closed = 1;
nodes = (
"167 -5 OFFCURVE",
"188 15 OFFCURVE",
"188 40 CURVE SMOOTH",
"188 272 LINE",
"395 272 LINE SMOOTH",
"546 272 OFFCURVE",
"550 136 OFFCURVE",
"550 70 CURVE SMOOTH",
"550 40 LINE SMOOTH",
"550 13 OFFCURVE",
"568 -5 OFFCURVE",
"596 -5 CURVE SMOOTH",
"621 -5 OFFCURVE",
"641 15 OFFCURVE",
"641 40 CURVE SMOOTH",
"641 86 LINE SMOOTH",
"641 142 OFFCURVE",
"627 285 OFFCURVE",
"516 314 CURVE",
"604 344 OFFCURVE",
"647 418 OFFCURVE",
"647 495 CURVE SMOOTH",
"647 610 OFFCURVE",
"565 698 OFFCURVE",
"375 698 CURVE SMOOTH",
"142 698 LINE SMOOTH",
"117 698 OFFCURVE",
"97 677 OFFCURVE",
"97 652 CURVE SMOOTH",
"97 40 LINE SMOOTH",
"97 15 OFFCURVE",
"117 -5 OFFCURVE",
"142 -5 CURVE SMOOTH"
);
},
{
closed = 1;
nodes = (
"188 612 LINE",
"364 612 LINE SMOOTH",
"512 612 OFFCURVE",
"556 562 OFFCURVE",
"556 488 CURVE SMOOTH",
"556 403 OFFCURVE",
"481 358 OFFCURVE",
"369 358 CURVE SMOOTH",
"188 358 LINE"
);
}
);
width = 712;
}
);
leftKerningGroup = B;
leftMetricsKey = I;
note = R;
unicode = 0052;
},
{
glyphname = S;
layers = (
{
anchors = (
{
name = bottom;
position = "{308, 0}";
},
{
name = top;
position = "{308, 698}";
}
);
layerId = "A99C00BB-606F-4263-964D-93C8B7F0BADD";
paths = (
{
closed = 1;
nodes = (
"472 -10 OFFCURVE",
"573 72 OFFCURVE",
"573 185 CURVE SMOOTH",
"573 449 OFFCURVE",
"149 337 OFFCURVE",
"149 510 CURVE SMOOTH",
"149 585 OFFCURVE",
"226 624 OFFCURVE",
"327 624 CURVE SMOOTH",
"388 624 OFFCURVE",
"442 613 OFFCURVE",
"488 597 CURVE",
"493 595 OFFCURVE",
"499 593 OFFCURVE",
"504 593 CURVE SMOOTH",
"529 593 OFFCURVE",
"544 615 OFFCURVE",
"544 635 CURVE SMOOTH",
"544 659 OFFCURVE",
"530 670 OFFCURVE",
"516 675 CURVE SMOOTH",
"462 695 OFFCURVE",
"395 708 OFFCURVE",
"317 708 CURVE SMOOTH",
"148 708 OFFCURVE",
"58 614 OFFCURVE",
"58 503 CURVE SMOOTH",
"58 257 OFFCURVE",
"483 339 OFFCURVE",
"483 191 CURVE SMOOTH",
"483 104 OFFCURVE",
"407 76 OFFCURVE",
"308 76 CURVE SMOOTH",
"222 76 OFFCURVE",
"156 97 OFFCURVE",
"111 117 CURVE SMOOTH",
"104 120 OFFCURVE",
"98 121 OFFCURVE",
"92 121 CURVE SMOOTH",
"67 121 OFFCURVE",
"51 101 OFFCURVE",
"51 79 CURVE SMOOTH",
"51 61 OFFCURVE",
"64 44 OFFCURVE",
"79 38 CURVE SMOOTH",
"137 13 OFFCURVE",
"217 -10 OFFCURVE",
"317 -10 CURVE SMOOTH"
);
}
);
width = 616;
}
);
leftKerningGroup = S;
note = S;
rightKerningGroup = S;
unicode = 0053;
},
{
glyphname = Scommaaccent;
layers = (
{
layerId = "A99C00BB-606F-4263-964D-93C8B7F0BADD";
paths = (
{
closed = 1;
nodes = (
"472 -10 OFFCURVE",
"573 72 OFFCURVE",
"573 185 CURVE SMOOTH",
"573 449 OFFCURVE",
"149 337 OFFCURVE",
"149 510 CURVE SMOOTH",
"149 585 OFFCURVE",
"226 624 OFFCURVE",
"327 624 CURVE SMOOTH",
"388 624 OFFCURVE",
"442 613 OFFCURVE",
"488 597 CURVE",
"493 595 OFFCURVE",
"499 593 OFFCURVE",
"504 593 CURVE SMOOTH",
"529 593 OFFCURVE",
"544 615 OFFCURVE",
"544 635 CURVE SMOOTH",
"544 659 OFFCURVE",
"530 670 OFFCURVE",
"516 675 CURVE SMOOTH",
"462 695 OFFCURVE",
"395 708 OFFCURVE",
"317 708 CURVE SMOOTH",
"148 708 OFFCURVE",
"58 614 OFFCURVE",
"58 503 CURVE SMOOTH",
"58 257 OFFCURVE",
"483 339 OFFCURVE",
"483 191 CURVE SMOOTH",
"483 104 OFFCURVE",
"407 76 OFFCURVE",
"308 76 CURVE SMOOTH",
"222 76 OFFCURVE",
"156 97 OFFCURVE",
"111 117 CURVE SMOOTH",
"104 120 OFFCURVE",
"98 121 OFFCURVE",
"92 121 CURVE SMOOTH",
"67 121 OFFCURVE",
"51 101 OFFCURVE",
"51 79 CURVE SMOOTH",
"51 61 OFFCURVE",
"64 44 OFFCURVE",
"79 38 CURVE SMOOTH",
"137 13 OFFCURVE",
"217 -10 OFFCURVE",
"317 -10 CURVE SMOOTH"
);
},
{
closed = 1;
nodes = (
"285 -286 OFFCURVE",
"292 -283 OFFCURVE",
"294 -281 CURVE",
"329 -260 OFFCURVE",
"368 -222 OFFCURVE",
"368 -150 CURVE SMOOTH",
"368 -103 LINE",
"368 -98 LINE SMOOTH",
"368 -70 OFFCURVE",
"345 -47 OFFCURVE",
"318 -47 CURVE SMOOTH",
"309 -47 LINE SMOOTH",
"281 -47 OFFCURVE",
"258 -70 OFFCURVE",
"258 -98 CURVE SMOOTH",
"258 -103 LINE SMOOTH",
"258 -131 OFFCURVE",
"281 -153 OFFCURVE",
"309 -153 CURVE SMOOTH",
"312 -153 LINE",
"312 -202 OFFCURVE",
"293 -221 OFFCURVE",
"267 -236 CURVE",
"258 -242 OFFCURVE",
"253 -249 OFFCURVE",
"253 -259 CURVE SMOOTH",
"253 -273 OFFCURVE",
"264 -286 OFFCURVE",
"279 -286 CURVE SMOOTH"
);
}
);
width = 617;
}
);
leftKerningGroup = S;
note = Scommaaccent;
rightKerningGroup = S;
unicode = 0218;
},
{
glyphname = T;
layers = (
{
anchors = (
{
name = bottom;
position = "{306, 0}";
},
{
name = center;
position = "{306, 349}";
},
{
name = top;
position = "{306, 698}";
}
);
layerId = "A99C00BB-606F-4263-964D-93C8B7F0BADD";
paths = (
{
closed = 1;
nodes = (
"330 -5 OFFCURVE",
"351 15 OFFCURVE",
"351 40 CURVE SMOOTH",
"351 613 LINE",
"554 613 LINE SMOOTH",
"578 613 OFFCURVE",
"597 631 OFFCURVE",
"597 655 CURVE SMOOTH",
"597 679 OFFCURVE",
"578 698 OFFCURVE",
"554 698 CURVE SMOOTH",
"56 698 LINE SMOOTH",
"32 698 OFFCURVE",
"14 679 OFFCURVE",
"14 655 CURVE SMOOTH",
"14 631 OFFCURVE",
"32 613 OFFCURVE",
"56 613 CURVE SMOOTH",
"260 613 LINE",
"260 40 LINE SMOOTH",
"260 15 OFFCURVE",
"280 -5 OFFCURVE",
"305 -5 CURVE SMOOTH"
);
}
);
width = 611;
}
);
leftKerningGroup = T;
note = T;
rightKerningGroup = T;
unicode = 0054;
},
{
glyphname = Tcommaaccent;
layers = (
{
layerId = "A99C00BB-606F-4263-964D-93C8B7F0BADD";
paths = (
{
closed = 1;
nodes = (
"329 -5 OFFCURVE",
"350 15 OFFCURVE",
"350 40 CURVE SMOOTH",
"350 613 LINE",
"553 613 LINE SMOOTH",
"577 613 OFFCURVE",
"596 631 OFFCURVE",
"596 655 CURVE SMOOTH",
"596 679 OFFCURVE",
"577 698 OFFCURVE",
"553 698 CURVE SMOOTH",
"55 698 LINE SMOOTH",
"31 698 OFFCURVE",
"13 679 OFFCURVE",
"13 655 CURVE SMOOTH",
"13 631 OFFCURVE",
"31 613 OFFCURVE",
"55 613 CURVE SMOOTH",
"259 613 LINE",
"259 40 LINE SMOOTH",
"259 15 OFFCURVE",
"279 -5 OFFCURVE",
"304 -5 CURVE SMOOTH"
);
},
{
closed = 1;
nodes = (
"276 -286 OFFCURVE",
"283 -283 OFFCURVE",
"285 -281 CURVE",
"320 -260 OFFCURVE",
"359 -222 OFFCURVE",
"359 -150 CURVE SMOOTH",
"359 -103 LINE",
"359 -98 LINE SMOOTH",
"359 -70 OFFCURVE",
"336 -47 OFFCURVE",
"309 -47 CURVE SMOOTH",
"300 -47 LINE SMOOTH",
"272 -47 OFFCURVE",
"249 -70 OFFCURVE",
"249 -98 CURVE SMOOTH",
"249 -103 LINE SMOOTH",
"249 -131 OFFCURVE",
"272 -153 OFFCURVE",
"300 -153 CURVE SMOOTH",
"303 -153 LINE",
"303 -202 OFFCURVE",
"284 -221 OFFCURVE",
"258 -236 CURVE",
"249 -242 OFFCURVE",
"244 -249 OFFCURVE",
"244 -259 CURVE SMOOTH",
"244 -273 OFFCURVE",
"255 -286 OFFCURVE",
"270 -286 CURVE SMOOTH"
);
}
);
width = 609;
}
);
leftKerningGroup = T;
note = uni021A;
rightKerningGroup = T;
unicode = 021A;
},
{
glyphname = U;
layers = (
{
anchors = (
{
name = bottom;
position = "{379, 0}";
},
{
name = ogonek;
position = "{490, 10}";
},
{
name = top;
position = "{379, 698}";
},
{
name = topright;
position = "{738, 698}";
}
);
layerId = "A99C00BB-606F-4263-964D-93C8B7F0BADD";
paths = (
{
closed = 1;
nodes = (
"513 -10 OFFCURVE",
"666 74 OFFCURVE",
"666 262 CURVE SMOOTH",
"666 657 LINE SMOOTH",
"666 682 OFFCURVE",
"645 703 OFFCURVE",
"620 703 CURVE SMOOTH",
"595 703 OFFCURVE",
"575 682 OFFCURVE",
"575 657 CURVE SMOOTH",
"575 259 LINE SMOOTH",
"575 134 OFFCURVE",
"477 73 OFFCURVE",
"379 73 CURVE SMOOTH",
"281 73 OFFCURVE",
"183 134 OFFCURVE",
"183 259 CURVE SMOOTH",
"183 657 LINE SMOOTH",
"183 682 OFFCURVE",
"162 703 OFFCURVE",
"137 703 CURVE SMOOTH",
"112 703 OFFCURVE",
"92 682 OFFCURVE",
"92 657 CURVE SMOOTH",
"92 262 LINE SMOOTH",
"92 74 OFFCURVE",
"245 -10 OFFCURVE",
"379 -10 CURVE SMOOTH"
);
}
);
width = 758;
}
);
leftKerningGroup = U;
leftMetricsKey = "=I-5";
note = U;
rightKerningGroup = U;
rightMetricsKey = "=I-5";
unicode = 0055;
},
{
glyphname = Uacute;
layers = (
{
layerId = "A99C00BB-606F-4263-964D-93C8B7F0BADD";
paths = (
{
closed = 1;
nodes = (
"513 -10 OFFCURVE",
"666 74 OFFCURVE",
"666 262 CURVE SMOOTH",
"666 657 LINE SMOOTH",
"666 682 OFFCURVE",
"645 703 OFFCURVE",
"620 703 CURVE SMOOTH",
"595 703 OFFCURVE",
"575 682 OFFCURVE",
"575 657 CURVE SMOOTH",
"575 259 LINE SMOOTH",
"575 134 OFFCURVE",
"477 73 OFFCURVE",
"379 73 CURVE SMOOTH",
"281 73 OFFCURVE",
"183 134 OFFCURVE",
"183 259 CURVE SMOOTH",
"183 657 LINE SMOOTH",
"183 682 OFFCURVE",
"162 703 OFFCURVE",
"137 703 CURVE SMOOTH",
"112 703 OFFCURVE",
"92 682 OFFCURVE",
"92 657 CURVE SMOOTH",
"92 262 LINE SMOOTH",
"92 74 OFFCURVE",
"245 -10 OFFCURVE",
"379 -10 CURVE SMOOTH"
);
},
{
closed = 1;
nodes = (
"366 739 OFFCURVE",
"372 743 OFFCURVE",
"378 750 CURVE SMOOTH",
"447 832 LINE SMOOTH",
"454 840 OFFCURVE",
"457 848 OFFCURVE",
"457 857 CURVE SMOOTH",
"457 879 OFFCURVE",
"442 894 OFFCURVE",
"420 894 CURVE SMOOTH",
"403 894 OFFCURVE",
"393 886 OFFCURVE",
"387 875 CURVE SMOOTH",
"336 785 LINE",
"334 782 OFFCURVE",
"329 774 OFFCURVE",
"329 766 CURVE SMOOTH",
"329 750 OFFCURVE",
"340 739 OFFCURVE",
"356 739 CURVE SMOOTH"
);
}
);
width = 758;
}
);
leftKerningGroup = U;
note = Uacute;
rightKerningGroup = U;
unicode = 00DA;
},
{
glyphname = Udieresis;
layers = (
{
layerId = "A99C00BB-606F-4263-964D-93C8B7F0BADD";
paths = (
{
closed = 1;
nodes = (
"513 -10 OFFCURVE",
"666 74 OFFCURVE",
"666 262 CURVE SMOOTH",
"666 657 LINE SMOOTH",
"666 682 OFFCURVE",
"645 703 OFFCURVE",
"620 703 CURVE SMOOTH",
"595 703 OFFCURVE",
"575 682 OFFCURVE",
"575 657 CURVE SMOOTH",
"575 259 LINE SMOOTH",
"575 134 OFFCURVE",
"477 73 OFFCURVE",
"379 73 CURVE SMOOTH",
"281 73 OFFCURVE",
"183 134 OFFCURVE",
"183 259 CURVE SMOOTH",
"183 657 LINE SMOOTH",
"183 682 OFFCURVE",
"162 703 OFFCURVE",
"137 703 CURVE SMOOTH",
"112 703 OFFCURVE",
"92 682 OFFCURVE",
"92 657 CURVE SMOOTH",
"92 262 LINE SMOOTH",
"92 74 OFFCURVE",
"245 -10 OFFCURVE",
"379 -10 CURVE SMOOTH"
);
},
{
closed = 1;
nodes = (
"323 747 OFFCURVE",
"346 770 OFFCURVE",
"346 798 CURVE SMOOTH",
"346 826 OFFCURVE",
"323 849 OFFCURVE",
"295 849 CURVE SMOOTH",
"267 849 OFFCURVE",
"244 826 OFFCURVE",
"244 798 CURVE SMOOTH",
"244 770 OFFCURVE",
"267 747 OFFCURVE",
"295 747 CURVE SMOOTH"
);
},
{
closed = 1;
nodes = (
"492 747 OFFCURVE",
"515 770 OFFCURVE",
"515 798 CURVE SMOOTH",
"515 826 OFFCURVE",
"492 849 OFFCURVE",
"464 849 CURVE SMOOTH",
"436 849 OFFCURVE",
"413 826 OFFCURVE",
"413 798 CURVE SMOOTH",
"413 770 OFFCURVE",
"436 747 OFFCURVE",
"464 747 CURVE SMOOTH"
);
}
);
width = 758;
}
);
leftKerningGroup = U;
note = Udieresis;
rightKerningGroup = U;
unicode = 00DC;
},
{
glyphname = V;
layers = (
{
anchors = (
{
name = bottom;
position = "{347, 0}";
},
{
name = top;
position = "{347, 698}";
}
);
layerId = "A99C00BB-606F-4263-964D-93C8B7F0BADD";
paths = (
{
closed = 1;
nodes = (
"358 -5 LINE SMOOTH",
"386 -5 OFFCURVE",
"407 12 OFFCURVE",
"420 41 CURVE SMOOTH",
"667 640 LINE SMOOTH",
"669 645 OFFCURVE",
"670 652 OFFCURVE",
"670 657 CURVE SMOOTH",
"670 684 OFFCURVE",
"653 703 OFFCURVE",
"625 703 CURVE SMOOTH",
"607 703 OFFCURVE",
"590 691 OFFCURVE",
"582 672 CURVE SMOOTH",
"347 86 LINE",
"112 672 LINE SMOOTH",
"104 691 OFFCURVE",
"87 703 OFFCURVE",
"69 703 CURVE SMOOTH",
"41 703 OFFCURVE",
"24 684 OFFCURVE",
"24 657 CURVE SMOOTH",
"24 652 OFFCURVE",
"25 645 OFFCURVE",
"27 640 CURVE SMOOTH",
"274 41 LINE SMOOTH",
"287 12 OFFCURVE",
"308 -5 OFFCURVE",
"336 -5 CURVE SMOOTH"
);
}
);
width = 694;
}
);
note = V;
unicode = 0056;
},
{
glyphname = W;
layers = (
{
anchors = (
{
name = bottom;
position = "{504, 0}";
},
{
name = top;
position = "{504, 698}";
}
);
layerId = "A99C00BB-606F-4263-964D-93C8B7F0BADD";
paths = (
{
closed = 1;
nodes = (
"311 -5 OFFCURVE",
"335 14 OFFCURVE",
"343 40 CURVE SMOOTH",
"504 550 LINE",
"665 40 LINE SMOOTH",
"673 14 OFFCURVE",
"697 -5 OFFCURVE",
"724 -5 CURVE SMOOTH",
"749 -5 OFFCURVE",
"772 9 OFFCURVE",
"783 40 CURVE SMOOTH",
"979 642 LINE",
"981 649 OFFCURVE",
"982 654 OFFCURVE",
"982 659 CURVE",
"984 684 OFFCURVE",
"964 703 OFFCURVE",
"938 703 CURVE SMOOTH",
"916 703 OFFCURVE",
"899 688 OFFCURVE",
"893 667 CURVE SMOOTH",
"725 115 LINE",
"556 665 LINE SMOOTH",
"549 687 OFFCURVE",
"528 703 OFFCURVE",
"504 703 CURVE SMOOTH",
"480 703 OFFCURVE",
"459 687 OFFCURVE",
"452 665 CURVE SMOOTH",
"283 115 LINE",
"115 667 LINE SMOOTH",
"109 688 OFFCURVE",
"92 703 OFFCURVE",
"70 703 CURVE SMOOTH",
"44 703 OFFCURVE",
"24 684 OFFCURVE",
"26 659 CURVE",
"26 654 OFFCURVE",
"27 649 OFFCURVE",
"29 642 CURVE",
"225 40 LINE SMOOTH",
"236 9 OFFCURVE",
"259 -5 OFFCURVE",
"284 -5 CURVE SMOOTH"
);
}
);
width = 1007;
}
);
note = W;
unicode = 0057;
},
{
glyphname = X;
layers = (
{
anchors = (
{
name = bottom;
position = "{335, 0}";
},
{
name = top;
position = "{335, 698}";
}
);
layerId = "A99C00BB-606F-4263-964D-93C8B7F0BADD";
paths = (
{
closed = 1;
nodes = (
"100 -5 OFFCURVE",
"111 2 OFFCURVE",
"120 13 CURVE SMOOTH",
"331 283 LINE",
"545 14 LINE",
"553 3 OFFCURVE",
"566 -5 OFFCURVE",
"581 -5 CURVE SMOOTH",
"609 -5 OFFCURVE",
"626 16 OFFCURVE",
"626 40 CURVE SMOOTH",
"626 50 OFFCURVE",
"623 59 OFFCURVE",
"617 66 CURVE SMOOTH",
"386 350 LINE",
"617 635 LINE",
"622 642 OFFCURVE",
"625 651 OFFCURVE",
"625 660 CURVE SMOOTH",
"625 684 OFFCURVE",
"605 703 OFFCURVE",
"581 703 CURVE SMOOTH",
"567 703 OFFCURVE",
"555 697 OFFCURVE",
"548 687 CURVE",
"337 417 LINE",
"126 685 LINE",
"118 696 OFFCURVE",
"104 703 OFFCURVE",
"89 703 CURVE SMOOTH",
"64 703 OFFCURVE",
"45 684 OFFCURVE",
"45 659 CURVE SMOOTH",
"45 648 OFFCURVE",
"48 639 OFFCURVE",
"54 631 CURVE",
"283 349 LINE",
"52 65 LINE",
"46 57 OFFCURVE",
"43 47 OFFCURVE",
"43 37 CURVE SMOOTH",
"43 14 OFFCURVE",
"62 -5 OFFCURVE",
"85 -5 CURVE SMOOTH"
);
}
);
width = 669;
}
);
note = X;
unicode = 0058;
},
{
glyphname = Y;
layers = (
{
anchors = (
{
name = bottom;
position = "{323, 0}";
},
{
name = top;
position = "{323, 698}";
},
{
name = topleft;
position = "{20, 698}";
}
);
layerId = "A99C00BB-606F-4263-964D-93C8B7F0BADD";
paths = (
{
closed = 1;
nodes = (
"348 -5 OFFCURVE",
"368 15 OFFCURVE",
"368 40 CURVE SMOOTH",
"368 295 LINE",
"608 630 LINE",
"613 638 OFFCURVE",
"616 647 OFFCURVE",
"616 657 CURVE",
"617 682 OFFCURVE",
"598 703 OFFCURVE",
"572 703 CURVE SMOOTH",
"555 703 OFFCURVE",
"542 695 OFFCURVE",
"532 680 CURVE SMOOTH",
"323 376 LINE",
"114 680 LINE SMOOTH",
"104 695 OFFCURVE",
"91 703 OFFCURVE",
"74 703 CURVE SMOOTH",
"48 703 OFFCURVE",
"29 682 OFFCURVE",
"30 657 CURVE",
"30 647 OFFCURVE",
"33 638 OFFCURVE",
"38 630 CURVE",
"277 295 LINE",
"277 40 LINE SMOOTH",
"277 15 OFFCURVE",
"298 -5 OFFCURVE",
"323 -5 CURVE SMOOTH"
);
}
);
width = 645;
}
);
leftKerningGroup = Y;
note = Y;
rightKerningGroup = Y;
unicode = 0059;
},
{
glyphname = Z;
layers = (
{
anchors = (
{
name = bottom;
position = "{319, 0}";
},
{
name = top;
position = "{319, 698}";
}
);
layerId = "A99C00BB-606F-4263-964D-93C8B7F0BADD";
paths = (
{
closed = 1;
nodes = (
"550 0 LINE SMOOTH",
"574 0 OFFCURVE",
"593 18 OFFCURVE",
"593 42 CURVE SMOOTH",
"593 66 OFFCURVE",
"574 85 OFFCURVE",
"550 85 CURVE SMOOTH",
"158 85 LINE",
"571 596 LINE",
"581 607 OFFCURVE",
"587 623 OFFCURVE",
"587 636 CURVE SMOOTH",
"587 669 OFFCURVE",
"564 698 OFFCURVE",
"526 698 CURVE SMOOTH",
"92 698 LINE SMOOTH",
"68 698 OFFCURVE",
"49 678 OFFCURVE",
"49 654 CURVE SMOOTH",
"49 630 OFFCURVE",
"68 611 OFFCURVE",
"92 611 CURVE SMOOTH",
"477 611 LINE",
"59 95 LINE SMOOTH",
"51 85 OFFCURVE",
"47 72 OFFCURVE",
"47 58 CURVE SMOOTH",
"47 26 OFFCURVE",
"73 0 OFFCURVE",
"105 0 CURVE SMOOTH"
);
}
);
width = 638;
}
);
note = Z;
unicode = 005A;
},
{
glyphname = a;
layers = (
{
anchors = (
{
name = bottom;
position = "{277, 0}";
},
{
name = ogonek;
position = "{467, 10}";
},
{
name = top;
position = "{271, 510}";
}
);
layerId = "A99C00BB-606F-4263-964D-93C8B7F0BADD";
paths = (
{
closed = 1;
nodes = (
"295 -10 OFFCURVE",
"353 29 OFFCURVE",
"389 66 CURVE",
"389 40 LINE SMOOTH",
"389 15 OFFCURVE",
"409 -5 OFFCURVE",
"434 -5 CURVE SMOOTH",
"459 -5 OFFCURVE",
"480 15 OFFCURVE",
"480 40 CURVE SMOOTH",
"480 323 LINE SMOOTH",
"480 421 OFFCURVE",
"417 520 OFFCURVE",
"271 520 CURVE SMOOTH",
"200 520 OFFCURVE",
"145 504 OFFCURVE",
"98 484 CURVE SMOOTH",
"81 477 OFFCURVE",
"72 463 OFFCURVE",
"72 446 CURVE SMOOTH",
"72 424 OFFCURVE",
"89 408 OFFCURVE",
"109 408 CURVE SMOOTH",
"113 408 OFFCURVE",
"118 409 OFFCURVE",
"122 410 CURVE",
"159 422 OFFCURVE",
"199 434 OFFCURVE",
"255 434 CURVE SMOOTH",
"345 434 OFFCURVE",
"389 399 OFFCURVE",
"389 310 CURVE SMOOTH",
"389 302 LINE",
"268 302 LINE SMOOTH",
"112 302 OFFCURVE",
"38 234 OFFCURVE",
"38 140 CURVE SMOOTH",
"38 46 OFFCURVE",
"114 -10 OFFCURVE",
"201 -10 CURVE SMOOTH"
);
},
{
closed = 1;
nodes = (
"154 70 OFFCURVE",
"129 107 OFFCURVE",
"129 150 CURVE SMOOTH",
"129 207 OFFCURVE",
"186 229 OFFCURVE",
"280 229 CURVE SMOOTH",
"389 229 LINE",
"389 145 LINE",
"355 106 OFFCURVE",
"297 70 OFFCURVE",
"235 70 CURVE SMOOTH"
);
}
);
width = 554;
}
);
leftKerningGroup = a;
note = a;
rightKerningGroup = n;
rightMetricsKey = n;
unicode = 0061;
},
{
color = 9;
glyphname = aacute;
layers = (
{
background = {
paths = (
{
closed = 1;
nodes = (
"295 -10 OFFCURVE",
"353 29 OFFCURVE",
"389 66 CURVE",
"389 40 LINE SMOOTH",
"389 15 OFFCURVE",
"409 -5 OFFCURVE",
"434 -5 CURVE SMOOTH",
"459 -5 OFFCURVE",
"480 15 OFFCURVE",
"480 40 CURVE SMOOTH",
"480 323 LINE SMOOTH",
"480 421 OFFCURVE",
"417 520 OFFCURVE",
"271 520 CURVE SMOOTH",
"200 520 OFFCURVE",
"145 504 OFFCURVE",
"98 484 CURVE SMOOTH",
"81 477 OFFCURVE",
"72 463 OFFCURVE",
"72 446 CURVE SMOOTH",
"72 424 OFFCURVE",
"89 408 OFFCURVE",
"109 408 CURVE SMOOTH",
"113 408 OFFCURVE",
"118 409 OFFCURVE",
"122 410 CURVE",
"159 422 OFFCURVE",
"199 434 OFFCURVE",
"255 434 CURVE SMOOTH",
"345 434 OFFCURVE",
"389 399 OFFCURVE",
"389 310 CURVE SMOOTH",
"389 302 LINE",
"268 302 LINE SMOOTH",
"112 302 OFFCURVE",
"38 234 OFFCURVE",
"38 140 CURVE SMOOTH",
"38 46 OFFCURVE",
"114 -10 OFFCURVE",
"201 -10 CURVE SMOOTH"
);
},
{
closed = 1;
nodes = (
"154 70 OFFCURVE",
"129 107 OFFCURVE",
"129 150 CURVE SMOOTH",
"129 207 OFFCURVE",
"186 229 OFFCURVE",
"280 229 CURVE SMOOTH",
"389 229 LINE",
"389 145 LINE",
"355 106 OFFCURVE",
"297 70 OFFCURVE",
"235 70 CURVE SMOOTH"
);
},
{
closed = 1;
nodes = (
"261 567 OFFCURVE",
"267 571 OFFCURVE",
"273 578 CURVE SMOOTH",
"342 660 LINE SMOOTH",
"349 668 OFFCURVE",
"352 676 OFFCURVE",
"352 685 CURVE SMOOTH",
"352 707 OFFCURVE",
"337 722 OFFCURVE",
"315 722 CURVE SMOOTH",
"298 722 OFFCURVE",
"288 714 OFFCURVE",
"282 703 CURVE SMOOTH",
"231 613 LINE",
"229 610 OFFCURVE",
"224 602 OFFCURVE",
"224 594 CURVE SMOOTH",
"224 578 OFFCURVE",
"235 567 OFFCURVE",
"251 567 CURVE SMOOTH"
);
}
);
};
components = (
{
name = a;
},
{
name = acutecomb;
transform = "{1, 0, 0, 1, 71, 0}";
}
);
layerId = "A99C00BB-606F-4263-964D-93C8B7F0BADD";
width = 554;
}
);
leftKerningGroup = a;
note = aacute;
rightKerningGroup = n;
unicode = 00E1;
},
{
color = 9;
glyphname = aring;
layers = (
{
background = {
paths = (
{
closed = 1;
nodes = (
"295 -10 OFFCURVE",
"353 29 OFFCURVE",
"389 66 CURVE",
"389 40 LINE SMOOTH",
"389 15 OFFCURVE",
"409 -5 OFFCURVE",
"434 -5 CURVE SMOOTH",
"459 -5 OFFCURVE",
"480 15 OFFCURVE",
"480 40 CURVE SMOOTH",
"480 323 LINE SMOOTH",
"480 421 OFFCURVE",
"417 520 OFFCURVE",
"271 520 CURVE SMOOTH",
"200 520 OFFCURVE",
"145 504 OFFCURVE",
"98 484 CURVE SMOOTH",
"81 477 OFFCURVE",
"72 463 OFFCURVE",
"72 446 CURVE SMOOTH",
"72 424 OFFCURVE",
"89 408 OFFCURVE",
"109 408 CURVE SMOOTH",
"113 408 OFFCURVE",
"118 409 OFFCURVE",
"122 410 CURVE",
"159 422 OFFCURVE",
"199 434 OFFCURVE",
"255 434 CURVE SMOOTH",
"345 434 OFFCURVE",
"389 399 OFFCURVE",
"389 310 CURVE SMOOTH",
"389 302 LINE",
"268 302 LINE SMOOTH",
"112 302 OFFCURVE",
"38 234 OFFCURVE",
"38 140 CURVE SMOOTH",
"38 46 OFFCURVE",
"114 -10 OFFCURVE",
"201 -10 CURVE SMOOTH"
);
},
{
closed = 1;
nodes = (
"154 70 OFFCURVE",
"129 107 OFFCURVE",
"129 150 CURVE SMOOTH",
"129 207 OFFCURVE",
"186 229 OFFCURVE",
"280 229 CURVE SMOOTH",
"389 229 LINE",
"389 145 LINE",
"355 106 OFFCURVE",
"297 70 OFFCURVE",
"235 70 CURVE SMOOTH"
);
},
{
closed = 1;
nodes = (
"321 551 OFFCURVE",
"363 593 OFFCURVE",
"363 645 CURVE SMOOTH",
"363 697 OFFCURVE",
"321 739 OFFCURVE",
"269 739 CURVE SMOOTH",
"217 739 OFFCURVE",
"175 697 OFFCURVE",
"175 645 CURVE SMOOTH",
"175 593 OFFCURVE",
"217 551 OFFCURVE",
"269 551 CURVE SMOOTH"
);
},
{
closed = 1;
nodes = (
"242 596 OFFCURVE",
"220 618 OFFCURVE",
"220 645 CURVE SMOOTH",
"220 672 OFFCURVE",
"242 694 OFFCURVE",
"269 694 CURVE SMOOTH",
"296 694 OFFCURVE",
"318 672 OFFCURVE",
"318 645 CURVE SMOOTH",
"318 618 OFFCURVE",
"296 596 OFFCURVE",
"269 596 CURVE SMOOTH"
);
}
);
};
components = (
{
name = a;
},
{
name = ringcomb;
transform = "{1, 0, 0, 1, 71, 0}";
}
);
layerId = "A99C00BB-606F-4263-964D-93C8B7F0BADD";
width = 554;
}
);
leftKerningGroup = a;
note = aring;
rightKerningGroup = n;
unicode = 00E5;
},
{
color = 9;
glyphname = atilde;
layers = (
{
background = {
paths = (
{
closed = 1;
nodes = (
"295 -10 OFFCURVE",
"353 29 OFFCURVE",
"389 66 CURVE",
"389 40 LINE SMOOTH",
"389 15 OFFCURVE",
"409 -5 OFFCURVE",
"434 -5 CURVE SMOOTH",
"459 -5 OFFCURVE",
"480 15 OFFCURVE",
"480 40 CURVE SMOOTH",
"480 323 LINE SMOOTH",
"480 421 OFFCURVE",
"417 520 OFFCURVE",
"271 520 CURVE SMOOTH",
"200 520 OFFCURVE",
"145 504 OFFCURVE",
"98 484 CURVE SMOOTH",
"81 477 OFFCURVE",
"72 463 OFFCURVE",
"72 446 CURVE SMOOTH",
"72 424 OFFCURVE",
"89 408 OFFCURVE",
"109 408 CURVE SMOOTH",
"113 408 OFFCURVE",
"118 409 OFFCURVE",
"122 410 CURVE",
"159 422 OFFCURVE",
"199 434 OFFCURVE",
"255 434 CURVE SMOOTH",
"345 434 OFFCURVE",
"389 399 OFFCURVE",
"389 310 CURVE SMOOTH",
"389 302 LINE",
"268 302 LINE SMOOTH",
"112 302 OFFCURVE",
"38 234 OFFCURVE",
"38 140 CURVE SMOOTH",
"38 46 OFFCURVE",
"114 -10 OFFCURVE",
"201 -10 CURVE SMOOTH"
);
},
{
closed = 1;
nodes = (
"154 70 OFFCURVE",
"129 107 OFFCURVE",
"129 150 CURVE SMOOTH",
"129 207 OFFCURVE",
"186 229 OFFCURVE",
"280 229 CURVE SMOOTH",
"389 229 LINE",
"389 145 LINE",
"355 106 OFFCURVE",
"297 70 OFFCURVE",
"235 70 CURVE SMOOTH"
);
},
{
closed = 1;
nodes = (
"145 571 OFFCURVE",
"152 580 OFFCURVE",
"155 589 CURVE",
"163 608 OFFCURVE",
"174 621 OFFCURVE",
"194 621 CURVE SMOOTH",
"246 621 OFFCURVE",
"289 573 OFFCURVE",
"348 573 CURVE SMOOTH",
"398 573 OFFCURVE",
"432 625 OFFCURVE",
"432 668 CURVE",
"431 680 OFFCURVE",
"423 690 OFFCURVE",
"409 690 CURVE SMOOTH",
"394 690 OFFCURVE",
"388 680 OFFCURVE",
"384 669 CURVE SMOOTH",
"378 652 OFFCURVE",
"368 642 OFFCURVE",
"347 642 CURVE SMOOTH",
"293 642 OFFCURVE",
"251 689 OFFCURVE",
"193 689 CURVE SMOOTH",
"141 689 OFFCURVE",
"109 634 OFFCURVE",
"109 594 CURVE SMOOTH",
"109 581 OFFCURVE",
"120 571 OFFCURVE",
"132 571 CURVE SMOOTH"
);
}
);
};
components = (
{
name = a;
},
{
name = tildecomb;
transform = "{1, 0, 0, 1, 71, 0}";
}
);
layerId = "A99C00BB-606F-4263-964D-93C8B7F0BADD";
width = 554;
}
);
leftKerningGroup = a;
note = atilde;
rightKerningGroup = n;
unicode = 00E3;
},
{
glyphname = ae;
layers = (
{
background = {
paths = (
{
closed = 1;
nodes = (
"200 520 OFFCURVE",
"145 504 OFFCURVE",
"98 484 CURVE SMOOTH",
"81 477 OFFCURVE",
"72 463 OFFCURVE",
"72 446 CURVE SMOOTH",
"72 424 OFFCURVE",
"89 408 OFFCURVE",
"109 408 CURVE SMOOTH",
"113 408 OFFCURVE",
"118 409 OFFCURVE",
"122 410 CURVE",
"159 422 OFFCURVE",
"199 434 OFFCURVE",
"255 434 CURVE SMOOTH",
"345 434 OFFCURVE",
"389 399 OFFCURVE",
"389 310 CURVE SMOOTH",
"389 302 LINE",
"268 302 LINE SMOOTH",
"112 302 OFFCURVE",
"38 234 OFFCURVE",
"38 140 CURVE SMOOTH",
"38 46 OFFCURVE",
"114 -10 OFFCURVE",
"201 -10 CURVE SMOOTH",
"295 -10 OFFCURVE",
"353 29 OFFCURVE",
"389 66 CURVE",
"389 40 LINE SMOOTH",
"389 15 OFFCURVE",
"409 -5 OFFCURVE",
"434 -5 CURVE SMOOTH",
"459 -5 OFFCURVE",
"480 15 OFFCURVE",
"480 40 CURVE SMOOTH",
"480 323 LINE SMOOTH",
"480 421 OFFCURVE",
"417 520 OFFCURVE",
"271 520 CURVE SMOOTH"
);
},
{
closed = 1;
nodes = (
"154 70 OFFCURVE",
"129 107 OFFCURVE",
"129 150 CURVE SMOOTH",
"129 207 OFFCURVE",
"186 229 OFFCURVE",
"280 229 CURVE SMOOTH",
"389 229 LINE",
"389 145 LINE",
"355 106 OFFCURVE",
"297 70 OFFCURVE",
"235 70 CURVE SMOOTH"
);
}
);
};
layerId = "A99C00BB-606F-4263-964D-93C8B7F0BADD";
paths = (
{
closed = 1;
nodes = (
"301 -10 OFFCURVE",
"392 5 OFFCURVE",
"439 77 CURVE",
"482 21 OFFCURVE",
"551 -10 OFFCURVE",
"642 -10 CURVE SMOOTH",
"729 -10 OFFCURVE",
"773 9 OFFCURVE",
"817 34 CURVE SMOOTH",
"831 42 OFFCURVE",
"843 55 OFFCURVE",
"843 71 CURVE SMOOTH",
"843 94 OFFCURVE",
"824 110 OFFCURVE",
"803 110 CURVE SMOOTH",
"796 110 OFFCURVE",
"791 109 OFFCURVE",
"785 106 CURVE SMOOTH",
"748 87 OFFCURVE",
"710 75 OFFCURVE",
"650 75 CURVE SMOOTH",
"534 75 OFFCURVE",
"483 136 OFFCURVE",
"473 226 CURVE",
"817 226 LINE SMOOTH",
"845 226 OFFCURVE",
"861 247 OFFCURVE",
"861 269 CURVE SMOOTH",
"861 413 OFFCURVE",
"771 520 OFFCURVE",
"622 520 CURVE SMOOTH",
"538 520 OFFCURVE",
"479 487 OFFCURVE",
"441 436 CURVE",
"411 485 OFFCURVE",
"357 520 OFFCURVE",
"270 520 CURVE SMOOTH",
"199 520 OFFCURVE",
"144 504 OFFCURVE",
"97 484 CURVE SMOOTH",
"80 477 OFFCURVE",
"71 463 OFFCURVE",
"71 446 CURVE SMOOTH",
"71 424 OFFCURVE",
"88 408 OFFCURVE",
"108 408 CURVE SMOOTH",
"112 408 OFFCURVE",
"117 409 OFFCURVE",
"121 410 CURVE",
"158 422 OFFCURVE",
"198 434 OFFCURVE",
"254 434 CURVE SMOOTH",
"344 434 OFFCURVE",
"388 399 OFFCURVE",
"388 310 CURVE SMOOTH",
"388 299 LINE",
"267 299 LINE SMOOTH",
"111 299 OFFCURVE",
"37 234 OFFCURVE",
"37 140 CURVE SMOOTH",
"37 46 OFFCURVE",
"127 -10 OFFCURVE",
"233 -10 CURVE SMOOTH"
);
},
{
closed = 1;
nodes = (
"170 70 OFFCURVE",
"128 107 OFFCURVE",
"128 150 CURVE SMOOTH",
"128 207 OFFCURVE",
"185 226 OFFCURVE",
"279 226 CURVE SMOOTH",
"388 226 LINE",
"388 169 LINE SMOOTH",
"388 88 OFFCURVE",
"313 70 OFFCURVE",
"251 70 CURVE SMOOTH"
);
},
{
closed = 1;
nodes = (
"479 403 OFFCURVE",
"558 443 OFFCURVE",
"622 443 CURVE SMOOTH",
"686 443 OFFCURVE",
"765 403 OFFCURVE",
"771 299 CURVE",
"473 299 LINE"
);
}
);
width = 904;
}
);
leftKerningGroup = a;
note = ae;
rightKerningGroup = e;
unicode = 00E6;
},
{
glyphname = b;
layers = (
{
anchors = (
{
name = bottom;
position = "{331, 0}";
},
{
name = top;
position = "{341, 510}";
}
);
layerId = "A99C00BB-606F-4263-964D-93C8B7F0BADD";
paths = (
{
closed = 1;
nodes = (
"462 -10 OFFCURVE",
"583 85 OFFCURVE",
"583 255 CURVE SMOOTH",
"583 425 OFFCURVE",
"462 520 OFFCURVE",
"341 520 CURVE SMOOTH",
"271 520 OFFCURVE",
"216 492 OFFCURVE",
"170 444 CURVE",
"170 689 LINE SMOOTH",
"170 715 OFFCURVE",
"150 735 OFFCURVE",
"124 735 CURVE SMOOTH",
"99 735 OFFCURVE",
"79 715 OFFCURVE",
"79 689 CURVE SMOOTH",
"79 40 LINE SMOOTH",
"79 15 OFFCURVE",
"99 -5 OFFCURVE",
"124 -5 CURVE SMOOTH",
"150 -5 OFFCURVE",
"170 15 OFFCURVE",
"170 40 CURVE SMOOTH",
"170 66 LINE",
"216 18 OFFCURVE",
"271 -10 OFFCURVE",
"341 -10 CURVE SMOOTH"
);
},
{
closed = 1;
nodes = (
"263 75 OFFCURVE",
"209 107 OFFCURVE",
"170 150 CURVE",
"170 360 LINE",
"209 403 OFFCURVE",
"263 435 OFFCURVE",
"328 435 CURVE SMOOTH",
"423 435 OFFCURVE",
"492 373 OFFCURVE",
"492 255 CURVE SMOOTH",
"492 137 OFFCURVE",
"423 75 OFFCURVE",
"328 75 CURVE SMOOTH"
);
}
);
width = 631;
}
);
leftKerningGroup = l;
leftMetricsKey = l;
note = b;
rightKerningGroup = o;
rightMetricsKey = o;
unicode = 0062;
},
{
glyphname = c;
layers = (
{
anchors = (
{
name = bottom;
position = "{304, 0}";
},
{
name = top;
position = "{304, 510}";
}
);
layerId = "A99C00BB-606F-4263-964D-93C8B7F0BADD";
paths = (
{
closed = 1;
nodes = (
"394 -10 OFFCURVE",
"444 16 OFFCURVE",
"478 38 CURVE SMOOTH",
"490 46 OFFCURVE",
"498 58 OFFCURVE",
"498 73 CURVE SMOOTH",
"498 92 OFFCURVE",
"481 113 OFFCURVE",
"460 113 CURVE SMOOTH",
"452 113 OFFCURVE",
"447 112 OFFCURVE",
"438 107 CURVE SMOOTH",
"403 89 OFFCURVE",
"375 75 OFFCURVE",
"323 75 CURVE SMOOTH",
"207 75 OFFCURVE",
"139 148 OFFCURVE",
"139 255 CURVE SMOOTH",
"139 362 OFFCURVE",
"207 435 OFFCURVE",
"323 435 CURVE SMOOTH",
"375 435 OFFCURVE",
"403 421 OFFCURVE",
"438 403 CURVE SMOOTH",
"447 398 OFFCURVE",
"452 397 OFFCURVE",
"460 397 CURVE SMOOTH",
"481 397 OFFCURVE",
"498 418 OFFCURVE",
"498 437 CURVE SMOOTH",
"498 452 OFFCURVE",
"490 464 OFFCURVE",
"478 472 CURVE SMOOTH",
"444 494 OFFCURVE",
"394 520 OFFCURVE",
"315 520 CURVE SMOOTH",
"173 520 OFFCURVE",
"48 422 OFFCURVE",
"48 255 CURVE SMOOTH",
"48 88 OFFCURVE",
"173 -10 OFFCURVE",
"315 -10 CURVE SMOOTH"
);
}
);
width = 538;
}
);
leftKerningGroup = o;
leftMetricsKey = o;
note = c;
rightKerningGroup = c;
unicode = 0063;
},
{
glyphname = ccedilla;
layers = (
{
layerId = "A99C00BB-606F-4263-964D-93C8B7F0BADD";
paths = (
{
closed = 1;
nodes = (
"356 -221 OFFCURVE",
"396 -191 OFFCURVE",
"396 -129 CURVE SMOOTH",
"396 -87 OFFCURVE",
"364 -59 OFFCURVE",
"319 -59 CURVE SMOOTH",
"307 -59 OFFCURVE",
"297 -60 OFFCURVE",
"285 -63 CURVE",
"315 -10 LINE",
"393 -9 OFFCURVE",
"442 16 OFFCURVE",
"476 38 CURVE SMOOTH",
"488 46 OFFCURVE",
"496 58 OFFCURVE",
"496 73 CURVE SMOOTH",
"496 92 OFFCURVE",
"479 113 OFFCURVE",
"458 113 CURVE SMOOTH",
"450 113 OFFCURVE",
"445 112 OFFCURVE",
"436 107 CURVE SMOOTH",
"401 89 OFFCURVE",
"373 75 OFFCURVE",
"321 75 CURVE SMOOTH",
"205 75 OFFCURVE",
"137 148 OFFCURVE",
"137 255 CURVE SMOOTH",
"137 362 OFFCURVE",
"205 435 OFFCURVE",
"321 435 CURVE SMOOTH",
"373 435 OFFCURVE",
"401 421 OFFCURVE",
"436 403 CURVE SMOOTH",
"445 398 OFFCURVE",
"450 397 OFFCURVE",
"458 397 CURVE SMOOTH",
"479 397 OFFCURVE",
"496 418 OFFCURVE",
"496 437 CURVE SMOOTH",
"496 452 OFFCURVE",
"488 464 OFFCURVE",
"476 472 CURVE SMOOTH",
"442 494 OFFCURVE",
"392 520 OFFCURVE",
"313 520 CURVE SMOOTH",
"171 520 OFFCURVE",
"46 422 OFFCURVE",
"46 255 CURVE SMOOTH",
"46 103 OFFCURVE",
"148 9 OFFCURVE",
"273 -7 CURVE",
"225 -85 LINE",
"223 -88 OFFCURVE",
"221 -92 OFFCURVE",
"221 -99 CURVE SMOOTH",
"221 -108 OFFCURVE",
"230 -115 OFFCURVE",
"239 -115 CURVE SMOOTH",
"243 -115 OFFCURVE",
"247 -113 OFFCURVE",
"249 -112 CURVE SMOOTH",
"267 -103 OFFCURVE",
"279 -101 OFFCURVE",
"293 -101 CURVE SMOOTH",
"313 -101 OFFCURVE",
"329 -112 OFFCURVE",
"329 -132 CURVE SMOOTH",
"329 -167 OFFCURVE",
"304 -178 OFFCURVE",
"272 -178 CURVE SMOOTH",
"255 -178 OFFCURVE",
"235 -173 OFFCURVE",
"213 -161 CURVE",
"211 -160 OFFCURVE",
"207 -158 OFFCURVE",
"203 -158 CURVE SMOOTH",
"190 -158 OFFCURVE",
"184 -168 OFFCURVE",
"184 -178 CURVE SMOOTH",
"184 -185 OFFCURVE",
"190 -192 OFFCURVE",
"195 -195 CURVE SMOOTH",
"229 -216 OFFCURVE",
"263 -221 OFFCURVE",
"285 -221 CURVE SMOOTH"
);
}
);
width = 537;
}
);
leftKerningGroup = o;
note = ccedilla;
rightKerningGroup = c;
unicode = 00E7;
},
{
glyphname = d;
layers = (
{
anchors = (
{
name = bottom;
position = "{316, 0}";
},
{
name = center;
position = "{316, 255}";
},
{
name = top;
position = "{316, 510}";
},
{
name = topright;
position = "{582, 732}";
}
);
layerId = "A99C00BB-606F-4263-964D-93C8B7F0BADD";
paths = (
{
closed = 1;
nodes = (
"360 -10 OFFCURVE",
"415 18 OFFCURVE",
"461 66 CURVE",
"461 40 LINE SMOOTH",
"461 15 OFFCURVE",
"481 -5 OFFCURVE",
"507 -5 CURVE SMOOTH",
"532 -5 OFFCURVE",
"552 15 OFFCURVE",
"552 40 CURVE SMOOTH",
"552 689 LINE SMOOTH",
"552 715 OFFCURVE",
"532 735 OFFCURVE",
"507 735 CURVE SMOOTH",
"481 735 OFFCURVE",
"461 715 OFFCURVE",
"461 689 CURVE SMOOTH",
"461 444 LINE",
"415 492 OFFCURVE",
"360 520 OFFCURVE",
"290 520 CURVE SMOOTH",
"169 520 OFFCURVE",
"48 425 OFFCURVE",
"48 255 CURVE SMOOTH",
"48 85 OFFCURVE",
"169 -10 OFFCURVE",
"290 -10 CURVE SMOOTH"
);
},
{
closed = 1;
nodes = (
"208 75 OFFCURVE",
"139 137 OFFCURVE",
"139 255 CURVE SMOOTH",
"139 373 OFFCURVE",
"208 435 OFFCURVE",
"303 435 CURVE SMOOTH",
"368 435 OFFCURVE",
"422 403 OFFCURVE",
"461 360 CURVE",
"461 150 LINE",
"422 107 OFFCURVE",
"368 75 OFFCURVE",
"303 75 CURVE SMOOTH"
);
}
);
width = 631;
}
);
leftKerningGroup = o;
leftMetricsKey = o;
note = d;
rightMetricsKey = l;
unicode = 0064;
},
{
glyphname = eth;
layers = (
{
layerId = "A99C00BB-606F-4263-964D-93C8B7F0BADD";
paths = (
{
closed = 1;
nodes = (
"475 -10 OFFCURVE",
"545 120 OFFCURVE",
"545 274 CURVE SMOOTH",
"545 430 OFFCURVE",
"454 553 OFFCURVE",
"361 637 CURVE",
"417 670 LINE SMOOTH",
"425 675 OFFCURVE",
"429 683 OFFCURVE",
"429 692 CURVE SMOOTH",
"429 706 OFFCURVE",
"418 717 OFFCURVE",
"404 717 CURVE SMOOTH",
"398 717 OFFCURVE",
"394 715 OFFCURVE",
"389 712 CURVE SMOOTH",
"321 671 LINE",
"280 704 OFFCURVE",
"241 729 OFFCURVE",
"213 746 CURVE SMOOTH",
"206 750 OFFCURVE",
"199 752 OFFCURVE",
"191 752 CURVE SMOOTH",
"168 752 OFFCURVE",
"149 734 OFFCURVE",
"149 710 CURVE SMOOTH",
"149 696 OFFCURVE",
"157 681 OFFCURVE",
"169 675 CURVE SMOOTH",
"195 661 OFFCURVE",
"220 644 OFFCURVE",
"245 627 CURVE",
"177 587 LINE SMOOTH",
"168 582 OFFCURVE",
"162 574 OFFCURVE",
"162 564 CURVE SMOOTH",
"162 550 OFFCURVE",
"173 539 OFFCURVE",
"187 539 CURVE SMOOTH",
"193 539 OFFCURVE",
"199 542 OFFCURVE",
"204 545 CURVE SMOOTH",
"288 594 LINE",
"328 560 OFFCURVE",
"366 520 OFFCURVE",
"395 477 CURVE",
"364 493 OFFCURVE",
"327 505 OFFCURVE",
"282 505 CURVE SMOOTH",
"132 505 OFFCURVE",
"48 381 OFFCURVE",
"48 248 CURVE SMOOTH",
"48 94 OFFCURVE",
"146 -10 OFFCURVE",
"296 -10 CURVE SMOOTH"
);
},
{
closed = 1;
nodes = (
"222 70 OFFCURVE",
"136 120 OFFCURVE",
"136 252 CURVE SMOOTH",
"136 382 OFFCURVE",
"222 431 OFFCURVE",
"296 431 CURVE SMOOTH",
"370 431 OFFCURVE",
"457 382 OFFCURVE",
"457 252 CURVE SMOOTH",
"457 120 OFFCURVE",
"370 70 OFFCURVE",
"296 70 CURVE SMOOTH"
);
}
);
width = 598;
}
);
leftKerningGroup = o;
leftMetricsKey = o;
note = eth;
unicode = 00F0;
},
{
glyphname = e;
layers = (
{
anchors = (
{
name = bottom;
position = "{285, 0}";
},
{
name = ogonek;
position = "{430, 10}";
},
{
name = top;
position = "{285, 510}";
}
);
layerId = "A99C00BB-606F-4263-964D-93C8B7F0BADD";
paths = (
{
closed = 1;
nodes = (
"394 -10 OFFCURVE",
"438 9 OFFCURVE",
"482 34 CURVE SMOOTH",
"496 42 OFFCURVE",
"508 55 OFFCURVE",
"508 71 CURVE SMOOTH",
"508 94 OFFCURVE",
"489 110 OFFCURVE",
"468 110 CURVE SMOOTH",
"461 110 OFFCURVE",
"456 109 OFFCURVE",
"450 106 CURVE SMOOTH",
"413 87 OFFCURVE",
"375 75 OFFCURVE",
"315 75 CURVE SMOOTH",
"207 75 OFFCURVE",
"150 133 OFFCURVE",
"140 223 CURVE",
"479 223 LINE SMOOTH",
"507 223 OFFCURVE",
"525 243 OFFCURVE",
"525 268 CURVE SMOOTH",
"525 401 OFFCURVE",
"441 520 OFFCURVE",
"287 520 CURVE SMOOTH",
"121 520 OFFCURVE",
"48 390 OFFCURVE",
"48 255 CURVE SMOOTH",
"48 87 OFFCURVE",
"144 -10 OFFCURVE",
"307 -10 CURVE SMOOTH"
);
},
{
closed = 1;
nodes = (
"146 401 OFFCURVE",
"223 443 OFFCURVE",
"287 443 CURVE SMOOTH",
"351 443 OFFCURVE",
"429 401 OFFCURVE",
"435 297 CURVE",
"140 297 LINE"
);
}
);
width = 569;
}
);
leftKerningGroup = o;
leftMetricsKey = o;
note = e;
rightKerningGroup = e;
unicode = 0065;
},
{
color = 9;
glyphname = eacute;
layers = (
{
background = {
paths = (
{
closed = 1;
nodes = (
"395 -10 OFFCURVE",
"439 9 OFFCURVE",
"483 34 CURVE SMOOTH",
"497 42 OFFCURVE",
"509 55 OFFCURVE",
"509 71 CURVE SMOOTH",
"509 94 OFFCURVE",
"490 110 OFFCURVE",
"469 110 CURVE SMOOTH",
"462 110 OFFCURVE",
"457 109 OFFCURVE",
"451 106 CURVE SMOOTH",
"414 87 OFFCURVE",
"376 75 OFFCURVE",
"316 75 CURVE SMOOTH",
"208 75 OFFCURVE",
"151 133 OFFCURVE",
"141 223 CURVE",
"480 223 LINE SMOOTH",
"508 223 OFFCURVE",
"526 243 OFFCURVE",
"526 268 CURVE SMOOTH",
"526 401 OFFCURVE",
"442 520 OFFCURVE",
"288 520 CURVE SMOOTH",
"122 520 OFFCURVE",
"49 390 OFFCURVE",
"49 255 CURVE SMOOTH",
"49 87 OFFCURVE",
"145 -10 OFFCURVE",
"308 -10 CURVE SMOOTH"
);
},
{
closed = 1;
nodes = (
"147 401 OFFCURVE",
"224 443 OFFCURVE",
"288 443 CURVE SMOOTH",
"352 443 OFFCURVE",
"430 401 OFFCURVE",
"436 297 CURVE",
"141 297 LINE"
);
},
{
closed = 1;
nodes = (
"275 567 OFFCURVE",
"281 571 OFFCURVE",
"287 578 CURVE SMOOTH",
"356 660 LINE SMOOTH",
"363 668 OFFCURVE",
"366 676 OFFCURVE",
"366 685 CURVE SMOOTH",
"366 707 OFFCURVE",
"351 722 OFFCURVE",
"329 722 CURVE SMOOTH",
"312 722 OFFCURVE",
"302 714 OFFCURVE",
"296 703 CURVE SMOOTH",
"245 613 LINE",
"243 610 OFFCURVE",
"238 602 OFFCURVE",
"238 594 CURVE SMOOTH",
"238 578 OFFCURVE",
"249 567 OFFCURVE",
"265 567 CURVE SMOOTH"
);
}
);
};
components = (
{
name = e;
},
{
name = acutecomb;
transform = "{1, 0, 0, 1, 85, 0}";
}
);
layerId = "A99C00BB-606F-4263-964D-93C8B7F0BADD";
width = 569;
}
);
leftKerningGroup = o;
note = eacute;
rightKerningGroup = e;
unicode = 00E9;
},
{
color = 9;
glyphname = edieresis;
layers = (
{
background = {
paths = (
{
closed = 1;
nodes = (
"395 -10 OFFCURVE",
"439 9 OFFCURVE",
"483 34 CURVE SMOOTH",
"497 42 OFFCURVE",
"509 55 OFFCURVE",
"509 71 CURVE SMOOTH",
"509 94 OFFCURVE",
"490 110 OFFCURVE",
"469 110 CURVE SMOOTH",
"462 110 OFFCURVE",
"457 109 OFFCURVE",
"451 106 CURVE SMOOTH",
"414 87 OFFCURVE",
"376 75 OFFCURVE",
"316 75 CURVE SMOOTH",
"208 75 OFFCURVE",
"151 133 OFFCURVE",
"141 223 CURVE",
"480 223 LINE SMOOTH",
"508 223 OFFCURVE",
"526 243 OFFCURVE",
"526 268 CURVE SMOOTH",
"526 401 OFFCURVE",
"442 520 OFFCURVE",
"288 520 CURVE SMOOTH",
"122 520 OFFCURVE",
"49 390 OFFCURVE",
"49 255 CURVE SMOOTH",
"49 87 OFFCURVE",
"145 -10 OFFCURVE",
"308 -10 CURVE SMOOTH"
);
},
{
closed = 1;
nodes = (
"147 401 OFFCURVE",
"224 443 OFFCURVE",
"288 443 CURVE SMOOTH",
"352 443 OFFCURVE",
"430 401 OFFCURVE",
"436 297 CURVE",
"141 297 LINE"
);
},
{
closed = 1;
nodes = (
"231 575 OFFCURVE",
"254 598 OFFCURVE",
"254 626 CURVE SMOOTH",
"254 654 OFFCURVE",
"231 677 OFFCURVE",
"203 677 CURVE SMOOTH",
"175 677 OFFCURVE",
"152 654 OFFCURVE",
"152 626 CURVE SMOOTH",
"152 598 OFFCURVE",
"175 575 OFFCURVE",
"203 575 CURVE SMOOTH"
);
},
{
closed = 1;
nodes = (
"400 575 OFFCURVE",
"423 598 OFFCURVE",
"423 626 CURVE SMOOTH",
"423 654 OFFCURVE",
"400 677 OFFCURVE",
"372 677 CURVE SMOOTH",
"344 677 OFFCURVE",
"321 654 OFFCURVE",
"321 626 CURVE SMOOTH",
"321 598 OFFCURVE",
"344 575 OFFCURVE",
"372 575 CURVE SMOOTH"
);
}
);
};
components = (
{
name = e;
},
{
name = dieresiscomb;
transform = "{1, 0, 0, 1, 85, 0}";
}
);
layerId = "A99C00BB-606F-4263-964D-93C8B7F0BADD";
width = 569;
}
);
leftKerningGroup = o;
note = edieresis;
rightKerningGroup = e;
unicode = 00EB;
},
{
glyphname = f;
layers = (
{
anchors = (
{
name = bottom;
position = "{163, 0}";
},
{
name = top;
position = "{190, 510}";
}
);
layerId = "A99C00BB-606F-4263-964D-93C8B7F0BADD";
paths = (
{
closed = 1;
nodes = (
"188 -5 OFFCURVE",
"208 15 OFFCURVE",
"208 40 CURVE SMOOTH",
"208 432 LINE",
"333 432 LINE SMOOTH",
"355 432 OFFCURVE",
"372 449 OFFCURVE",
"372 471 CURVE SMOOTH",
"372 493 OFFCURVE",
"355 510 OFFCURVE",
"333 510 CURVE SMOOTH",
"208 510 LINE",
"208 565 LINE SMOOTH",
"208 636 OFFCURVE",
"240 653 OFFCURVE",
"290 653 CURVE SMOOTH",
"309 653 OFFCURVE",
"324 647 OFFCURVE",
"340 647 CURVE SMOOTH",
"361 647 OFFCURVE",
"377 666 OFFCURVE",
"377 685 CURVE SMOOTH",
"377 701 OFFCURVE",
"366 714 OFFCURVE",
"354 720 CURVE SMOOTH",
"330 732 OFFCURVE",
"300 740 OFFCURVE",
"267 740 CURVE SMOOTH",
"196 740 OFFCURVE",
"117 694 OFFCURVE",
"117 568 CURVE SMOOTH",
"117 510 LINE",
"58 510 LINE SMOOTH",
"36 510 OFFCURVE",
"19 493 OFFCURVE",
"19 471 CURVE SMOOTH",
"19 449 OFFCURVE",
"36 432 OFFCURVE",
"58 432 CURVE SMOOTH",
"117 432 LINE",
"117 40 LINE SMOOTH",
"117 15 OFFCURVE",
"137 -5 OFFCURVE",
"162 -5 CURVE SMOOTH"
);
}
);
width = 380;
}
);
leftKerningGroup = f;
note = f;
rightKerningGroup = f;
unicode = 0066;
},
{
glyphname = g;
layers = (
{
anchors = (
{
name = bottom;
position = "{316, 0}";
},
{
name = top;
position = "{316, 510}";
}
);
layerId = "A99C00BB-606F-4263-964D-93C8B7F0BADD";
paths = (
{
closed = 1;
nodes = (
"467 -240 OFFCURVE",
"552 -146 OFFCURVE",
"552 22 CURVE SMOOTH",
"552 469 LINE SMOOTH",
"552 494 OFFCURVE",
"531 515 OFFCURVE",
"506 515 CURVE SMOOTH",
"481 515 OFFCURVE",
"461 494 OFFCURVE",
"461 469 CURVE SMOOTH",
"461 444 LINE",
"420 488 OFFCURVE",
"365 520 OFFCURVE",
"290 520 CURVE SMOOTH",
"179 520 OFFCURVE",
"48 437 OFFCURVE",
"48 260 CURVE SMOOTH",
"48 83 OFFCURVE",
"179 0 OFFCURVE",
"290 0 CURVE SMOOTH",
"365 0 OFFCURVE",
"420 32 OFFCURVE",
"461 76 CURVE",
"461 9 LINE SMOOTH",
"461 -99 OFFCURVE",
"410 -154 OFFCURVE",
"308 -154 CURVE SMOOTH",
"240 -154 OFFCURVE",
"185 -137 OFFCURVE",
"143 -116 CURVE",
"138 -114 OFFCURVE",
"132 -112 OFFCURVE",
"125 -112 CURVE SMOOTH",
"102 -112 OFFCURVE",
"85 -133 OFFCURVE",
"85 -153 CURVE SMOOTH",
"85 -172 OFFCURVE",
"93 -182 OFFCURVE",
"103 -188 CURVE SMOOTH",
"150 -215 OFFCURVE",
"236 -240 OFFCURVE",
"317 -240 CURVE SMOOTH"
);
},
{
closed = 1;
nodes = (
"214 83 OFFCURVE",
"139 140 OFFCURVE",
"139 260 CURVE SMOOTH",
"139 380 OFFCURVE",
"214 437 OFFCURVE",
"309 437 CURVE SMOOTH",
"378 437 OFFCURVE",
"424 401 OFFCURVE",
"461 363 CURVE",
"461 157 LINE",
"424 119 OFFCURVE",
"378 83 OFFCURVE",
"309 83 CURVE SMOOTH"
);
}
);
width = 631;
}
);
leftKerningGroup = o;
leftMetricsKey = o;
note = g;
rightKerningGroup = g;
rightMetricsKey = "=|n";
unicode = 0067;
},
{
glyphname = h;
layers = (
{
anchors = (
{
name = bottom;
position = "{305, 0}";
},
{
name = center;
position = "{305, 255}";
},
{
name = top;
position = "{124, 732}";
}
);
layerId = "A99C00BB-606F-4263-964D-93C8B7F0BADD";
paths = (
{
closed = 1;
nodes = (
"149 -5 OFFCURVE",
"170 15 OFFCURVE",
"170 40 CURVE SMOOTH",
"170 340 LINE",
"210 390 OFFCURVE",
"262 436 OFFCURVE",
"334 436 CURVE SMOOTH",
"412 436 OFFCURVE",
"444 390 OFFCURVE",
"444 314 CURVE SMOOTH",
"444 40 LINE SMOOTH",
"444 15 OFFCURVE",
"464 -5 OFFCURVE",
"489 -5 CURVE SMOOTH",
"514 -5 OFFCURVE",
"535 15 OFFCURVE",
"535 40 CURVE SMOOTH",
"535 324 LINE SMOOTH",
"535 431 OFFCURVE",
"470 520 OFFCURVE",
"356 520 CURVE SMOOTH",
"267 520 OFFCURVE",
"212 474 OFFCURVE",
"170 428 CURVE",
"170 689 LINE SMOOTH",
"170 715 OFFCURVE",
"149 735 OFFCURVE",
"124 735 CURVE SMOOTH",
"99 735 OFFCURVE",
"79 715 OFFCURVE",
"79 689 CURVE SMOOTH",
"79 40 LINE SMOOTH",
"79 15 OFFCURVE",
"99 -5 OFFCURVE",
"124 -5 CURVE SMOOTH"
);
}
);
width = 609;
}
);
leftKerningGroup = l;
leftMetricsKey = l;
note = h;
rightKerningGroup = n;
rightMetricsKey = n;
unicode = 0068;
},
{
glyphname = i;
layers = (
{
anchors = (
{
name = bottom;
position = "{125, 0}";
}
);
layerId = "A99C00BB-606F-4263-964D-93C8B7F0BADD";
paths = (
{
closed = 1;
nodes = (
"150 -5 OFFCURVE",
"170 15 OFFCURVE",
"170 40 CURVE SMOOTH",
"170 469 LINE SMOOTH",
"170 495 OFFCURVE",
"150 515 OFFCURVE",
"124 515 CURVE SMOOTH",
"99 515 OFFCURVE",
"79 495 OFFCURVE",
"79 469 CURVE SMOOTH",
"79 40 LINE SMOOTH",
"79 15 OFFCURVE",
"99 -5 OFFCURVE",
"124 -5 CURVE SMOOTH"
);
},
{
closed = 1;
nodes = (
"128 614 LINE SMOOTH",
"156 614 OFFCURVE",
"179 637 OFFCURVE",
"179 665 CURVE SMOOTH",
"179 669 LINE SMOOTH",
"179 697 OFFCURVE",
"156 720 OFFCURVE",
"128 720 CURVE SMOOTH",
"122 720 LINE SMOOTH",
"94 720 OFFCURVE",
"71 697 OFFCURVE",
"71 669 CURVE SMOOTH",
"71 665 LINE SMOOTH",
"71 637 OFFCURVE",
"94 614 OFFCURVE",
"122 614 CURVE SMOOTH"
);
}
);
width = 249;
}
);
leftKerningGroup = i;
note = i;
rightKerningGroup = i;
unicode = 0069;
},
{
glyphname = idotless;
layers = (
{
anchors = (
{
name = bottom;
position = "{125, 0}";
},
{
name = ogonek;
position = "{158, 10}";
},
{
name = top;
position = "{125, 510}";
}
);
layerId = "A99C00BB-606F-4263-964D-93C8B7F0BADD";
paths = (
{
closed = 1;
nodes = (
"150 -5 OFFCURVE",
"170 15 OFFCURVE",
"170 40 CURVE SMOOTH",
"170 469 LINE SMOOTH",
"170 495 OFFCURVE",
"150 515 OFFCURVE",
"124 515 CURVE SMOOTH",
"99 515 OFFCURVE",
"79 495 OFFCURVE",
"79 469 CURVE SMOOTH",
"79 40 LINE SMOOTH",
"79 15 OFFCURVE",
"99 -5 OFFCURVE",
"124 -5 CURVE SMOOTH"
);
}
);
width = 249;
}
);
leftMetricsKey = n;
rightMetricsKey = "=|n";
unicode = 0131;
},
{
glyphname = iacute;
layers = (
{
layerId = "A99C00BB-606F-4263-964D-93C8B7F0BADD";
paths = (
{
closed = 1;
nodes = (
"154 -5 OFFCURVE",
"174 15 OFFCURVE",
"174 40 CURVE SMOOTH",
"174 469 LINE SMOOTH",
"174 495 OFFCURVE",
"154 515 OFFCURVE",
"128 515 CURVE SMOOTH",
"103 515 OFFCURVE",
"83 495 OFFCURVE",
"83 469 CURVE SMOOTH",
"83 40 LINE SMOOTH",
"83 15 OFFCURVE",
"103 -5 OFFCURVE",
"128 -5 CURVE SMOOTH"
);
},
{
closed = 1;
nodes = (
"124 567 OFFCURVE",
"130 571 OFFCURVE",
"136 578 CURVE SMOOTH",
"205 660 LINE SMOOTH",
"212 668 OFFCURVE",
"215 676 OFFCURVE",
"215 685 CURVE SMOOTH",
"215 707 OFFCURVE",
"200 722 OFFCURVE",
"178 722 CURVE SMOOTH",
"161 722 OFFCURVE",
"151 714 OFFCURVE",
"145 703 CURVE SMOOTH",
"94 613 LINE",
"92 610 OFFCURVE",
"87 602 OFFCURVE",
"87 594 CURVE SMOOTH",
"87 578 OFFCURVE",
"98 567 OFFCURVE",
"114 567 CURVE SMOOTH"
);
}
);
width = 257;
}
);
leftKerningGroup = i;
note = iacute;
rightKerningGroup = i;
unicode = 00ED;
},
{
glyphname = icircumflex;
layers = (
{
layerId = "A99C00BB-606F-4263-964D-93C8B7F0BADD";
paths = (
{
closed = 1;
nodes = (
"154 -5 OFFCURVE",
"174 15 OFFCURVE",
"174 40 CURVE SMOOTH",
"174 469 LINE SMOOTH",
"174 495 OFFCURVE",
"154 515 OFFCURVE",
"128 515 CURVE SMOOTH",
"103 515 OFFCURVE",
"83 495 OFFCURVE",
"83 469 CURVE SMOOTH",
"83 40 LINE SMOOTH",
"83 15 OFFCURVE",
"103 -5 OFFCURVE",
"128 -5 CURVE SMOOTH"
);
},
{
closed = 1;
nodes = (
"29 566 OFFCURVE",
"37 569 OFFCURVE",
"41 573 CURVE",
"128 647 LINE",
"215 573 LINE",
"219 569 OFFCURVE",
"227 566 OFFCURVE",
"233 566 CURVE SMOOTH",
"250 566 OFFCURVE",
"264 581 OFFCURVE",
"263 596 CURVE",
"263 603 OFFCURVE",
"260 610 OFFCURVE",
"255 615 CURVE SMOOTH",
"187 685 LINE SMOOTH",
"177 696 OFFCURVE",
"166 705 OFFCURVE",
"147 705 CURVE SMOOTH",
"109 705 LINE SMOOTH",
"90 705 OFFCURVE",
"79 696 OFFCURVE",
"69 685 CURVE SMOOTH",
"1 615 LINE SMOOTH",
"-4 610 OFFCURVE",
"-7 603 OFFCURVE",
"-7 596 CURVE",
"-8 581 OFFCURVE",
"6 566 OFFCURVE",
"23 566 CURVE SMOOTH"
);
}
);
width = 257;
}
);
leftKerningGroup = i;
note = icircumflex;
rightKerningGroup = i;
unicode = 00EE;
},
{
glyphname = idieresis;
layers = (
{
layerId = "A99C00BB-606F-4263-964D-93C8B7F0BADD";
paths = (
{
closed = 1;
nodes = (
"154 -5 OFFCURVE",
"174 15 OFFCURVE",
"174 40 CURVE SMOOTH",
"174 469 LINE SMOOTH",
"174 495 OFFCURVE",
"154 515 OFFCURVE",
"128 515 CURVE SMOOTH",
"103 515 OFFCURVE",
"83 495 OFFCURVE",
"83 469 CURVE SMOOTH",
"83 40 LINE SMOOTH",
"83 15 OFFCURVE",
"103 -5 OFFCURVE",
"128 -5 CURVE SMOOTH"
);
},
{
closed = 1;
nodes = (
"72 575 OFFCURVE",
"95 598 OFFCURVE",
"95 626 CURVE SMOOTH",
"95 654 OFFCURVE",
"72 677 OFFCURVE",
"44 677 CURVE SMOOTH",
"16 677 OFFCURVE",
"-7 654 OFFCURVE",
"-7 626 CURVE SMOOTH",
"-7 598 OFFCURVE",
"16 575 OFFCURVE",
"44 575 CURVE SMOOTH"
);
},
{
closed = 1;
nodes = (
"241 575 OFFCURVE",
"264 598 OFFCURVE",
"264 626 CURVE SMOOTH",
"264 654 OFFCURVE",
"241 677 OFFCURVE",
"213 677 CURVE SMOOTH",
"185 677 OFFCURVE",
"162 654 OFFCURVE",
"162 626 CURVE SMOOTH",
"162 598 OFFCURVE",
"185 575 OFFCURVE",
"213 575 CURVE SMOOTH"
);
}
);
width = 257;
}
);
leftKerningGroup = i;
note = idieresis;
rightKerningGroup = i;
unicode = 00EF;
},
{
glyphname = igrave;
layers = (
{
layerId = "A99C00BB-606F-4263-964D-93C8B7F0BADD";
paths = (
{
closed = 1;
nodes = (
"154 -5 OFFCURVE",
"174 15 OFFCURVE",
"174 40 CURVE SMOOTH",
"174 469 LINE SMOOTH",
"174 495 OFFCURVE",
"154 515 OFFCURVE",
"128 515 CURVE SMOOTH",
"103 515 OFFCURVE",
"83 495 OFFCURVE",
"83 469 CURVE SMOOTH",
"83 40 LINE SMOOTH",
"83 15 OFFCURVE",
"103 -5 OFFCURVE",
"128 -5 CURVE SMOOTH"
);
},
{
closed = 1;
nodes = (
"159 567 OFFCURVE",
"170 578 OFFCURVE",
"170 594 CURVE SMOOTH",
"170 602 OFFCURVE",
"165 610 OFFCURVE",
"163 613 CURVE",
"112 703 LINE SMOOTH",
"106 714 OFFCURVE",
"96 722 OFFCURVE",
"79 722 CURVE SMOOTH",
"57 722 OFFCURVE",
"42 707 OFFCURVE",
"42 685 CURVE SMOOTH",
"42 676 OFFCURVE",
"45 668 OFFCURVE",
"52 660 CURVE SMOOTH",
"121 578 LINE SMOOTH",
"127 571 OFFCURVE",
"133 567 OFFCURVE",
"143 567 CURVE SMOOTH"
);
}
);
width = 257;
}
);
leftKerningGroup = i;
note = igrave;
rightKerningGroup = i;
unicode = 00EC;
},
{
glyphname = j;
layers = (
{
layerId = "A99C00BB-606F-4263-964D-93C8B7F0BADD";
paths = (
{
closed = 1;
nodes = (
"139 -240 OFFCURVE",
"174 -180 OFFCURVE",
"174 -103 CURVE SMOOTH",
"174 468 LINE SMOOTH",
"174 494 OFFCURVE",
"154 514 OFFCURVE",
"128 514 CURVE SMOOTH",
"103 514 OFFCURVE",
"83 494 OFFCURVE",
"83 468 CURVE SMOOTH",
"83 -101 LINE SMOOTH",
"83 -155 OFFCURVE",
"57 -160 OFFCURVE",
"22 -160 CURVE SMOOTH",
"10 -160 OFFCURVE",
"1 -157 OFFCURVE",
"-8 -157 CURVE SMOOTH",
"-30 -157 OFFCURVE",
"-46 -175 OFFCURVE",
"-46 -195 CURVE SMOOTH",
"-46 -212 OFFCURVE",
"-36 -226 OFFCURVE",
"-20 -231 CURVE SMOOTH",
"-2 -237 OFFCURVE",
"19 -240 OFFCURVE",
"43 -240 CURVE SMOOTH"
);
},
{
closed = 1;
nodes = (
"132 614 LINE SMOOTH",
"160 614 OFFCURVE",
"183 637 OFFCURVE",
"183 665 CURVE SMOOTH",
"183 669 LINE SMOOTH",
"183 697 OFFCURVE",
"160 720 OFFCURVE",
"132 720 CURVE SMOOTH",
"126 720 LINE SMOOTH",
"98 720 OFFCURVE",
"75 697 OFFCURVE",
"75 669 CURVE SMOOTH",
"75 665 LINE SMOOTH",
"75 637 OFFCURVE",
"98 614 OFFCURVE",
"126 614 CURVE SMOOTH"
);
}
);
width = 257;
}
);
leftKerningGroup = i;
note = j;
rightKerningGroup = i;
unicode = 006A;
},
{
glyphname = jdotless;
layers = (
{
anchors = (
{
name = bottom;
position = "{129, 0}";
},
{
name = top;
position = "{129, 510}";
}
);
layerId = "A99C00BB-606F-4263-964D-93C8B7F0BADD";
paths = (
{
closed = 1;
nodes = (
"139 -240 OFFCURVE",
"174 -180 OFFCURVE",
"174 -103 CURVE SMOOTH",
"174 468 LINE SMOOTH",
"174 494 OFFCURVE",
"154 514 OFFCURVE",
"128 514 CURVE SMOOTH",
"103 514 OFFCURVE",
"83 494 OFFCURVE",
"83 468 CURVE SMOOTH",
"83 -101 LINE SMOOTH",
"83 -155 OFFCURVE",
"57 -160 OFFCURVE",
"22 -160 CURVE SMOOTH",
"10 -160 OFFCURVE",
"1 -157 OFFCURVE",
"-8 -157 CURVE SMOOTH",
"-30 -157 OFFCURVE",
"-46 -175 OFFCURVE",
"-46 -195 CURVE SMOOTH",
"-46 -212 OFFCURVE",
"-36 -226 OFFCURVE",
"-20 -231 CURVE SMOOTH",
"-2 -237 OFFCURVE",
"19 -240 OFFCURVE",
"43 -240 CURVE SMOOTH"
);
}
);
width = 257;
}
);
leftKerningGroup = i;
note = dotlessj;
rightKerningGroup = i;
unicode = 0237;
},
{
glyphname = k;
layers = (
{
anchors = (
{
name = bottom;
position = "{273, 0}";
},
{
name = top;
position = "{273, 510}";
}
);
layerId = "A99C00BB-606F-4263-964D-93C8B7F0BADD";
paths = (
{
closed = 1;
nodes = (
"149 -5 OFFCURVE",
"170 15 OFFCURVE",
"170 40 CURVE SMOOTH",
"170 169 LINE",
"257 248 LINE",
"429 14 LINE",
"438 3 OFFCURVE",
"452 -5 OFFCURVE",
"466 -5 CURVE SMOOTH",
"493 -5 OFFCURVE",
"512 12 OFFCURVE",
"512 39 CURVE SMOOTH",
"512 49 OFFCURVE",
"508 58 OFFCURVE",
"502 66 CURVE SMOOTH",
"321 306 LINE",
"465 435 LINE",
"479 449 OFFCURVE",
"482 461 OFFCURVE",
"482 469 CURVE SMOOTH",
"482 489 OFFCURVE",
"472 513 OFFCURVE",
"438 513 CURVE SMOOTH",
"426 513 OFFCURVE",
"416 507 OFFCURVE",
"408 500 CURVE SMOOTH",
"170 280 LINE",
"170 689 LINE SMOOTH",
"170 714 OFFCURVE",
"149 735 OFFCURVE",
"124 735 CURVE SMOOTH",
"99 735 OFFCURVE",
"79 714 OFFCURVE",
"79 689 CURVE SMOOTH",
"79 40 LINE SMOOTH",
"79 15 OFFCURVE",
"99 -5 OFFCURVE",
"124 -5 CURVE SMOOTH"
);
}
);
width = 546;
}
);
leftKerningGroup = l;
leftMetricsKey = l;
note = k;
unicode = 006B;
},
{
glyphname = l;
layers = (
{
anchors = (
{
name = bottom;
position = "{125, 0}";
},
{
name = center;
position = "{125, 255}";
},
{
name = top;
position = "{125, 732}";
},
{
name = topright;
position = "{190, 732}";
}
);
layerId = "A99C00BB-606F-4263-964D-93C8B7F0BADD";
paths = (
{
closed = 1;
nodes = (
"150 -5 OFFCURVE",
"170 15 OFFCURVE",
"170 40 CURVE SMOOTH",
"170 689 LINE SMOOTH",
"170 715 OFFCURVE",
"150 735 OFFCURVE",
"124 735 CURVE SMOOTH",
"99 735 OFFCURVE",
"79 715 OFFCURVE",
"79 689 CURVE SMOOTH",
"79 40 LINE SMOOTH",
"79 15 OFFCURVE",
"99 -5 OFFCURVE",
"124 -5 CURVE SMOOTH"
);
}
);
width = 249;
}
);
note = l;
rightKerningGroup = l;
unicode = 006C;
},
{
glyphname = m;
layers = (
{
anchors = (
{
name = bottom;
position = "{459, 0}";
},
{
name = top;
position = "{459, 510}";
}
);
layerId = "A99C00BB-606F-4263-964D-93C8B7F0BADD";
paths = (
{
closed = 1;
nodes = (
"149 -5 OFFCURVE",
"170 15 OFFCURVE",
"170 40 CURVE SMOOTH",
"170 340 LINE",
"197 385 OFFCURVE",
"238 436 OFFCURVE",
"314 436 CURVE SMOOTH",
"390 436 OFFCURVE",
"416 394 OFFCURVE",
"416 310 CURVE SMOOTH",
"416 40 LINE SMOOTH",
"416 15 OFFCURVE",
"436 -5 OFFCURVE",
"461 -5 CURVE SMOOTH",
"486 -5 OFFCURVE",
"507 15 OFFCURVE",
"507 40 CURVE SMOOTH",
"507 340 LINE",
"534 385 OFFCURVE",
"575 436 OFFCURVE",
"651 436 CURVE SMOOTH",
"727 436 OFFCURVE",
"753 394 OFFCURVE",
"753 310 CURVE SMOOTH",
"753 40 LINE SMOOTH",
"753 15 OFFCURVE",
"773 -5 OFFCURVE",
"798 -5 CURVE SMOOTH",
"823 -5 OFFCURVE",
"844 15 OFFCURVE",
"844 40 CURVE SMOOTH",
"844 328 LINE SMOOTH",
"844 417 OFFCURVE",
"795 520 OFFCURVE",
"677 520 CURVE SMOOTH",
"567 520 OFFCURVE",
"516 455 OFFCURVE",
"493 417 CURVE",
"472 469 OFFCURVE",
"420 520 OFFCURVE",
"340 520 CURVE SMOOTH",
"245 520 OFFCURVE",
"198 467 OFFCURVE",
"170 428 CURVE",
"170 469 LINE SMOOTH",
"170 494 OFFCURVE",
"149 515 OFFCURVE",
"124 515 CURVE SMOOTH",
"99 515 OFFCURVE",
"79 494 OFFCURVE",
"79 469 CURVE SMOOTH",
"79 40 LINE SMOOTH",
"79 15 OFFCURVE",
"99 -5 OFFCURVE",
"124 -5 CURVE SMOOTH"
);
}
);
width = 918;
}
);
leftKerningGroup = n;
leftMetricsKey = n;
note = m;
rightKerningGroup = n;
rightMetricsKey = n;
unicode = 006D;
},
{
glyphname = n;
layers = (
{
anchors = (
{
name = bottom;
position = "{305, 0}";
},
{
name = top;
position = "{305, 510}";
}
);
layerId = "A99C00BB-606F-4263-964D-93C8B7F0BADD";
paths = (
{
closed = 1;
nodes = (
"149 -5 OFFCURVE",
"170 15 OFFCURVE",
"170 40 CURVE SMOOTH",
"170 340 LINE",
"210 390 OFFCURVE",
"262 436 OFFCURVE",
"334 436 CURVE SMOOTH",
"412 436 OFFCURVE",
"444 390 OFFCURVE",
"444 314 CURVE SMOOTH",
"444 40 LINE SMOOTH",
"444 15 OFFCURVE",
"464 -5 OFFCURVE",
"489 -5 CURVE SMOOTH",
"514 -5 OFFCURVE",
"535 15 OFFCURVE",
"535 40 CURVE SMOOTH",
"535 324 LINE SMOOTH",
"535 431 OFFCURVE",
"470 520 OFFCURVE",
"356 520 CURVE SMOOTH",
"267 520 OFFCURVE",
"212 474 OFFCURVE",
"170 428 CURVE",
"170 469 LINE SMOOTH",
"170 495 OFFCURVE",
"149 515 OFFCURVE",
"124 515 CURVE SMOOTH",
"99 515 OFFCURVE",
"79 495 OFFCURVE",
"79 469 CURVE SMOOTH",
"79 40 LINE SMOOTH",
"79 15 OFFCURVE",
"99 -5 OFFCURVE",
"124 -5 CURVE SMOOTH"
);
}
);
width = 609;
}
);
leftKerningGroup = n;
note = n;
rightKerningGroup = n;
unicode = 006E;
},
{
glyphname = o;
layers = (
{
anchors = (
{
name = bottom;
position = "{304, 0}";
},
{
name = center;
position = "{304, 255}";
},
{
name = ogonek;
position = "{410, 10}";
},
{
name = top;
position = "{304, 510}";
},
{
name = topright;
position = "{380, 510}";
}
);
layerId = "A99C00BB-606F-4263-964D-93C8B7F0BADD";
paths = (
{
closed = 1;
nodes = (
"458 -10 OFFCURVE",
"560 97 OFFCURVE",
"560 255 CURVE SMOOTH",
"560 413 OFFCURVE",
"458 520 OFFCURVE",
"304 520 CURVE SMOOTH",
"149 520 OFFCURVE",
"48 413 OFFCURVE",
"48 255 CURVE SMOOTH",
"48 97 OFFCURVE",
"149 -10 OFFCURVE",
"304 -10 CURVE SMOOTH"
);
},
{
closed = 1;
nodes = (
"227 73 OFFCURVE",
"139 123 OFFCURVE",
"139 256 CURVE SMOOTH",
"139 388 OFFCURVE",
"227 437 OFFCURVE",
"304 437 CURVE SMOOTH",
"380 437 OFFCURVE",
"469 388 OFFCURVE",
"469 256 CURVE SMOOTH",
"469 123 OFFCURVE",
"380 73 OFFCURVE",
"304 73 CURVE SMOOTH"
);
}
);
width = 608;
}
);
leftKerningGroup = o;
note = o;
rightKerningGroup = o;
unicode = 006F;
},
{
glyphname = oslash;
layers = (
{
anchors = (
{
name = top;
position = "{304, 510}";
}
);
layerId = "A99C00BB-606F-4263-964D-93C8B7F0BADD";
paths = (
{
closed = 1;
nodes = (
"128 -31 OFFCURVE",
"136 -28 OFFCURVE",
"141 -21 CURVE SMOOTH",
"171 22 LINE",
"209 1 OFFCURVE",
"253 -10 OFFCURVE",
"304 -10 CURVE SMOOTH",
"458 -10 OFFCURVE",
"560 97 OFFCURVE",
"560 255 CURVE SMOOTH",
"560 341 OFFCURVE",
"530 412 OFFCURVE",
"477 458 CURVE",
"505 498 LINE SMOOTH",
"509 504 OFFCURVE",
"511 509 OFFCURVE",
"511 515 CURVE SMOOTH",
"511 528 OFFCURVE",
"501 539 OFFCURVE",
"486 539 CURVE SMOOTH",
"478 539 OFFCURVE",
"470 536 OFFCURVE",
"465 529 CURVE SMOOTH",
"436 488 LINE",
"398 508 OFFCURVE",
"354 520 OFFCURVE",
"304 520 CURVE SMOOTH",
"149 520 OFFCURVE",
"48 413 OFFCURVE",
"48 255 CURVE SMOOTH",
"48 169 OFFCURVE",
"78 98 OFFCURVE",
"130 51 CURVE",
"101 10 LINE SMOOTH",
"97 4 OFFCURVE",
"95 -1 OFFCURVE",
"95 -7 CURVE SMOOTH",
"95 -20 OFFCURVE",
"105 -31 OFFCURVE",
"120 -31 CURVE SMOOTH"
);
},
{
closed = 1;
nodes = (
"156 154 OFFCURVE",
"139 197 OFFCURVE",
"139 256 CURVE SMOOTH",
"139 388 OFFCURVE",
"227 437 OFFCURVE",
"304 437 CURVE SMOOTH",
"331 437 OFFCURVE",
"360 430 OFFCURVE",
"386 416 CURVE",
"182 125 LINE"
);
},
{
closed = 1;
nodes = (
"276 73 OFFCURVE",
"248 79 OFFCURVE",
"222 94 CURVE",
"426 385 LINE",
"451 356 OFFCURVE",
"469 314 OFFCURVE",
"469 256 CURVE SMOOTH",
"469 123 OFFCURVE",
"380 73 OFFCURVE",
"304 73 CURVE SMOOTH"
);
}
);
width = 608;
}
);
leftKerningGroup = o;
note = oslash;
rightKerningGroup = o;
unicode = 00F8;
},
{
glyphname = otilde;
layers = (
{
layerId = "A99C00BB-606F-4263-964D-93C8B7F0BADD";
paths = (
{
closed = 1;
nodes = (
"458 -10 OFFCURVE",
"560 97 OFFCURVE",
"560 255 CURVE SMOOTH",
"560 413 OFFCURVE",
"458 520 OFFCURVE",
"304 520 CURVE SMOOTH",
"149 520 OFFCURVE",
"48 413 OFFCURVE",
"48 255 CURVE SMOOTH",
"48 97 OFFCURVE",
"149 -10 OFFCURVE",
"304 -10 CURVE SMOOTH"
);
},
{
closed = 1;
nodes = (
"227 73 OFFCURVE",
"139 123 OFFCURVE",
"139 256 CURVE SMOOTH",
"139 388 OFFCURVE",
"227 437 OFFCURVE",
"304 437 CURVE SMOOTH",
"380 437 OFFCURVE",
"469 388 OFFCURVE",
"469 256 CURVE SMOOTH",
"469 123 OFFCURVE",
"380 73 OFFCURVE",
"304 73 CURVE SMOOTH"
);
},
{
closed = 1;
nodes = (
"180 571 OFFCURVE",
"187 580 OFFCURVE",
"190 589 CURVE",
"198 608 OFFCURVE",
"209 621 OFFCURVE",
"229 621 CURVE SMOOTH",
"281 621 OFFCURVE",
"324 573 OFFCURVE",
"383 573 CURVE SMOOTH",
"433 573 OFFCURVE",
"467 625 OFFCURVE",
"467 668 CURVE",
"466 680 OFFCURVE",
"458 690 OFFCURVE",
"444 690 CURVE SMOOTH",
"429 690 OFFCURVE",
"423 680 OFFCURVE",
"419 669 CURVE SMOOTH",
"413 652 OFFCURVE",
"403 642 OFFCURVE",
"382 642 CURVE SMOOTH",
"328 642 OFFCURVE",
"286 689 OFFCURVE",
"228 689 CURVE SMOOTH",
"176 689 OFFCURVE",
"144 634 OFFCURVE",
"144 594 CURVE SMOOTH",
"144 581 OFFCURVE",
"155 571 OFFCURVE",
"167 571 CURVE SMOOTH"
);
}
);
width = 608;
}
);
leftKerningGroup = o;
note = otilde;
rightKerningGroup = o;
unicode = 00F5;
},
{
glyphname = p;
layers = (
{
anchors = (
{
name = bottom;
position = "{316, 0}";
},
{
name = top;
position = "{316, 510}";
}
);
layerId = "A99C00BB-606F-4263-964D-93C8B7F0BADD";
paths = (
{
closed = 1;
nodes = (
"150 -235 OFFCURVE",
"170 -215 OFFCURVE",
"170 -189 CURVE SMOOTH",
"170 66 LINE",
"216 18 OFFCURVE",
"271 -10 OFFCURVE",
"341 -10 CURVE SMOOTH",
"462 -10 OFFCURVE",
"583 85 OFFCURVE",
"583 255 CURVE SMOOTH",
"583 425 OFFCURVE",
"462 520 OFFCURVE",
"341 520 CURVE SMOOTH",
"271 520 OFFCURVE",
"216 492 OFFCURVE",
"170 444 CURVE",
"170 470 LINE SMOOTH",
"170 495 OFFCURVE",
"150 515 OFFCURVE",
"124 515 CURVE SMOOTH",
"99 515 OFFCURVE",
"79 495 OFFCURVE",
"79 470 CURVE SMOOTH",
"79 -189 LINE SMOOTH",
"79 -215 OFFCURVE",
"99 -235 OFFCURVE",
"124 -235 CURVE SMOOTH"
);
},
{
closed = 1;
nodes = (
"263 75 OFFCURVE",
"209 107 OFFCURVE",
"170 150 CURVE",
"170 360 LINE",
"209 403 OFFCURVE",
"263 435 OFFCURVE",
"328 435 CURVE SMOOTH",
"423 435 OFFCURVE",
"492 373 OFFCURVE",
"492 255 CURVE SMOOTH",
"492 137 OFFCURVE",
"423 75 OFFCURVE",
"328 75 CURVE SMOOTH"
);
}
);
width = 631;
}
);
leftKerningGroup = n;
leftMetricsKey = n;
note = p;
rightKerningGroup = o;
rightMetricsKey = o;
unicode = 0070;
},
{
glyphname = thorn;
layers = (
{
anchors = (
{
name = bottom;
position = "{316, 0}";
},
{
name = top;
position = "{316, 510}";
}
);
layerId = "A99C00BB-606F-4263-964D-93C8B7F0BADD";
paths = (
{
closed = 1;
nodes = (
"150 -235 OFFCURVE",
"170 -215 OFFCURVE",
"170 -189 CURVE SMOOTH",
"170 66 LINE",
"216 18 OFFCURVE",
"271 -10 OFFCURVE",
"341 -10 CURVE SMOOTH",
"462 -10 OFFCURVE",
"583 85 OFFCURVE",
"583 255 CURVE SMOOTH",
"583 425 OFFCURVE",
"462 520 OFFCURVE",
"341 520 CURVE SMOOTH",
"271 520 OFFCURVE",
"216 492 OFFCURVE",
"170 444 CURVE",
"170 689 LINE SMOOTH",
"170 715 OFFCURVE",
"150 735 OFFCURVE",
"124 735 CURVE SMOOTH",
"99 735 OFFCURVE",
"79 715 OFFCURVE",
"79 689 CURVE SMOOTH",
"79 -189 LINE SMOOTH",
"79 -215 OFFCURVE",
"99 -235 OFFCURVE",
"124 -235 CURVE SMOOTH"
);
},
{
closed = 1;
nodes = (
"263 75 OFFCURVE",
"209 107 OFFCURVE",
"170 150 CURVE",
"170 360 LINE",
"209 403 OFFCURVE",
"263 435 OFFCURVE",
"328 435 CURVE SMOOTH",
"423 435 OFFCURVE",
"492 373 OFFCURVE",
"492 255 CURVE SMOOTH",
"492 137 OFFCURVE",
"423 75 OFFCURVE",
"328 75 CURVE SMOOTH"
);
}
);
width = 631;
}
);
leftKerningGroup = l;
note = thorn;
rightKerningGroup = o;
rightMetricsKey = o;
unicode = 00FE;
},
{
glyphname = q;
layers = (
{
anchors = (
{
name = bottom;
position = "{316, 0}";
},
{
name = top;
position = "{316, 510}";
}
);
layerId = "A99C00BB-606F-4263-964D-93C8B7F0BADD";
paths = (
{
closed = 1;
nodes = (
"532 -235 OFFCURVE",
"552 -215 OFFCURVE",
"552 -189 CURVE SMOOTH",
"552 470 LINE SMOOTH",
"552 495 OFFCURVE",
"532 515 OFFCURVE",
"507 515 CURVE SMOOTH",
"481 515 OFFCURVE",
"461 495 OFFCURVE",
"461 470 CURVE SMOOTH",
"461 444 LINE",
"415 492 OFFCURVE",
"360 520 OFFCURVE",
"290 520 CURVE SMOOTH",
"169 520 OFFCURVE",
"48 425 OFFCURVE",
"48 255 CURVE SMOOTH",
"48 85 OFFCURVE",
"169 -10 OFFCURVE",
"290 -10 CURVE SMOOTH",
"360 -10 OFFCURVE",
"415 18 OFFCURVE",
"461 66 CURVE",
"461 -189 LINE SMOOTH",
"461 -215 OFFCURVE",
"481 -235 OFFCURVE",
"507 -235 CURVE SMOOTH"
);
},
{
closed = 1;
nodes = (
"208 75 OFFCURVE",
"139 137 OFFCURVE",
"139 255 CURVE SMOOTH",
"139 373 OFFCURVE",
"208 435 OFFCURVE",
"303 435 CURVE SMOOTH",
"368 435 OFFCURVE",
"422 403 OFFCURVE",
"461 360 CURVE",
"461 150 LINE",
"422 107 OFFCURVE",
"368 75 OFFCURVE",
"303 75 CURVE SMOOTH"
);
}
);
width = 631;
}
);
leftKerningGroup = o;
leftMetricsKey = o;
note = q;
rightKerningGroup = g;
unicode = 0071;
},
{
glyphname = r;
layers = (
{
anchors = (
{
name = bottom;
position = "{124, 0}";
},
{
name = top;
position = "{208, 510}";
}
);
layerId = "A99C00BB-606F-4263-964D-93C8B7F0BADD";
paths = (
{
closed = 1;
nodes = (
"149 -5 OFFCURVE",
"170 15 OFFCURVE",
"170 40 CURVE SMOOTH",
"170 344 LINE",
"205 396 OFFCURVE",
"259 432 OFFCURVE",
"325 432 CURVE SMOOTH",
"330 432 LINE SMOOTH",
"356 432 OFFCURVE",
"376 449 OFFCURVE",
"376 475 CURVE SMOOTH",
"376 500 OFFCURVE",
"357 520 OFFCURVE",
"332 520 CURVE SMOOTH",
"327 520 LINE SMOOTH",
"258 520 OFFCURVE",
"206 474 OFFCURVE",
"170 426 CURVE",
"170 469 LINE SMOOTH",
"170 494 OFFCURVE",
"149 515 OFFCURVE",
"124 515 CURVE SMOOTH",
"99 515 OFFCURVE",
"79 494 OFFCURVE",
"79 469 CURVE SMOOTH",
"79 40 LINE SMOOTH",
"79 15 OFFCURVE",
"99 -5 OFFCURVE",
"124 -5 CURVE SMOOTH"
);
}
);
width = 387;
}
);
leftKerningGroup = n;
leftMetricsKey = n;
note = r;
unicode = 0072;
},
{
glyphname = s;
layers = (
{
anchors = (
{
name = bottom;
position = "{240, 0}";
},
{
name = top;
position = "{240, 510}";
}
);
layerId = "A99C00BB-606F-4263-964D-93C8B7F0BADD";
paths = (
{
closed = 1;
nodes = (
"375 -10 OFFCURVE",
"440 57 OFFCURVE",
"440 138 CURVE SMOOTH",
"440 334 OFFCURVE",
"139 263 OFFCURVE",
"139 367 CURVE SMOOTH",
"139 407 OFFCURVE",
"180 437 OFFCURVE",
"254 437 CURVE SMOOTH",
"298 437 OFFCURVE",
"336 429 OFFCURVE",
"368 419 CURVE",
"372 418 OFFCURVE",
"376 417 OFFCURVE",
"381 417 CURVE SMOOTH",
"404 417 OFFCURVE",
"421 436 OFFCURVE",
"421 457 CURVE SMOOTH",
"421 472 OFFCURVE",
"411 489 OFFCURVE",
"392 495 CURVE",
"351 510 OFFCURVE",
"302 520 OFFCURVE",
"247 520 CURVE SMOOTH",
"117 520 OFFCURVE",
"52 452 OFFCURVE",
"52 362 CURVE SMOOTH",
"52 180 OFFCURVE",
"352 231 OFFCURVE",
"352 145 CURVE SMOOTH",
"352 100 OFFCURVE",
"318 74 OFFCURVE",
"241 74 CURVE SMOOTH",
"182 74 OFFCURVE",
"141 88 OFFCURVE",
"105 104 CURVE SMOOTH",
"98 107 OFFCURVE",
"93 108 OFFCURVE",
"87 108 CURVE SMOOTH",
"64 108 OFFCURVE",
"48 88 OFFCURVE",
"48 68 CURVE SMOOTH",
"48 54 OFFCURVE",
"55 42 OFFCURVE",
"65 35 CURVE",
"116 7 OFFCURVE",
"174 -10 OFFCURVE",
"247 -10 CURVE SMOOTH"
);
}
);
width = 480;
}
);
leftKerningGroup = s;
leftMetricsKey = s;
note = s;
rightKerningGroup = s;
unicode = 0073;
},
{
glyphname = scommaaccent;
layers = (
{
layerId = "A99C00BB-606F-4263-964D-93C8B7F0BADD";
paths = (
{
closed = 1;
nodes = (
"375 -10 OFFCURVE",
"440 57 OFFCURVE",
"440 138 CURVE SMOOTH",
"440 334 OFFCURVE",
"139 263 OFFCURVE",
"139 367 CURVE SMOOTH",
"139 407 OFFCURVE",
"180 437 OFFCURVE",
"254 437 CURVE SMOOTH",
"298 437 OFFCURVE",
"336 429 OFFCURVE",
"368 419 CURVE",
"372 418 OFFCURVE",
"376 417 OFFCURVE",
"381 417 CURVE SMOOTH",
"404 417 OFFCURVE",
"421 436 OFFCURVE",
"421 457 CURVE SMOOTH",
"421 472 OFFCURVE",
"411 489 OFFCURVE",
"392 495 CURVE",
"351 510 OFFCURVE",
"302 520 OFFCURVE",
"247 520 CURVE SMOOTH",
"117 520 OFFCURVE",
"52 452 OFFCURVE",
"52 362 CURVE SMOOTH",
"52 180 OFFCURVE",
"352 231 OFFCURVE",
"352 145 CURVE SMOOTH",
"352 100 OFFCURVE",
"318 74 OFFCURVE",
"241 74 CURVE SMOOTH",
"182 74 OFFCURVE",
"141 88 OFFCURVE",
"105 104 CURVE SMOOTH",
"98 107 OFFCURVE",
"93 108 OFFCURVE",
"87 108 CURVE SMOOTH",
"64 108 OFFCURVE",
"48 88 OFFCURVE",
"48 68 CURVE SMOOTH",
"48 54 OFFCURVE",
"55 42 OFFCURVE",
"65 35 CURVE",
"116 7 OFFCURVE",
"174 -10 OFFCURVE",
"247 -10 CURVE SMOOTH"
);
},
{
closed = 1;
nodes = (
"217 -286 OFFCURVE",
"224 -283 OFFCURVE",
"226 -281 CURVE",
"261 -260 OFFCURVE",
"300 -222 OFFCURVE",
"300 -150 CURVE SMOOTH",
"300 -103 LINE",
"300 -98 LINE SMOOTH",
"300 -70 OFFCURVE",
"277 -47 OFFCURVE",
"250 -47 CURVE SMOOTH",
"241 -47 LINE SMOOTH",
"213 -47 OFFCURVE",
"190 -70 OFFCURVE",
"190 -98 CURVE SMOOTH",
"190 -103 LINE SMOOTH",
"190 -131 OFFCURVE",
"213 -153 OFFCURVE",
"241 -153 CURVE SMOOTH",
"244 -153 LINE",
"244 -202 OFFCURVE",
"225 -221 OFFCURVE",
"199 -236 CURVE",
"190 -242 OFFCURVE",
"185 -249 OFFCURVE",
"185 -259 CURVE SMOOTH",
"185 -273 OFFCURVE",
"196 -286 OFFCURVE",
"211 -286 CURVE SMOOTH"
);
}
);
width = 480;
}
);
leftKerningGroup = s;
note = scommaaccent;
rightKerningGroup = s;
unicode = 0219;
},
{
glyphname = germandbls;
layers = (
{
layerId = "A99C00BB-606F-4263-964D-93C8B7F0BADD";
paths = (
{
closed = 1;
nodes = (
"468 -10 OFFCURVE",
"563 49 OFFCURVE",
"563 174 CURVE SMOOTH",
"563 292 OFFCURVE",
"476 337 OFFCURVE",
"414 352 CURVE",
"467 369 OFFCURVE",
"524 410 OFFCURVE",
"524 512 CURVE SMOOTH",
"524 648 OFFCURVE",
"407 708 OFFCURVE",
"305 708 CURVE SMOOTH",
"173 708 OFFCURVE",
"79 629 OFFCURVE",
"79 486 CURVE SMOOTH",
"79 41 LINE SMOOTH",
"79 16 OFFCURVE",
"99 -4 OFFCURVE",
"124 -4 CURVE SMOOTH",
"149 -4 OFFCURVE",
"170 16 OFFCURVE",
"170 41 CURVE SMOOTH",
"170 475 LINE SMOOTH",
"170 594 OFFCURVE",
"239 623 OFFCURVE",
"304 623 CURVE SMOOTH",
"384 623 OFFCURVE",
"433 577 OFFCURVE",
"433 502 CURVE SMOOTH",
"433 438 OFFCURVE",
"382 392 OFFCURVE",
"300 383 CURVE SMOOTH",
"278 380 OFFCURVE",
"262 366 OFFCURVE",
"262 346 CURVE SMOOTH",
"262 324 OFFCURVE",
"276 309 OFFCURVE",
"300 309 CURVE SMOOTH",
"398 309 OFFCURVE",
"472 263 OFFCURVE",
"472 185 CURVE SMOOTH",
"472 91 OFFCURVE",
"396 71 OFFCURVE",
"358 71 CURVE SMOOTH",
"330 71 OFFCURVE",
"305 74 OFFCURVE",
"284 81 CURVE",
"279 83 OFFCURVE",
"274 84 OFFCURVE",
"269 84 CURVE SMOOTH",
"246 84 OFFCURVE",
"230 67 OFFCURVE",
"230 45 CURVE SMOOTH",
"230 25 OFFCURVE",
"244 13 OFFCURVE",
"262 7 CURVE SMOOTH",
"291 -3 OFFCURVE",
"329 -10 OFFCURVE",
"373 -10 CURVE SMOOTH"
);
}
);
width = 610;
}
);
leftKerningGroup = f;
note = germandbls;
unicode = 00DF;
},
{
glyphname = longs;
layers = (
{
layerId = "A99C00BB-606F-4263-964D-93C8B7F0BADD";
paths = (
{
closed = 1;
nodes = (
"188 -5 OFFCURVE",
"208 15 OFFCURVE",
"208 40 CURVE SMOOTH",
"208 565 LINE SMOOTH",
"208 636 OFFCURVE",
"240 653 OFFCURVE",
"290 653 CURVE SMOOTH",
"309 653 OFFCURVE",
"324 647 OFFCURVE",
"340 647 CURVE SMOOTH",
"361 647 OFFCURVE",
"377 666 OFFCURVE",
"377 685 CURVE SMOOTH",
"377 701 OFFCURVE",
"366 714 OFFCURVE",
"354 720 CURVE SMOOTH",
"330 732 OFFCURVE",
"300 740 OFFCURVE",
"267 740 CURVE SMOOTH",
"196 740 OFFCURVE",
"117 694 OFFCURVE",
"117 568 CURVE SMOOTH",
"117 510 LINE",
"58 510 LINE SMOOTH",
"36 510 OFFCURVE",
"19 493 OFFCURVE",
"19 471 CURVE SMOOTH",
"19 449 OFFCURVE",
"36 432 OFFCURVE",
"58 432 CURVE SMOOTH",
"117 432 LINE",
"117 40 LINE SMOOTH",
"117 15 OFFCURVE",
"137 -5 OFFCURVE",
"162 -5 CURVE SMOOTH"
);
}
);
width = 287;
}
);
leftKerningGroup = f;
note = longs;
unicode = 017F;
},
{
glyphname = t;
layers = (
{
anchors = (
{
name = bottom;
position = "{251, 0}";
},
{
name = center;
position = "{158, 255}";
},
{
name = top;
position = "{192, 510}";
},
{
name = topright;
position = "{223, 732}";
}
);
layerId = "A99C00BB-606F-4263-964D-93C8B7F0BADD";
paths = (
{
closed = 1;
nodes = (
"290 -10 OFFCURVE",
"317 -3 OFFCURVE",
"341 8 CURVE SMOOTH",
"355 15 OFFCURVE",
"364 26 OFFCURVE",
"364 43 CURVE SMOOTH",
"364 64 OFFCURVE",
"346 79 OFFCURVE",
"328 79 CURVE SMOOTH",
"311 79 OFFCURVE",
"300 70 OFFCURVE",
"268 70 CURVE SMOOTH",
"243 70 OFFCURVE",
"203 71 OFFCURVE",
"203 130 CURVE SMOOTH",
"203 432 LINE",
"316 432 LINE SMOOTH",
"338 432 OFFCURVE",
"355 449 OFFCURVE",
"355 471 CURVE SMOOTH",
"355 493 OFFCURVE",
"338 510 OFFCURVE",
"316 510 CURVE SMOOTH",
"203 510 LINE",
"203 590 LINE SMOOTH",
"203 601 OFFCURVE",
"195 610 OFFCURVE",
"184 610 CURVE SMOOTH",
"176 610 OFFCURVE",
"170 604 OFFCURVE",
"167 601 CURVE SMOOTH",
"31 468 LINE",
"25 463 OFFCURVE",
"22 457 OFFCURVE",
"22 451 CURVE SMOOTH",
"22 440 OFFCURVE",
"30 432 OFFCURVE",
"41 432 CURVE SMOOTH",
"112 432 LINE",
"112 122 LINE SMOOTH",
"112 -2 OFFCURVE",
"211 -10 OFFCURVE",
"258 -10 CURVE SMOOTH"
);
}
);
width = 384;
}
);
leftKerningGroup = t;
note = t;
rightKerningGroup = t;
unicode = 0074;
},
{
glyphname = tcommaaccent;
layers = (
{
layerId = "A99C00BB-606F-4263-964D-93C8B7F0BADD";
paths = (
{
closed = 1;
nodes = (
"289 -10 OFFCURVE",
"316 -3 OFFCURVE",
"340 8 CURVE SMOOTH",
"354 15 OFFCURVE",
"363 26 OFFCURVE",
"363 43 CURVE SMOOTH",
"363 64 OFFCURVE",
"345 79 OFFCURVE",
"327 79 CURVE SMOOTH",
"310 79 OFFCURVE",
"299 70 OFFCURVE",
"267 70 CURVE SMOOTH",
"242 70 OFFCURVE",
"202 71 OFFCURVE",
"202 130 CURVE SMOOTH",
"202 432 LINE",
"315 432 LINE SMOOTH",
"337 432 OFFCURVE",
"354 449 OFFCURVE",
"354 471 CURVE SMOOTH",
"354 493 OFFCURVE",
"337 510 OFFCURVE",
"315 510 CURVE SMOOTH",
"202 510 LINE",
"202 590 LINE SMOOTH",
"202 601 OFFCURVE",
"194 610 OFFCURVE",
"183 610 CURVE SMOOTH",
"175 610 OFFCURVE",
"169 604 OFFCURVE",
"166 601 CURVE SMOOTH",
"30 468 LINE",
"24 463 OFFCURVE",
"21 457 OFFCURVE",
"21 451 CURVE SMOOTH",
"21 440 OFFCURVE",
"29 432 OFFCURVE",
"40 432 CURVE SMOOTH",
"111 432 LINE",
"111 122 LINE SMOOTH",
"111 -2 OFFCURVE",
"210 -10 OFFCURVE",
"257 -10 CURVE SMOOTH"
);
},
{
closed = 1;
nodes = (
"163 -286 OFFCURVE",
"170 -283 OFFCURVE",
"172 -281 CURVE",
"207 -260 OFFCURVE",
"246 -222 OFFCURVE",
"246 -150 CURVE SMOOTH",
"246 -103 LINE",
"246 -98 LINE SMOOTH",
"246 -70 OFFCURVE",
"223 -47 OFFCURVE",
"196 -47 CURVE SMOOTH",
"187 -47 LINE SMOOTH",
"159 -47 OFFCURVE",
"136 -70 OFFCURVE",
"136 -98 CURVE SMOOTH",
"136 -103 LINE SMOOTH",
"136 -131 OFFCURVE",
"159 -153 OFFCURVE",
"187 -153 CURVE SMOOTH",
"190 -153 LINE",
"190 -202 OFFCURVE",
"171 -221 OFFCURVE",
"145 -236 CURVE",
"136 -242 OFFCURVE",
"131 -249 OFFCURVE",
"131 -259 CURVE SMOOTH",
"131 -273 OFFCURVE",
"142 -286 OFFCURVE",
"157 -286 CURVE SMOOTH"
);
}
);
width = 383;
}
);
leftKerningGroup = t;
note = uni021B;
rightKerningGroup = t;
unicode = 021B;
},
{
glyphname = u;
layers = (
{
anchors = (
{
name = bottom;
position = "{305, 0}";
},
{
name = ogonek;
position = "{518, 10}";
},
{
name = top;
position = "{305, 510}";
},
{
name = topright;
position = "{589, 510}";
}
);
layerId = "A99C00BB-606F-4263-964D-93C8B7F0BADD";
paths = (
{
closed = 1;
nodes = (
"342 -10 OFFCURVE",
"397 36 OFFCURVE",
"439 82 CURVE",
"439 41 LINE SMOOTH",
"439 15 OFFCURVE",
"460 -5 OFFCURVE",
"485 -5 CURVE SMOOTH",
"510 -5 OFFCURVE",
"530 15 OFFCURVE",
"530 41 CURVE SMOOTH",
"530 470 LINE SMOOTH",
"530 495 OFFCURVE",
"510 515 OFFCURVE",
"485 515 CURVE SMOOTH",
"460 515 OFFCURVE",
"439 495 OFFCURVE",
"439 470 CURVE SMOOTH",
"439 170 LINE",
"399 120 OFFCURVE",
"347 74 OFFCURVE",
"275 74 CURVE SMOOTH",
"197 74 OFFCURVE",
"165 120 OFFCURVE",
"165 196 CURVE SMOOTH",
"165 470 LINE SMOOTH",
"165 495 OFFCURVE",
"145 515 OFFCURVE",
"120 515 CURVE SMOOTH",
"95 515 OFFCURVE",
"74 495 OFFCURVE",
"74 470 CURVE SMOOTH",
"74 186 LINE SMOOTH",
"74 79 OFFCURVE",
"139 -10 OFFCURVE",
"253 -10 CURVE SMOOTH"
);
}
);
width = 609;
}
);
leftKerningGroup = u;
leftMetricsKey = "=|n";
note = u;
rightKerningGroup = g;
rightMetricsKey = "=|n";
unicode = 0075;
},
{
glyphname = uacute;
layers = (
{
layerId = "A99C00BB-606F-4263-964D-93C8B7F0BADD";
paths = (
{
closed = 1;
nodes = (
"343 -10 OFFCURVE",
"398 36 OFFCURVE",
"440 82 CURVE",
"440 41 LINE SMOOTH",
"440 15 OFFCURVE",
"461 -5 OFFCURVE",
"486 -5 CURVE SMOOTH",
"511 -5 OFFCURVE",
"531 15 OFFCURVE",
"531 41 CURVE SMOOTH",
"531 470 LINE SMOOTH",
"531 495 OFFCURVE",
"511 515 OFFCURVE",
"486 515 CURVE SMOOTH",
"461 515 OFFCURVE",
"440 495 OFFCURVE",
"440 470 CURVE SMOOTH",
"440 170 LINE",
"400 120 OFFCURVE",
"348 74 OFFCURVE",
"276 74 CURVE SMOOTH",
"198 74 OFFCURVE",
"166 120 OFFCURVE",
"166 196 CURVE SMOOTH",
"166 470 LINE SMOOTH",
"166 495 OFFCURVE",
"146 515 OFFCURVE",
"121 515 CURVE SMOOTH",
"96 515 OFFCURVE",
"75 495 OFFCURVE",
"75 470 CURVE SMOOTH",
"75 186 LINE SMOOTH",
"75 79 OFFCURVE",
"140 -10 OFFCURVE",
"254 -10 CURVE SMOOTH"
);
},
{
closed = 1;
nodes = (
"298 567 OFFCURVE",
"304 571 OFFCURVE",
"310 578 CURVE SMOOTH",
"379 660 LINE SMOOTH",
"386 668 OFFCURVE",
"389 676 OFFCURVE",
"389 685 CURVE SMOOTH",
"389 707 OFFCURVE",
"374 722 OFFCURVE",
"352 722 CURVE SMOOTH",
"335 722 OFFCURVE",
"325 714 OFFCURVE",
"319 703 CURVE SMOOTH",
"268 613 LINE",
"266 610 OFFCURVE",
"261 602 OFFCURVE",
"261 594 CURVE SMOOTH",
"261 578 OFFCURVE",
"272 567 OFFCURVE",
"288 567 CURVE SMOOTH"
);
}
);
width = 610;
}
);
leftKerningGroup = u;
note = uacute;
rightKerningGroup = g;
unicode = 00FA;
},
{
glyphname = udieresis;
layers = (
{
layerId = "A99C00BB-606F-4263-964D-93C8B7F0BADD";
paths = (
{
closed = 1;
nodes = (
"343 -10 OFFCURVE",
"398 36 OFFCURVE",
"440 82 CURVE",
"440 41 LINE SMOOTH",
"440 15 OFFCURVE",
"461 -5 OFFCURVE",
"486 -5 CURVE SMOOTH",
"511 -5 OFFCURVE",
"531 15 OFFCURVE",
"531 41 CURVE SMOOTH",
"531 470 LINE SMOOTH",
"531 495 OFFCURVE",
"511 515 OFFCURVE",
"486 515 CURVE SMOOTH",
"461 515 OFFCURVE",
"440 495 OFFCURVE",
"440 470 CURVE SMOOTH",
"440 170 LINE",
"400 120 OFFCURVE",
"348 74 OFFCURVE",
"276 74 CURVE SMOOTH",
"198 74 OFFCURVE",
"166 120 OFFCURVE",
"166 196 CURVE SMOOTH",
"166 470 LINE SMOOTH",
"166 495 OFFCURVE",
"146 515 OFFCURVE",
"121 515 CURVE SMOOTH",
"96 515 OFFCURVE",
"75 495 OFFCURVE",
"75 470 CURVE SMOOTH",
"75 186 LINE SMOOTH",
"75 79 OFFCURVE",
"140 -10 OFFCURVE",
"254 -10 CURVE SMOOTH"
);
},
{
closed = 1;
nodes = (
"247 575 OFFCURVE",
"270 598 OFFCURVE",
"270 626 CURVE SMOOTH",
"270 654 OFFCURVE",
"247 677 OFFCURVE",
"219 677 CURVE SMOOTH",
"191 677 OFFCURVE",
"168 654 OFFCURVE",
"168 626 CURVE SMOOTH",
"168 598 OFFCURVE",
"191 575 OFFCURVE",
"219 575 CURVE SMOOTH"
);
},
{
closed = 1;
nodes = (
"416 575 OFFCURVE",
"439 598 OFFCURVE",
"439 626 CURVE SMOOTH",
"439 654 OFFCURVE",
"416 677 OFFCURVE",
"388 677 CURVE SMOOTH",
"360 677 OFFCURVE",
"337 654 OFFCURVE",
"337 626 CURVE SMOOTH",
"337 598 OFFCURVE",
"360 575 OFFCURVE",
"388 575 CURVE SMOOTH"
);
}
);
width = 610;
}
);
leftKerningGroup = u;
note = udieresis;
rightKerningGroup = g;
unicode = 00FC;
},
{
glyphname = v;
layers = (
{
anchors = (
{
name = bottom;
position = "{265, 0}";
},
{
name = top;
position = "{265, 510}";
}
);
layerId = "A99C00BB-606F-4263-964D-93C8B7F0BADD";
paths = (
{
closed = 1;
nodes = (
"270 -5 LINE SMOOTH",
"295 -5 OFFCURVE",
"316 12 OFFCURVE",
"325 32 CURVE SMOOTH",
"499 448 LINE SMOOTH",
"502 455 OFFCURVE",
"504 461 OFFCURVE",
"504 469 CURVE SMOOTH",
"504 494 OFFCURVE",
"484 515 OFFCURVE",
"459 515 CURVE SMOOTH",
"441 515 OFFCURVE",
"424 504 OFFCURVE",
"418 489 CURVE SMOOTH",
"265 101 LINE",
"112 489 LINE SMOOTH",
"106 504 OFFCURVE",
"89 515 OFFCURVE",
"71 515 CURVE SMOOTH",
"46 515 OFFCURVE",
"26 494 OFFCURVE",
"26 469 CURVE SMOOTH",
"26 461 OFFCURVE",
"28 455 OFFCURVE",
"31 448 CURVE SMOOTH",
"205 32 LINE SMOOTH",
"214 12 OFFCURVE",
"235 -5 OFFCURVE",
"260 -5 CURVE SMOOTH"
);
}
);
width = 530;
}
);
leftKerningGroup = v;
note = v;
rightKerningGroup = v;
unicode = 0076;
},
{
glyphname = w;
layers = (
{
anchors = (
{
name = bottom;
position = "{393, 0}";
},
{
name = top;
position = "{393, 510}";
}
);
layerId = "A99C00BB-606F-4263-964D-93C8B7F0BADD";
paths = (
{
closed = 1;
nodes = (
"255 -5 OFFCURVE",
"278 14 OFFCURVE",
"287 38 CURVE",
"393 369 LINE",
"499 38 LINE",
"508 14 OFFCURVE",
"531 -5 OFFCURVE",
"558 -5 CURVE SMOOTH",
"585 -5 OFFCURVE",
"608 14 OFFCURVE",
"616 37 CURVE SMOOTH",
"758 453 LINE SMOOTH",
"760 459 OFFCURVE",
"761 464 OFFCURVE",
"761 470 CURVE SMOOTH",
"761 495 OFFCURVE",
"741 515 OFFCURVE",
"716 515 CURVE SMOOTH",
"698 515 OFFCURVE",
"680 505 OFFCURVE",
"675 488 CURVE SMOOTH",
"558 103 LINE",
"442 479 LINE SMOOTH",
"436 500 OFFCURVE",
"416 515 OFFCURVE",
"393 515 CURVE SMOOTH",
"370 515 OFFCURVE",
"350 500 OFFCURVE",
"344 479 CURVE SMOOTH",
"228 103 LINE",
"111 488 LINE SMOOTH",
"106 505 OFFCURVE",
"88 515 OFFCURVE",
"70 515 CURVE SMOOTH",
"45 515 OFFCURVE",
"25 495 OFFCURVE",
"25 470 CURVE SMOOTH",
"25 464 OFFCURVE",
"26 459 OFFCURVE",
"28 453 CURVE SMOOTH",
"170 37 LINE SMOOTH",
"178 14 OFFCURVE",
"201 -5 OFFCURVE",
"228 -5 CURVE SMOOTH"
);
}
);
width = 785;
}
);
leftKerningGroup = v;
note = w;
rightKerningGroup = v;
unicode = 0077;
},
{
glyphname = x;
layers = (
{
anchors = (
{
name = bottom;
position = "{271, 0}";
},
{
name = top;
position = "{271, 510}";
}
);
layerId = "A99C00BB-606F-4263-964D-93C8B7F0BADD";
paths = (
{
closed = 1;
nodes = (
"111 -5 OFFCURVE",
"125 3 OFFCURVE",
"134 15 CURVE SMOOTH",
"268 183 LINE",
"410 13 LINE",
"418 2 OFFCURVE",
"431 -5 OFFCURVE",
"445 -5 CURVE SMOOTH",
"476 -5 OFFCURVE",
"491 18 OFFCURVE",
"491 41 CURVE SMOOTH",
"491 49 OFFCURVE",
"488 61 OFFCURVE",
"480 70 CURVE SMOOTH",
"324 258 LINE",
"482 444 LINE",
"488 452 OFFCURVE",
"492 462 OFFCURVE",
"492 472 CURVE SMOOTH",
"492 496 OFFCURVE",
"473 515 OFFCURVE",
"446 515 CURVE SMOOTH",
"432 515 OFFCURVE",
"419 509 OFFCURVE",
"411 498 CURVE",
"272 325 LINE",
"132 498 LINE",
"125 508 OFFCURVE",
"112 515 OFFCURVE",
"96 515 CURVE SMOOTH",
"71 515 OFFCURVE",
"51 498 OFFCURVE",
"51 470 CURVE SMOOTH",
"51 459 OFFCURVE",
"55 450 OFFCURVE",
"62 441 CURVE SMOOTH",
"217 252 LINE",
"62 69 LINE",
"55 60 OFFCURVE",
"52 51 OFFCURVE",
"52 41 CURVE SMOOTH",
"52 13 OFFCURVE",
"69 -5 OFFCURVE",
"95 -5 CURVE SMOOTH"
);
}
);
width = 542;
}
);
note = x;
unicode = 0078;
},
{
glyphname = y;
layers = (
{
anchors = (
{
name = bottom;
position = "{269, 0}";
},
{
name = top;
position = "{269, 510}";
}
);
layerId = "A99C00BB-606F-4263-964D-93C8B7F0BADD";
paths = (
{
closed = 1;
nodes = (
"214 -235 OFFCURVE",
"227 -222 OFFCURVE",
"235 -204 CURVE SMOOTH",
"508 452 LINE SMOOTH",
"510 457 OFFCURVE",
"511 463 OFFCURVE",
"511 469 CURVE SMOOTH",
"511 494 OFFCURVE",
"491 515 OFFCURVE",
"466 515 CURVE SMOOTH",
"446 515 OFFCURVE",
"432 503 OFFCURVE",
"424 485 CURVE SMOOTH",
"267 105 LINE",
"113 487 LINE SMOOTH",
"106 503 OFFCURVE",
"90 515 OFFCURVE",
"71 515 CURVE SMOOTH",
"46 515 OFFCURVE",
"26 494 OFFCURVE",
"26 469 CURVE SMOOTH",
"26 462 OFFCURVE",
"28 455 OFFCURVE",
"30 450 CURVE SMOOTH",
"218 -8 LINE",
"153 -175 LINE SMOOTH",
"151 -180 OFFCURVE",
"150 -186 OFFCURVE",
"150 -191 CURVE SMOOTH",
"150 -215 OFFCURVE",
"169 -235 OFFCURVE",
"193 -235 CURVE SMOOTH"
);
}
);
width = 537;
}
);
leftKerningGroup = y;
leftMetricsKey = v;
note = y;
rightKerningGroup = y;
rightMetricsKey = v;
unicode = 0079;
},
{
glyphname = ydieresis;
layers = (
{
layerId = "A99C00BB-606F-4263-964D-93C8B7F0BADD";
paths = (
{
closed = 1;
nodes = (
"212 -235 OFFCURVE",
"225 -222 OFFCURVE",
"233 -204 CURVE SMOOTH",
"506 452 LINE SMOOTH",
"508 457 OFFCURVE",
"509 463 OFFCURVE",
"509 469 CURVE SMOOTH",
"509 494 OFFCURVE",
"489 515 OFFCURVE",
"464 515 CURVE SMOOTH",
"444 515 OFFCURVE",
"430 503 OFFCURVE",
"422 485 CURVE SMOOTH",
"265 105 LINE",
"111 487 LINE SMOOTH",
"104 503 OFFCURVE",
"88 515 OFFCURVE",
"69 515 CURVE SMOOTH",
"44 515 OFFCURVE",
"24 494 OFFCURVE",
"24 469 CURVE SMOOTH",
"24 462 OFFCURVE",
"26 455 OFFCURVE",
"28 450 CURVE SMOOTH",
"216 -8 LINE",
"151 -175 LINE SMOOTH",
"149 -180 OFFCURVE",
"148 -186 OFFCURVE",
"148 -191 CURVE SMOOTH",
"148 -215 OFFCURVE",
"167 -235 OFFCURVE",
"191 -235 CURVE SMOOTH"
);
},
{
closed = 1;
nodes = (
"209 575 OFFCURVE",
"232 598 OFFCURVE",
"232 626 CURVE SMOOTH",
"232 654 OFFCURVE",
"209 677 OFFCURVE",
"181 677 CURVE SMOOTH",
"153 677 OFFCURVE",
"130 654 OFFCURVE",
"130 626 CURVE SMOOTH",
"130 598 OFFCURVE",
"153 575 OFFCURVE",
"181 575 CURVE SMOOTH"
);
},
{
closed = 1;
nodes = (
"378 575 OFFCURVE",
"401 598 OFFCURVE",
"401 626 CURVE SMOOTH",
"401 654 OFFCURVE",
"378 677 OFFCURVE",
"350 677 CURVE SMOOTH",
"322 677 OFFCURVE",
"299 654 OFFCURVE",
"299 626 CURVE SMOOTH",
"299 598 OFFCURVE",
"322 575 OFFCURVE",
"350 575 CURVE SMOOTH"
);
}
);
width = 533;
}
);
leftKerningGroup = y;
note = ydieresis;
rightKerningGroup = y;
unicode = 00FF;
},
{
glyphname = z;
layers = (
{
anchors = (
{
name = bottom;
position = "{250, 0}";
},
{
name = top;
position = "{250, 510}";
}
);
layerId = "A99C00BB-606F-4263-964D-93C8B7F0BADD";
paths = (
{
closed = 1;
nodes = (
"414 0 LINE SMOOTH",
"438 0 OFFCURVE",
"457 18 OFFCURVE",
"457 42 CURVE SMOOTH",
"457 66 OFFCURVE",
"438 85 OFFCURVE",
"414 85 CURVE SMOOTH",
"157 85 LINE",
"437 413 LINE SMOOTH",
"446 424 OFFCURVE",
"451 437 OFFCURVE",
"451 453 CURVE SMOOTH",
"451 487 OFFCURVE",
"427 510 OFFCURVE",
"393 510 CURVE SMOOTH",
"90 510 LINE SMOOTH",
"66 510 OFFCURVE",
"48 491 OFFCURVE",
"48 467 CURVE SMOOTH",
"48 443 OFFCURVE",
"66 425 OFFCURVE",
"90 425 CURVE SMOOTH",
"343 425 LINE",
"55 94 LINE SMOOTH",
"45 83 OFFCURVE",
"39 69 OFFCURVE",
"39 53 CURVE SMOOTH",
"39 18 OFFCURVE",
"67 0 OFFCURVE",
"102 0 CURVE SMOOTH"
);
}
);
width = 499;
}
);
note = z;
unicode = 007A;
},
{
glyphname = f_f;
layers = (
{
layerId = "A99C00BB-606F-4263-964D-93C8B7F0BADD";
paths = (
{
closed = 1;
nodes = (
"188 -5 OFFCURVE",
"208 15 OFFCURVE",
"208 40 CURVE SMOOTH",
"208 432 LINE",
"511 432 LINE",
"511 40 LINE SMOOTH",
"511 15 OFFCURVE",
"531 -5 OFFCURVE",
"556 -5 CURVE SMOOTH",
"582 -5 OFFCURVE",
"602 15 OFFCURVE",
"602 40 CURVE SMOOTH",
"602 432 LINE",
"727 432 LINE SMOOTH",
"749 432 OFFCURVE",
"766 449 OFFCURVE",
"766 471 CURVE SMOOTH",
"766 493 OFFCURVE",
"749 510 OFFCURVE",
"727 510 CURVE SMOOTH",
"602 510 LINE",
"602 565 LINE SMOOTH",
"602 636 OFFCURVE",
"634 653 OFFCURVE",
"684 653 CURVE SMOOTH",
"703 653 OFFCURVE",
"718 647 OFFCURVE",
"734 647 CURVE SMOOTH",
"755 647 OFFCURVE",
"771 666 OFFCURVE",
"771 685 CURVE SMOOTH",
"771 701 OFFCURVE",
"760 714 OFFCURVE",
"748 720 CURVE SMOOTH",
"724 732 OFFCURVE",
"694 740 OFFCURVE",
"661 740 CURVE SMOOTH",
"590 740 OFFCURVE",
"511 694 OFFCURVE",
"511 568 CURVE SMOOTH",
"511 510 LINE",
"208 510 LINE",
"208 565 LINE SMOOTH",
"208 636 OFFCURVE",
"240 653 OFFCURVE",
"290 653 CURVE SMOOTH",
"309 653 OFFCURVE",
"324 647 OFFCURVE",
"340 647 CURVE SMOOTH",
"361 647 OFFCURVE",
"377 666 OFFCURVE",
"377 685 CURVE SMOOTH",
"377 701 OFFCURVE",
"366 714 OFFCURVE",
"354 720 CURVE SMOOTH",
"330 732 OFFCURVE",
"300 740 OFFCURVE",
"267 740 CURVE SMOOTH",
"196 740 OFFCURVE",
"117 694 OFFCURVE",
"117 568 CURVE SMOOTH",
"117 510 LINE",
"58 510 LINE SMOOTH",
"36 510 OFFCURVE",
"19 493 OFFCURVE",
"19 471 CURVE SMOOTH",
"19 449 OFFCURVE",
"36 432 OFFCURVE",
"58 432 CURVE SMOOTH",
"117 432 LINE",
"117 40 LINE SMOOTH",
"117 15 OFFCURVE",
"137 -5 OFFCURVE",
"162 -5 CURVE SMOOTH"
);
}
);
width = 774;
}
);
leftKerningGroup = f;
leftMetricsKey = f;
note = f_f;
rightKerningGroup = f;
},
{
glyphname = f_f_i;
layers = (
{
layerId = "A99C00BB-606F-4263-964D-93C8B7F0BADD";
paths = (
{
closed = 1;
nodes = (
"188 -5 OFFCURVE",
"208 15 OFFCURVE",
"208 40 CURVE SMOOTH",
"208 432 LINE",
"511 432 LINE",
"511 40 LINE SMOOTH",
"511 15 OFFCURVE",
"531 -5 OFFCURVE",
"556 -5 CURVE SMOOTH",
"582 -5 OFFCURVE",
"602 15 OFFCURVE",
"602 40 CURVE SMOOTH",
"602 432 LINE",
"861 432 LINE",
"861 40 LINE SMOOTH",
"861 15 OFFCURVE",
"881 -5 OFFCURVE",
"906 -5 CURVE SMOOTH",
"932 -5 OFFCURVE",
"952 15 OFFCURVE",
"952 40 CURVE SMOOTH",
"952 464 LINE SMOOTH",
"952 490 OFFCURVE",
"932 510 OFFCURVE",
"906 510 CURVE SMOOTH",
"602 510 LINE",
"602 565 LINE SMOOTH",
"602 636 OFFCURVE",
"634 653 OFFCURVE",
"684 653 CURVE SMOOTH",
"703 653 OFFCURVE",
"718 647 OFFCURVE",
"734 647 CURVE SMOOTH",
"755 647 OFFCURVE",
"771 666 OFFCURVE",
"771 685 CURVE SMOOTH",
"771 701 OFFCURVE",
"760 714 OFFCURVE",
"748 720 CURVE SMOOTH",
"724 732 OFFCURVE",
"694 740 OFFCURVE",
"661 740 CURVE SMOOTH",
"590 740 OFFCURVE",
"511 694 OFFCURVE",
"511 568 CURVE SMOOTH",
"511 510 LINE",
"208 510 LINE",
"208 565 LINE SMOOTH",
"208 636 OFFCURVE",
"240 653 OFFCURVE",
"290 653 CURVE SMOOTH",
"309 653 OFFCURVE",
"324 647 OFFCURVE",
"340 647 CURVE SMOOTH",
"361 647 OFFCURVE",
"377 666 OFFCURVE",
"377 685 CURVE SMOOTH",
"377 701 OFFCURVE",
"366 714 OFFCURVE",
"354 720 CURVE SMOOTH",
"330 732 OFFCURVE",
"300 740 OFFCURVE",
"267 740 CURVE SMOOTH",
"196 740 OFFCURVE",
"117 694 OFFCURVE",
"117 568 CURVE SMOOTH",
"117 510 LINE",
"58 510 LINE SMOOTH",
"36 510 OFFCURVE",
"19 493 OFFCURVE",
"19 471 CURVE SMOOTH",
"19 449 OFFCURVE",
"36 432 OFFCURVE",
"58 432 CURVE SMOOTH",
"117 432 LINE",
"117 40 LINE SMOOTH",
"117 15 OFFCURVE",
"137 -5 OFFCURVE",
"162 -5 CURVE SMOOTH"
);
},
{
closed = 1;
nodes = (
"910 614 LINE SMOOTH",
"938 614 OFFCURVE",
"961 637 OFFCURVE",
"961 665 CURVE SMOOTH",
"961 669 LINE SMOOTH",
"961 697 OFFCURVE",
"938 720 OFFCURVE",
"910 720 CURVE SMOOTH",
"904 720 LINE SMOOTH",
"876 720 OFFCURVE",
"853 697 OFFCURVE",
"853 669 CURVE SMOOTH",
"853 665 LINE SMOOTH",
"853 637 OFFCURVE",
"876 614 OFFCURVE",
"904 614 CURVE SMOOTH"
);
}
);
width = 1035;
}
);
leftKerningGroup = f;
leftMetricsKey = f;
note = f_f_i;
rightKerningGroup = i;
},
{
glyphname = f_f_l;
layers = (
{
layerId = "A99C00BB-606F-4263-964D-93C8B7F0BADD";
paths = (
{
closed = 1;
nodes = (
"188 -5 OFFCURVE",
"208 15 OFFCURVE",
"208 40 CURVE SMOOTH",
"208 432 LINE",
"511 432 LINE",
"511 40 LINE SMOOTH",
"511 15 OFFCURVE",
"531 -5 OFFCURVE",
"556 -5 CURVE SMOOTH",
"582 -5 OFFCURVE",
"602 15 OFFCURVE",
"602 40 CURVE SMOOTH",
"602 432 LINE",
"727 432 LINE SMOOTH",
"749 432 OFFCURVE",
"766 449 OFFCURVE",
"766 471 CURVE SMOOTH",
"766 493 OFFCURVE",
"749 510 OFFCURVE",
"727 510 CURVE SMOOTH",
"602 510 LINE",
"602 565 LINE SMOOTH",
"602 636 OFFCURVE",
"634 653 OFFCURVE",
"684 653 CURVE SMOOTH",
"703 653 OFFCURVE",
"718 647 OFFCURVE",
"734 647 CURVE SMOOTH",
"755 647 OFFCURVE",
"771 666 OFFCURVE",
"771 685 CURVE SMOOTH",
"771 701 OFFCURVE",
"760 714 OFFCURVE",
"748 720 CURVE SMOOTH",
"724 732 OFFCURVE",
"694 740 OFFCURVE",
"661 740 CURVE SMOOTH",
"590 740 OFFCURVE",
"511 694 OFFCURVE",
"511 568 CURVE SMOOTH",
"511 510 LINE",
"208 510 LINE",
"208 565 LINE SMOOTH",
"208 636 OFFCURVE",
"240 653 OFFCURVE",
"290 653 CURVE SMOOTH",
"309 653 OFFCURVE",
"324 647 OFFCURVE",
"340 647 CURVE SMOOTH",
"361 647 OFFCURVE",
"377 666 OFFCURVE",
"377 685 CURVE SMOOTH",
"377 701 OFFCURVE",
"366 714 OFFCURVE",
"354 720 CURVE SMOOTH",
"330 732 OFFCURVE",
"300 740 OFFCURVE",
"267 740 CURVE SMOOTH",
"196 740 OFFCURVE",
"117 694 OFFCURVE",
"117 568 CURVE SMOOTH",
"117 510 LINE",
"58 510 LINE SMOOTH",
"36 510 OFFCURVE",
"19 493 OFFCURVE",
"19 471 CURVE SMOOTH",
"19 449 OFFCURVE",
"36 432 OFFCURVE",
"58 432 CURVE SMOOTH",
"117 432 LINE",
"117 40 LINE SMOOTH",
"117 15 OFFCURVE",
"137 -5 OFFCURVE",
"162 -5 CURVE SMOOTH"
);
},
{
closed = 1;
nodes = (
"931 -5 OFFCURVE",
"951 15 OFFCURVE",
"951 40 CURVE SMOOTH",
"951 689 LINE SMOOTH",
"951 715 OFFCURVE",
"931 735 OFFCURVE",
"905 735 CURVE SMOOTH",
"880 735 OFFCURVE",
"860 715 OFFCURVE",
"860 689 CURVE SMOOTH",
"860 40 LINE SMOOTH",
"860 15 OFFCURVE",
"880 -5 OFFCURVE",
"905 -5 CURVE SMOOTH"
);
}
);
width = 1038;
}
);
leftKerningGroup = f;
leftMetricsKey = f;
note = f_f_l;
rightKerningGroup = l;
},
{
glyphname = f_j;
layers = (
{
layerId = "A99C00BB-606F-4263-964D-93C8B7F0BADD";
paths = (
{
closed = 1;
nodes = (
"523 -240 OFFCURVE",
"558 -180 OFFCURVE",
"558 -103 CURVE SMOOTH",
"558 464 LINE SMOOTH",
"558 489 OFFCURVE",
"540 508 OFFCURVE",
"515 510 CURVE",
"208 510 LINE",
"208 565 LINE SMOOTH",
"208 636 OFFCURVE",
"240 653 OFFCURVE",
"290 653 CURVE SMOOTH",
"309 653 OFFCURVE",
"324 647 OFFCURVE",
"340 647 CURVE SMOOTH",
"361 647 OFFCURVE",
"377 666 OFFCURVE",
"377 685 CURVE SMOOTH",
"377 701 OFFCURVE",
"366 714 OFFCURVE",
"354 720 CURVE SMOOTH",
"330 732 OFFCURVE",
"300 740 OFFCURVE",
"267 740 CURVE SMOOTH",
"196 740 OFFCURVE",
"117 694 OFFCURVE",
"117 568 CURVE SMOOTH",
"117 510 LINE",
"58 510 LINE SMOOTH",
"36 510 OFFCURVE",
"19 493 OFFCURVE",
"19 471 CURVE SMOOTH",
"19 449 OFFCURVE",
"36 432 OFFCURVE",
"58 432 CURVE SMOOTH",
"117 432 LINE",
"117 40 LINE SMOOTH",
"117 15 OFFCURVE",
"137 -5 OFFCURVE",
"162 -5 CURVE SMOOTH",
"188 -5 OFFCURVE",
"208 15 OFFCURVE",
"208 40 CURVE SMOOTH",
"208 432 LINE",
"467 432 LINE",
"467 -101 LINE SMOOTH",
"467 -155 OFFCURVE",
"441 -160 OFFCURVE",
"406 -160 CURVE SMOOTH",
"394 -160 OFFCURVE",
"385 -157 OFFCURVE",
"376 -157 CURVE SMOOTH",
"354 -157 OFFCURVE",
"338 -175 OFFCURVE",
"338 -195 CURVE SMOOTH",
"338 -212 OFFCURVE",
"348 -226 OFFCURVE",
"364 -231 CURVE SMOOTH",
"382 -237 OFFCURVE",
"403 -240 OFFCURVE",
"427 -240 CURVE SMOOTH"
);
},
{
closed = 1;
nodes = (
"516 614 LINE SMOOTH",
"544 614 OFFCURVE",
"567 637 OFFCURVE",
"567 665 CURVE SMOOTH",
"567 669 LINE SMOOTH",
"567 697 OFFCURVE",
"544 720 OFFCURVE",
"516 720 CURVE SMOOTH",
"510 720 LINE SMOOTH",
"482 720 OFFCURVE",
"459 697 OFFCURVE",
"459 669 CURVE SMOOTH",
"459 665 LINE SMOOTH",
"459 637 OFFCURVE",
"482 614 OFFCURVE",
"510 614 CURVE SMOOTH"
);
}
);
width = 641;
}
);
leftKerningGroup = f;
leftMetricsKey = f;
note = f_j;
rightKerningGroup = i;
},
{
glyphname = fi;
layers = (
{
layerId = "A99C00BB-606F-4263-964D-93C8B7F0BADD";
paths = (
{
closed = 1;
nodes = (
"188 -5 OFFCURVE",
"208 15 OFFCURVE",
"208 40 CURVE SMOOTH",
"208 432 LINE",
"467 432 LINE",
"467 40 LINE SMOOTH",
"467 15 OFFCURVE",
"487 -5 OFFCURVE",
"512 -5 CURVE SMOOTH",
"538 -5 OFFCURVE",
"558 15 OFFCURVE",
"558 40 CURVE SMOOTH",
"558 464 LINE SMOOTH",
"558 489 OFFCURVE",
"540 508 OFFCURVE",
"515 510 CURVE",
"208 510 LINE",
"208 565 LINE SMOOTH",
"208 636 OFFCURVE",
"240 653 OFFCURVE",
"290 653 CURVE SMOOTH",
"309 653 OFFCURVE",
"324 647 OFFCURVE",
"340 647 CURVE SMOOTH",
"361 647 OFFCURVE",
"377 666 OFFCURVE",
"377 685 CURVE SMOOTH",
"377 701 OFFCURVE",
"366 714 OFFCURVE",
"354 720 CURVE SMOOTH",
"330 732 OFFCURVE",
"300 740 OFFCURVE",
"267 740 CURVE SMOOTH",
"196 740 OFFCURVE",
"117 694 OFFCURVE",
"117 568 CURVE SMOOTH",
"117 510 LINE",
"58 510 LINE SMOOTH",
"36 510 OFFCURVE",
"19 493 OFFCURVE",
"19 471 CURVE SMOOTH",
"19 449 OFFCURVE",
"36 432 OFFCURVE",
"58 432 CURVE SMOOTH",
"117 432 LINE",
"117 40 LINE SMOOTH",
"117 15 OFFCURVE",
"137 -5 OFFCURVE",
"162 -5 CURVE SMOOTH"
);
},
{
closed = 1;
nodes = (
"516 614 LINE SMOOTH",
"544 614 OFFCURVE",
"567 637 OFFCURVE",
"567 665 CURVE SMOOTH",
"567 669 LINE SMOOTH",
"567 697 OFFCURVE",
"544 720 OFFCURVE",
"516 720 CURVE SMOOTH",
"510 720 LINE SMOOTH",
"482 720 OFFCURVE",
"459 697 OFFCURVE",
"459 669 CURVE SMOOTH",
"459 665 LINE SMOOTH",
"459 637 OFFCURVE",
"482 614 OFFCURVE",
"510 614 CURVE SMOOTH"
);
}
);
width = 641;
}
);
leftKerningGroup = f;
leftMetricsKey = f;
note = fi;
rightKerningGroup = i;
unicode = FB01;
},
{
glyphname = fl;
layers = (
{
layerId = "A99C00BB-606F-4263-964D-93C8B7F0BADD";
paths = (
{
closed = 1;
nodes = (
"188 -5 OFFCURVE",
"208 15 OFFCURVE",
"208 40 CURVE SMOOTH",
"208 432 LINE",
"333 432 LINE SMOOTH",
"355 432 OFFCURVE",
"372 449 OFFCURVE",
"372 471 CURVE SMOOTH",
"372 493 OFFCURVE",
"355 510 OFFCURVE",
"333 510 CURVE SMOOTH",
"208 510 LINE",
"208 565 LINE SMOOTH",
"208 636 OFFCURVE",
"240 653 OFFCURVE",
"290 653 CURVE SMOOTH",
"309 653 OFFCURVE",
"324 647 OFFCURVE",
"340 647 CURVE SMOOTH",
"361 647 OFFCURVE",
"377 666 OFFCURVE",
"377 685 CURVE SMOOTH",
"377 701 OFFCURVE",
"366 714 OFFCURVE",
"354 720 CURVE SMOOTH",
"330 732 OFFCURVE",
"300 740 OFFCURVE",
"267 740 CURVE SMOOTH",
"196 740 OFFCURVE",
"117 694 OFFCURVE",
"117 568 CURVE SMOOTH",
"117 510 LINE",
"58 510 LINE SMOOTH",
"36 510 OFFCURVE",
"19 493 OFFCURVE",
"19 471 CURVE SMOOTH",
"19 449 OFFCURVE",
"36 432 OFFCURVE",
"58 432 CURVE SMOOTH",
"117 432 LINE",
"117 40 LINE SMOOTH",
"117 15 OFFCURVE",
"137 -5 OFFCURVE",
"162 -5 CURVE SMOOTH"
);
},
{
closed = 1;
nodes = (
"537 -5 OFFCURVE",
"557 15 OFFCURVE",
"557 40 CURVE SMOOTH",
"557 689 LINE SMOOTH",
"557 715 OFFCURVE",
"537 735 OFFCURVE",
"511 735 CURVE SMOOTH",
"486 735 OFFCURVE",
"466 715 OFFCURVE",
"466 689 CURVE SMOOTH",
"466 40 LINE SMOOTH",
"466 15 OFFCURVE",
"486 -5 OFFCURVE",
"511 -5 CURVE SMOOTH"
);
}
);
width = 644;
}
);
leftKerningGroup = f;
leftMetricsKey = f;
note = fl;
rightKerningGroup = l;
unicode = FB02;
},
{
glyphname = s_t;
layers = (
{
layerId = "A99C00BB-606F-4263-964D-93C8B7F0BADD";
paths = (
{
closed = 1;
nodes = (
"375 -10 OFFCURVE",
"440 57 OFFCURVE",
"440 138 CURVE SMOOTH",
"440 334 OFFCURVE",
"139 263 OFFCURVE",
"139 367 CURVE SMOOTH",
"139 407 OFFCURVE",
"180 437 OFFCURVE",
"254 437 CURVE SMOOTH",
"298 437 OFFCURVE",
"336 429 OFFCURVE",
"368 419 CURVE",
"372 418 OFFCURVE",
"376 417 OFFCURVE",
"381 417 CURVE SMOOTH",
"404 417 OFFCURVE",
"421 436 OFFCURVE",
"421 457 CURVE SMOOTH",
"421 469 OFFCURVE",
"414 483 OFFCURVE",
"401 491 CURVE SMOOTH",
"369 511 OFFCURVE",
"345 543 OFFCURVE",
"345 594 CURVE SMOOTH",
"345 667 OFFCURVE",
"396 707 OFFCURVE",
"457 707 CURVE SMOOTH",
"544 707 OFFCURVE",
"570 647 OFFCURVE",
"570 594 CURVE SMOOTH",
"570 510 LINE",
"509 510 LINE SMOOTH",
"487 510 OFFCURVE",
"470 493 OFFCURVE",
"470 471 CURVE SMOOTH",
"470 449 OFFCURVE",
"487 432 OFFCURVE",
"509 432 CURVE SMOOTH",
"570 432 LINE",
"570 122 LINE SMOOTH",
"570 -2 OFFCURVE",
"669 -10 OFFCURVE",
"716 -10 CURVE SMOOTH",
"748 -10 OFFCURVE",
"775 -3 OFFCURVE",
"799 8 CURVE SMOOTH",
"813 15 OFFCURVE",
"822 26 OFFCURVE",
"822 43 CURVE SMOOTH",
"822 64 OFFCURVE",
"804 79 OFFCURVE",
"786 79 CURVE SMOOTH",
"769 79 OFFCURVE",
"758 70 OFFCURVE",
"726 70 CURVE SMOOTH",
"701 70 OFFCURVE",
"661 71 OFFCURVE",
"661 130 CURVE SMOOTH",
"661 432 LINE",
"774 432 LINE SMOOTH",
"796 432 OFFCURVE",
"813 449 OFFCURVE",
"813 471 CURVE SMOOTH",
"813 493 OFFCURVE",
"796 510 OFFCURVE",
"774 510 CURVE SMOOTH",
"661 510 LINE",
"661 584 LINE SMOOTH",
"661 684 OFFCURVE",
"597 774 OFFCURVE",
"479 774 CURVE SMOOTH",
"362 774 OFFCURVE",
"297 700 OFFCURVE",
"297 601 CURVE SMOOTH",
"297 565 OFFCURVE",
"307 536 OFFCURVE",
"323 513 CURVE",
"299 517 OFFCURVE",
"274 520 OFFCURVE",
"247 520 CURVE SMOOTH",
"117 520 OFFCURVE",
"52 452 OFFCURVE",
"52 362 CURVE SMOOTH",
"52 180 OFFCURVE",
"352 231 OFFCURVE",
"352 145 CURVE SMOOTH",
"352 100 OFFCURVE",
"318 74 OFFCURVE",
"241 74 CURVE SMOOTH",
"182 74 OFFCURVE",
"141 88 OFFCURVE",
"105 104 CURVE SMOOTH",
"98 107 OFFCURVE",
"93 108 OFFCURVE",
"87 108 CURVE SMOOTH",
"64 108 OFFCURVE",
"48 88 OFFCURVE",
"48 68 CURVE SMOOTH",
"48 54 OFFCURVE",
"55 42 OFFCURVE",
"65 35 CURVE",
"116 7 OFFCURVE",
"174 -10 OFFCURVE",
"247 -10 CURVE SMOOTH"
);
}
);
width = 842;
}
);
leftKerningGroup = s;
leftMetricsKey = s;
note = s_t;
rightKerningGroup = t;
rightMetricsKey = t;
},
{
glyphname = ordfeminine;
layers = (
{
layerId = "A99C00BB-606F-4263-964D-93C8B7F0BADD";
paths = (
{
closed = 1;
nodes = (
"258 339 OFFCURVE",
"297 363 OFFCURVE",
"318 387 CURVE",
"318 378 LINE SMOOTH",
"318 358 OFFCURVE",
"334 342 OFFCURVE",
"354 342 CURVE SMOOTH",
"374 342 OFFCURVE",
"390 358 OFFCURVE",
"390 378 CURVE SMOOTH",
"390 569 LINE SMOOTH",
"390 638 OFFCURVE",
"346 708 OFFCURVE",
"244 708 CURVE SMOOTH",
"197 708 OFFCURVE",
"157 697 OFFCURVE",
"123 684 CURVE SMOOTH",
"110 679 OFFCURVE",
"100 667 OFFCURVE",
"100 654 CURVE SMOOTH",
"100 637 OFFCURVE",
"114 622 OFFCURVE",
"132 622 CURVE SMOOTH",
"135 622 OFFCURVE",
"139 623 OFFCURVE",
"142 624 CURVE SMOOTH",
"167 633 OFFCURVE",
"197 640 OFFCURVE",
"233 640 CURVE SMOOTH",
"289 640 OFFCURVE",
"318 616 OFFCURVE",
"318 555 CURVE SMOOTH",
"318 553 LINE",
"242 553 LINE SMOOTH",
"133 553 OFFCURVE",
"81 512 OFFCURVE",
"81 446 CURVE SMOOTH",
"81 379 OFFCURVE",
"135 339 OFFCURVE",
"197 339 CURVE SMOOTH"
);
},
{
closed = 1;
nodes = (
"377 229 LINE SMOOTH",
"392 229 OFFCURVE",
"405 242 OFFCURVE",
"405 257 CURVE SMOOTH",
"405 272 OFFCURVE",
"392 285 OFFCURVE",
"377 285 CURVE SMOOTH",
"94 285 LINE SMOOTH",
"79 285 OFFCURVE",
"66 272 OFFCURVE",
"66 257 CURVE SMOOTH",
"66 242 OFFCURVE",
"79 229 OFFCURVE",
"94 229 CURVE SMOOTH"
);
},
{
closed = 1;
nodes = (
"169 404 OFFCURVE",
"153 426 OFFCURVE",
"153 452 CURVE SMOOTH",
"153 487 OFFCURVE",
"190 499 OFFCURVE",
"250 499 CURVE SMOOTH",
"318 499 LINE",
"318 451 LINE",
"295 426 OFFCURVE",
"259 404 OFFCURVE",
"220 404 CURVE SMOOTH"
);
}
);
width = 485;
}
);
note = ordfeminine;
unicode = 00AA;
},
{
glyphname = ordmasculine;
layers = (
{
layerId = "A99C00BB-606F-4263-964D-93C8B7F0BADD";
paths = (
{
closed = 1;
nodes = (
"365 339 OFFCURVE",
"435 414 OFFCURVE",
"435 524 CURVE SMOOTH",
"435 634 OFFCURVE",
"365 708 OFFCURVE",
"257 708 CURVE SMOOTH",
"149 708 OFFCURVE",
"79 634 OFFCURVE",
"79 524 CURVE SMOOTH",
"79 414 OFFCURVE",
"149 339 OFFCURVE",
"257 339 CURVE SMOOTH"
);
},
{
closed = 1;
nodes = (
"416 229 LINE SMOOTH",
"431 229 OFFCURVE",
"444 242 OFFCURVE",
"444 257 CURVE SMOOTH",
"444 272 OFFCURVE",
"431 285 OFFCURVE",
"416 285 CURVE SMOOTH",
"98 285 LINE SMOOTH",
"83 285 OFFCURVE",
"70 272 OFFCURVE",
"70 257 CURVE SMOOTH",
"70 242 OFFCURVE",
"83 229 OFFCURVE",
"98 229 CURVE SMOOTH"
);
},
{
closed = 1;
nodes = (
"208 403 OFFCURVE",
"151 437 OFFCURVE",
"151 525 CURVE SMOOTH",
"151 612 OFFCURVE",
"208 645 OFFCURVE",
"257 645 CURVE SMOOTH",
"305 645 OFFCURVE",
"363 612 OFFCURVE",
"363 525 CURVE SMOOTH",
"363 437 OFFCURVE",
"305 403 OFFCURVE",
"257 403 CURVE SMOOTH"
);
}
);
width = 514;
}
);
note = ordmasculine;
unicode = 00BA;
},
{
glyphname = Omega;
layers = (
{
layerId = "A99C00BB-606F-4263-964D-93C8B7F0BADD";
paths = (
{
closed = 1;
nodes = (
"278 0 LINE SMOOTH",
"303 0 OFFCURVE",
"325 21 OFFCURVE",
"325 46 CURVE SMOOTH",
"325 62 OFFCURVE",
"315 78 OFFCURVE",
"302 86 CURVE SMOOTH",
"243 120 OFFCURVE",
"151 194 OFFCURVE",
"151 358 CURVE SMOOTH",
"151 494 OFFCURVE",
"242 617 OFFCURVE",
"395 617 CURVE SMOOTH",
"548 617 OFFCURVE",
"639 494 OFFCURVE",
"639 358 CURVE SMOOTH",
"639 194 OFFCURVE",
"547 120 OFFCURVE",
"488 86 CURVE SMOOTH",
"475 78 OFFCURVE",
"465 62 OFFCURVE",
"465 46 CURVE SMOOTH",
"465 21 OFFCURVE",
"487 0 OFFCURVE",
"512 0 CURVE SMOOTH",
"697 0 LINE SMOOTH",
"719 0 OFFCURVE",
"736 17 OFFCURVE",
"736 39 CURVE SMOOTH",
"736 61 OFFCURVE",
"719 78 OFFCURVE",
"697 78 CURVE SMOOTH",
"596 78 LINE",
"658 129 OFFCURVE",
"721 217 OFFCURVE",
"721 369 CURVE SMOOTH",
"721 531 OFFCURVE",
"599 708 OFFCURVE",
"395 708 CURVE SMOOTH",
"191 708 OFFCURVE",
"69 531 OFFCURVE",
"69 369 CURVE SMOOTH",
"69 217 OFFCURVE",
"132 129 OFFCURVE",
"194 78 CURVE",
"93 78 LINE SMOOTH",
"71 78 OFFCURVE",
"54 61 OFFCURVE",
"54 39 CURVE SMOOTH",
"54 17 OFFCURVE",
"71 0 OFFCURVE",
"93 0 CURVE SMOOTH"
);
}
);
width = 790;
}
);
note = uni03A9;
unicode = 03A9;
},
{
glyphname = pi;
layers = (
{
layerId = "A99C00BB-606F-4263-964D-93C8B7F0BADD";
paths = (
{
closed = 1;
nodes = (
"172 -5 OFFCURVE",
"189 8 OFFCURVE",
"194 27 CURVE SMOOTH",
"233 166 OFFCURVE",
"250 294 OFFCURVE",
"254 431 CURVE",
"430 431 LINE",
"430 38 LINE SMOOTH",
"430 14 OFFCURVE",
"449 -5 OFFCURVE",
"473 -5 CURVE SMOOTH",
"497 -5 OFFCURVE",
"516 14 OFFCURVE",
"516 38 CURVE SMOOTH",
"516 431 LINE",
"576 431 LINE SMOOTH",
"598 431 OFFCURVE",
"616 448 OFFCURVE",
"616 470 CURVE SMOOTH",
"616 492 OFFCURVE",
"598 510 OFFCURVE",
"576 510 CURVE SMOOTH",
"146 510 LINE SMOOTH",
"96 510 OFFCURVE",
"61 499 OFFCURVE",
"37 487 CURVE SMOOTH",
"25 481 OFFCURVE",
"16 468 OFFCURVE",
"16 454 CURVE SMOOTH",
"16 435 OFFCURVE",
"34 418 OFFCURVE",
"53 418 CURVE SMOOTH",
"59 418 OFFCURVE",
"67 421 OFFCURVE",
"70 422 CURVE SMOOTH",
"93 429 OFFCURVE",
"114 431 OFFCURVE",
"146 431 CURVE SMOOTH",
"168 431 LINE",
"164 300 OFFCURVE",
"159 181 OFFCURVE",
"113 59 CURVE",
"110 52 OFFCURVE",
"108 44 OFFCURVE",
"108 38 CURVE SMOOTH",
"108 13 OFFCURVE",
"129 -5 OFFCURVE",
"152 -5 CURVE SMOOTH"
);
}
);
width = 634;
}
);
note = pi;
unicode = 03C0;
},
{
glyphname = "alef-hb";
layers = (
{
anchors = (
{
name = bottom;
position = "{329, 0}";
},
{
name = bottomleft;
position = "{20, 0}";
},
{
name = center;
position = "{288, 113}";
},
{
name = top;
position = "{329, 510}";
},
{
name = topleft;
position = "{-12, 510}";
}
);
layerId = "A99C00BB-606F-4263-964D-93C8B7F0BADD";
paths = (
{
closed = 1;
nodes = (
"603 22 OFFCURVE",
"607 51 OFFCURVE",
"591 70 CURVE SMOOTH",
"152 578 LINE SMOOTH",
"137 595 OFFCURVE",
"110 602 OFFCURVE",
"87 583 CURVE SMOOTH",
"69 567 OFFCURVE",
"68 538 OFFCURVE",
"83 521 CURVE SMOOTH",
"521 14 LINE SMOOTH",
"538 -5 OFFCURVE",
"567 -9 OFFCURVE",
"584 6 CURVE SMOOTH"
);
},
{
closed = 1;
nodes = (
"107 -8 OFFCURVE",
"140 -4 OFFCURVE",
"149 26 CURVE SMOOTH",
"266 408 LINE",
"185 437 LINE",
"65 56 LINE SMOOTH",
"58 34 OFFCURVE",
"65 10 OFFCURVE",
"86 1 CURVE SMOOTH"
);
},
{
closed = 1;
nodes = (
"595 527 LINE SMOOTH",
"606 549 OFFCURVE",
"602 576 OFFCURVE",
"577 588 CURVE SMOOTH",
"556 598 OFFCURVE",
"528 594 OFFCURVE",
"516 568 CURVE SMOOTH",
"366 246 LINE",
"442 206 LINE"
);
}
);
width = 658;
}
);
unicode = 05D0;
},
{
glyphname = "bet-hb";
layers = (
{
anchors = (
{
name = bottom;
position = "{319, 0}";
},
{
name = bottomleft;
position = "{17, 0}";
},
{
name = center;
position = "{231, 294}";
},
{
name = top;
position = "{319, 510}";
},
{
name = topleft;
position = "{-3, 510}";
}
);
layerId = "A99C00BB-606F-4263-964D-93C8B7F0BADD";
paths = (
{
closed = 1;
nodes = (
"522 46 LINE",
"522 377 LINE SMOOTH",
"522 532 OFFCURVE",
"462 596 OFFCURVE",
"297 596 CURVE SMOOTH",
"234 596 OFFCURVE",
"165 588 OFFCURVE",
"92 571 CURVE SMOOTH",
"69 566 OFFCURVE",
"53 546 OFFCURVE",
"56 525 CURVE SMOOTH",
"60 503 OFFCURVE",
"82 488 OFFCURVE",
"105 492 CURVE SMOOTH",
"180 506 OFFCURVE",
"235 516 OFFCURVE",
"293 516 CURVE SMOOTH",
"397 516 OFFCURVE",
"431 483 OFFCURVE",
"431 377 CURVE SMOOTH",
"431 46 LINE"
);
},
{
closed = 1;
nodes = (
"573 0 LINE SMOOTH",
"596 0 OFFCURVE",
"614 18 OFFCURVE",
"614 40 CURVE SMOOTH",
"614 62 OFFCURVE",
"596 80 OFFCURVE",
"573 80 CURVE SMOOTH",
"93 80 LINE SMOOTH",
"71 80 OFFCURVE",
"53 62 OFFCURVE",
"53 40 CURVE SMOOTH",
"53 18 OFFCURVE",
"71 0 OFFCURVE",
"93 0 CURVE SMOOTH"
);
}
);
width = 641;
}
);
unicode = 05D1;
},
{
glyphname = "gimel-hb";
layers = (
{
anchors = (
{
name = bottom;
position = "{204, 0}";
},
{
name = bottomleft;
position = "{20, 0}";
},
{
name = center;
position = "{110, 300}";
},
{
name = top;
position = "{204, 510}";
},
{
name = topleft;
position = "{10, 510}";
}
);
layerId = "A99C00BB-606F-4263-964D-93C8B7F0BADD";
paths = (
{
closed = 1;
nodes = (
"300 -5 OFFCURVE",
"321 16 OFFCURVE",
"321 41 CURVE SMOOTH",
"321 437 LINE SMOOTH",
"321 587 OFFCURVE",
"240 595 OFFCURVE",
"175 595 CURVE SMOOTH",
"148 595 OFFCURVE",
"110 586 OFFCURVE",
"89 575 CURVE SMOOTH",
"68 564 OFFCURVE",
"63 543 OFFCURVE",
"69 525 CURVE SMOOTH",
"76 505 OFFCURVE",
"97 498 OFFCURVE",
"111 504 CURVE SMOOTH",
"130 512 OFFCURVE",
"156 518 OFFCURVE",
"171 518 CURVE SMOOTH",
"209 518 OFFCURVE",
"230 507 OFFCURVE",
"230 444 CURVE SMOOTH",
"230 41 LINE SMOOTH",
"230 16 OFFCURVE",
"250 -5 OFFCURVE",
"275 -5 CURVE SMOOTH"
);
},
{
closed = 1;
nodes = (
"144 0 OFFCURVE",
"202 70 OFFCURVE",
"235 114 CURVE",
"235 206 LINE",
"194 136 OFFCURVE",
"138 91 OFFCURVE",
"58 83 CURVE SMOOTH",
"33 80 OFFCURVE",
"16 58 OFFCURVE",
"21 32 CURVE SMOOTH",
"26 8 OFFCURVE",
"49 -4 OFFCURVE",
"73 -3 CURVE SMOOTH"
);
}
);
width = 407;
}
);
unicode = 05D2;
},
{
glyphname = "dalet-hb";
layers = (
{
anchors = (
{
name = bottom;
position = "{373, -2}";
},
{
name = bottomleft;
position = "{14, 0}";
},
{
name = center;
position = "{164, 292}";
},
{
name = top;
position = "{291, 510}";
},
{
name = topleft;
position = "{-16, 510}";
}
);
layerId = "A99C00BB-606F-4263-964D-93C8B7F0BADD";
paths = (
{
closed = 1;
nodes = (
"398 -5 OFFCURVE",
"419 15 OFFCURVE",
"419 40 CURVE SMOOTH",
"419 345 LINE SMOOTH",
"419 413 OFFCURVE",
"428 470 OFFCURVE",
"455 510 CURVE",
"371 510 LINE",
"339 471 OFFCURVE",
"328 416 OFFCURVE",
"328 349 CURVE SMOOTH",
"328 40 LINE SMOOTH",
"328 15 OFFCURVE",
"348 -5 OFFCURVE",
"373 -5 CURVE SMOOTH"
);
},
{
closed = 1;
nodes = (
"500 510 LINE SMOOTH",
"523 510 OFFCURVE",
"541 528 OFFCURVE",
"541 550 CURVE SMOOTH",
"541 572 OFFCURVE",
"523 590 OFFCURVE",
"500 590 CURVE SMOOTH",
"68 590 LINE SMOOTH",
"46 590 OFFCURVE",
"28 572 OFFCURVE",
"28 550 CURVE SMOOTH",
"28 528 OFFCURVE",
"46 510 OFFCURVE",
"68 510 CURVE SMOOTH"
);
}
);
width = 587;
}
);
unicode = 05D3;
},
{
glyphname = "he-hb";
layers = (
{
anchors = (
{
name = bottom;
position = "{333, 0}";
},
{
name = bottomleft;
position = "{20, 0}";
},
{
name = center;
position = "{333, 289}";
},
{
name = top;
position = "{333, 510}";
},
{
name = topleft;
position = "{10, 510}";
}
);
layerId = "A99C00BB-606F-4263-964D-93C8B7F0BADD";
paths = (
{
closed = 1;
nodes = (
"560 -5 OFFCURVE",
"580 16 OFFCURVE",
"580 41 CURVE SMOOTH",
"580 377 LINE SMOOTH",
"580 532 OFFCURVE",
"510 594 OFFCURVE",
"325 594 CURVE SMOOTH",
"262 594 OFFCURVE",
"176 586 OFFCURVE",
"102 571 CURVE SMOOTH",
"79 566 OFFCURVE",
"63 546 OFFCURVE",
"66 525 CURVE SMOOTH",
"70 503 OFFCURVE",
"92 488 OFFCURVE",
"115 492 CURVE SMOOTH",
"190 506 OFFCURVE",
"263 514 OFFCURVE",
"321 514 CURVE SMOOTH",
"445 514 OFFCURVE",
"489 483 OFFCURVE",
"489 377 CURVE SMOOTH",
"489 41 LINE SMOOTH",
"489 16 OFFCURVE",
"510 -5 OFFCURVE",
"535 -5 CURVE SMOOTH"
);
},
{
closed = 1;
nodes = (
"165 -5 OFFCURVE",
"185 16 OFFCURVE",
"185 41 CURVE SMOOTH",
"185 310 LINE SMOOTH",
"185 335 OFFCURVE",
"164 356 OFFCURVE",
"139 356 CURVE SMOOTH",
"114 356 OFFCURVE",
"94 335 OFFCURVE",
"94 310 CURVE SMOOTH",
"94 41 LINE SMOOTH",
"94 16 OFFCURVE",
"115 -5 OFFCURVE",
"140 -5 CURVE SMOOTH"
);
}
);
width = 660;
}
);
unicode = 05D4;
},
{
glyphname = "vav-hb";
layers = (
{
anchors = (
{
name = bottom;
position = "{134, -2}";
},
{
name = bottomleft;
position = "{20, 0}";
},
{
name = center;
position = "{10, 306}";
},
{
name = top;
position = "{134, 510}";
},
{
name = topleft;
position = "{132, 510}";
}
);
layerId = "A99C00BB-606F-4263-964D-93C8B7F0BADD";
paths = (
{
closed = 1;
nodes = (
"159 -5 OFFCURVE",
"179 16 OFFCURVE",
"179 41 CURVE SMOOTH",
"179 548 LINE SMOOTH",
"179 573 OFFCURVE",
"158 594 OFFCURVE",
"133 594 CURVE SMOOTH",
"108 594 OFFCURVE",
"88 573 OFFCURVE",
"88 548 CURVE SMOOTH",
"88 41 LINE SMOOTH",
"88 16 OFFCURVE",
"109 -5 OFFCURVE",
"134 -5 CURVE SMOOTH"
);
}
);
width = 267;
}
);
rightMetricsKey = "=|";
unicode = 05D5;
},
{
glyphname = "zayin-hb";
layers = (
{
anchors = (
{
name = bottom;
position = "{196, 0}";
},
{
name = bottomleft;
position = "{20, 0}";
},
{
name = center;
position = "{47, 296}";
},
{
name = top;
position = "{208, 510}";
},
{
name = topleft;
position = "{-10, 510}";
}
);
layerId = "A99C00BB-606F-4263-964D-93C8B7F0BADD";
paths = (
{
closed = 1;
nodes = (
"221 -5 OFFCURVE",
"242 15 OFFCURVE",
"242 40 CURVE SMOOTH",
"242 345 LINE SMOOTH",
"242 413 OFFCURVE",
"251 470 OFFCURVE",
"278 510 CURVE",
"194 510 LINE",
"162 471 OFFCURVE",
"151 416 OFFCURVE",
"151 349 CURVE SMOOTH",
"151 40 LINE SMOOTH",
"151 15 OFFCURVE",
"171 -5 OFFCURVE",
"196 -5 CURVE SMOOTH"
);
},
{
closed = 1;
nodes = (
"349 510 LINE SMOOTH",
"372 510 OFFCURVE",
"390 528 OFFCURVE",
"390 550 CURVE SMOOTH",
"390 572 OFFCURVE",
"372 590 OFFCURVE",
"349 590 CURVE SMOOTH",
"87 590 LINE SMOOTH",
"65 590 OFFCURVE",
"47 572 OFFCURVE",
"47 550 CURVE SMOOTH",
"47 528 OFFCURVE",
"65 510 OFFCURVE",
"87 510 CURVE SMOOTH"
);
}
);
width = 416;
}
);
unicode = 05D6;
},
{
glyphname = "het-hb";
layers = (
{
anchors = (
{
name = bottom;
position = "{342, 0}";
},
{
name = bottomleft;
position = "{20, 0}";
},
{
name = center;
position = "{342, 285}";
},
{
name = top;
position = "{342, 510}";
},
{
name = topleft;
position = "{0, 510}";
}
);
layerId = "A99C00BB-606F-4263-964D-93C8B7F0BADD";
paths = (
{
closed = 1;
nodes = (
"579 -5 OFFCURVE",
"599 16 OFFCURVE",
"599 41 CURVE SMOOTH",
"599 377 LINE SMOOTH",
"599 536 OFFCURVE",
"519 590 OFFCURVE",
"401 590 CURVE SMOOTH",
"110 590 LINE SMOOTH",
"86 590 OFFCURVE",
"67 572 OFFCURVE",
"67 550 CURVE SMOOTH",
"67 528 OFFCURVE",
"86 510 OFFCURVE",
"110 510 CURVE SMOOTH",
"401 510 LINE SMOOTH",
"462 510 OFFCURVE",
"508 486 OFFCURVE",
"508 377 CURVE SMOOTH",
"508 41 LINE SMOOTH",
"508 16 OFFCURVE",
"529 -5 OFFCURVE",
"554 -5 CURVE SMOOTH"
);
},
{
closed = 1;
nodes = (
"183 -5 OFFCURVE",
"203 15 OFFCURVE",
"203 41 CURVE SMOOTH",
"203 340 LINE SMOOTH",
"203 409 OFFCURVE",
"208 470 OFFCURVE",
"240 517 CURVE",
"161 517 LINE",
"127 477 OFFCURVE",
"112 404 OFFCURVE",
"112 345 CURVE SMOOTH",
"112 41 LINE SMOOTH",
"112 15 OFFCURVE",
"133 -5 OFFCURVE",
"158 -5 CURVE SMOOTH"
);
}
);
width = 683;
}
);
unicode = 05D7;
},
{
glyphname = "tet-hb";
layers = (
{
anchors = (
{
name = bottom;
position = "{348, 0}";
},
{
name = bottomleft;
position = "{20, 0}";
},
{
name = center;
position = "{348, 255}";
},
{
name = top;
position = "{348, 510}";
},
{
name = topleft;
position = "{0, 510}";
}
);
layerId = "A99C00BB-606F-4263-964D-93C8B7F0BADD";
paths = (
{
closed = 1;
nodes = (
"534 -5 OFFCURVE",
"627 85 OFFCURVE",
"627 244 CURVE SMOOTH",
"627 435 LINE SMOOTH",
"627 576 OFFCURVE",
"546 595 OFFCURVE",
"471 595 CURVE SMOOTH",
"404 595 OFFCURVE",
"317 548 OFFCURVE",
"296 460 CURVE SMOOTH",
"290 436 OFFCURVE",
"299 414 OFFCURVE",
"319 407 CURVE SMOOTH",
"343 399 OFFCURVE",
"363 410 OFFCURVE",
"371 431 CURVE SMOOTH",
"393 490 OFFCURVE",
"433 515 OFFCURVE",
"468 515 CURVE SMOOTH",
"516 515 OFFCURVE",
"536 494 OFFCURVE",
"536 441 CURVE SMOOTH",
"536 244 LINE SMOOTH",
"536 129 OFFCURVE",
"467 75 OFFCURVE",
"361 75 CURVE SMOOTH",
"243 75 OFFCURVE",
"168 129 OFFCURVE",
"168 244 CURVE SMOOTH",
"168 550 LINE SMOOTH",
"168 575 OFFCURVE",
"147 596 OFFCURVE",
"122 596 CURVE SMOOTH",
"97 596 OFFCURVE",
"77 575 OFFCURVE",
"77 550 CURVE SMOOTH",
"77 244 LINE SMOOTH",
"77 85 OFFCURVE",
"186 -5 OFFCURVE",
"361 -5 CURVE SMOOTH"
);
}
);
width = 696;
}
);
unicode = 05D8;
},
{
glyphname = "yod-hb";
layers = (
{
anchors = (
{
name = bottom;
position = "{128, 0}";
},
{
name = bottomleft;
position = "{18, 0}";
},
{
name = center;
position = "{1, 374}";
},
{
name = top;
position = "{128, 510}";
},
{
name = topleft;
position = "{-2, 510}";
}
);
layerId = "A99C00BB-606F-4263-964D-93C8B7F0BADD";
paths = (
{
closed = 1;
nodes = (
"153 237 OFFCURVE",
"173 258 OFFCURVE",
"173 283 CURVE SMOOTH",
"173 548 LINE SMOOTH",
"173 573 OFFCURVE",
"152 594 OFFCURVE",
"127 594 CURVE SMOOTH",
"102 594 OFFCURVE",
"82 573 OFFCURVE",
"82 548 CURVE SMOOTH",
"82 283 LINE SMOOTH",
"82 258 OFFCURVE",
"103 237 OFFCURVE",
"128 237 CURVE SMOOTH"
);
}
);
width = 255;
}
);
unicode = 05D9;
},
{
glyphname = "finalkaf-hb";
layers = (
{
anchors = (
{
name = bottom;
position = "{161, 295}";
},
{
name = bottomleft;
position = "{20, 0}";
},
{
name = center;
position = "{170, 295}";
},
{
name = top;
position = "{266, 510}";
},
{
name = topleft;
position = "{20, 510}";
}
);
layerId = "A99C00BB-606F-4263-964D-93C8B7F0BADD";
paths = (
{
closed = 1;
nodes = (
"432 -193 OFFCURVE",
"452 -172 OFFCURVE",
"452 -147 CURVE SMOOTH",
"452 377 LINE SMOOTH",
"452 536 OFFCURVE",
"372 590 OFFCURVE",
"254 590 CURVE SMOOTH",
"77 590 LINE SMOOTH",
"53 590 OFFCURVE",
"34 572 OFFCURVE",
"34 550 CURVE SMOOTH",
"34 528 OFFCURVE",
"53 510 OFFCURVE",
"77 510 CURVE SMOOTH",
"254 510 LINE SMOOTH",
"315 510 OFFCURVE",
"361 486 OFFCURVE",
"361 377 CURVE SMOOTH",
"361 -147 LINE SMOOTH",
"361 -172 OFFCURVE",
"382 -193 OFFCURVE",
"407 -193 CURVE SMOOTH"
);
}
);
width = 529;
}
);
unicode = 05DA;
},
{
glyphname = "kaf-hb";
layers = (
{
anchors = (
{
name = bottom;
position = "{262, 0}";
},
{
name = bottomleft;
position = "{12, 0}";
},
{
name = center;
position = "{184, 305}";
},
{
name = top;
position = "{282, 510}";
},
{
name = topleft;
position = "{-18, 510}";
}
);
layerId = "A99C00BB-606F-4263-964D-93C8B7F0BADD";
paths = (
{
closed = 1;
nodes = (
"511 295 LINE",
"511 501 OFFCURVE",
"429 590 OFFCURVE",
"263 590 CURVE SMOOTH",
"90 590 LINE SMOOTH",
"66 590 OFFCURVE",
"47 572 OFFCURVE",
"47 550 CURVE SMOOTH",
"47 528 OFFCURVE",
"66 510 OFFCURVE",
"90 510 CURVE SMOOTH",
"263 510 LINE SMOOTH",
"365 510 OFFCURVE",
"420 445 OFFCURVE",
"420 295 CURVE"
);
},
{
closed = 1;
nodes = (
"263 0 LINE SMOOTH",
"429 0 OFFCURVE",
"511 89 OFFCURVE",
"511 295 CURVE",
"420 295 LINE",
"420 145 OFFCURVE",
"365 80 OFFCURVE",
"263 80 CURVE SMOOTH",
"90 80 LINE SMOOTH",
"66 80 OFFCURVE",
"47 62 OFFCURVE",
"47 40 CURVE SMOOTH",
"47 18 OFFCURVE",
"66 0 OFFCURVE",
"90 0 CURVE SMOOTH"
);
}
);
width = 572;
}
);
unicode = 05DB;
},
{
glyphname = "lamed-hb";
layers = (
{
anchors = (
{
name = bottom;
position = "{215, -6}";
},
{
name = bottomleft;
position = "{20, 0}";
},
{
name = center;
position = "{141, 326}";
},
{
name = top;
position = "{270, 510}";
},
{
name = topleft;
position = "{-51, 510}";
}
);
layerId = "A99C00BB-606F-4263-964D-93C8B7F0BADD";
paths = (
{
closed = 1;
nodes = (
"216 -9 OFFCURVE",
"242 1 OFFCURVE",
"253 23 CURVE SMOOTH",
"478 487 LINE SMOOTH",
"505 543 OFFCURVE",
"474 590 OFFCURVE",
"430 590 CURVE SMOOTH",
"132 590 LINE",
"132 688 LINE SMOOTH",
"132 713 OFFCURVE",
"111 734 OFFCURVE",
"88 734 CURVE SMOOTH",
"65 734 OFFCURVE",
"45 713 OFFCURVE",
"45 688 CURVE SMOOTH",
"45 553 LINE SMOOTH",
"45 523 OFFCURVE",
"58 510 OFFCURVE",
"90 510 CURVE SMOOTH",
"394 510 LINE",
"174 65 LINE SMOOTH",
"163 42 OFFCURVE",
"171 14 OFFCURVE",
"193 3 CURVE SMOOTH"
);
}
);
width = 540;
}
);
unicode = 05DC;
},
{
glyphname = "finalmem-hb";
layers = (
{
anchors = (
{
name = bottom;
position = "{347, 0}";
},
{
name = bottomleft;
position = "{20, 0}";
},
{
name = center;
position = "{347, 255}";
},
{
name = top;
position = "{347, 510}";
},
{
name = topleft;
position = "{20, 510}";
}
);
layerId = "A99C00BB-606F-4263-964D-93C8B7F0BADD";
paths = (
{
closed = 1;
nodes = (
"569 0 LINE SMOOTH",
"592 0 OFFCURVE",
"610 18 OFFCURVE",
"610 40 CURVE SMOOTH",
"610 377 LINE SMOOTH",
"610 536 OFFCURVE",
"530 590 OFFCURVE",
"412 590 CURVE SMOOTH",
"104 590 LINE SMOOTH",
"80 590 OFFCURVE",
"61 572 OFFCURVE",
"61 550 CURVE SMOOTH",
"61 528 OFFCURVE",
"80 510 OFFCURVE",
"104 510 CURVE SMOOTH",
"412 510 LINE SMOOTH",
"473 510 OFFCURVE",
"519 486 OFFCURVE",
"519 377 CURVE SMOOTH",
"519 80 LINE",
"191 80 LINE",
"191 325 LINE SMOOTH",
"191 404 OFFCURVE",
"200 474 OFFCURVE",
"233 516 CURVE",
"152 516 LINE",
"113 480 OFFCURVE",
"100 380 OFFCURVE",
"100 325 CURVE SMOOTH",
"100 40 LINE SMOOTH",
"100 18 OFFCURVE",
"118 0 OFFCURVE",
"140 0 CURVE SMOOTH"
);
}
);
width = 690;
}
);
unicode = 05DD;
},
{
glyphname = "mem-hb";
layers = (
{
anchors = (
{
name = bottom;
position = "{347, 0}";
},
{
name = bottomleft;
position = "{20, 0}";
},
{
name = center;
position = "{357, 275}";
},
{
name = top;
position = "{347, 510}";
},
{
name = topleft;
position = "{20, 510}";
}
);
layerId = "A99C00BB-606F-4263-964D-93C8B7F0BADD";
paths = (
{
closed = 1;
nodes = (
"158 -5 OFFCURVE",
"179 15 OFFCURVE",
"179 40 CURVE SMOOTH",
"179 415 LINE",
"224 463 OFFCURVE",
"320 514 OFFCURVE",
"399 514 CURVE SMOOTH",
"493 514 OFFCURVE",
"523 475 OFFCURVE",
"523 349 CURVE SMOOTH",
"523 80 LINE",
"348 80 LINE SMOOTH",
"326 80 OFFCURVE",
"308 62 OFFCURVE",
"308 40 CURVE SMOOTH",
"308 18 OFFCURVE",
"326 0 OFFCURVE",
"348 0 CURVE SMOOTH",
"573 0 LINE SMOOTH",
"599 0 OFFCURVE",
"614 14 OFFCURVE",
"614 40 CURVE SMOOTH",
"614 359 LINE SMOOTH",
"614 516 OFFCURVE",
"545 596 OFFCURVE",
"415 596 CURVE SMOOTH",
"323 596 OFFCURVE",
"226 547 OFFCURVE",
"179 503 CURVE",
"179 549 LINE SMOOTH",
"179 575 OFFCURVE",
"158 595 OFFCURVE",
"133 595 CURVE SMOOTH",
"108 595 OFFCURVE",
"88 575 OFFCURVE",
"88 549 CURVE SMOOTH",
"88 40 LINE SMOOTH",
"88 15 OFFCURVE",
"108 -5 OFFCURVE",
"133 -5 CURVE SMOOTH"
);
}
);
width = 694;
}
);
unicode = 05DE;
},
{
glyphname = "finalnun-hb";
layers = (
{
anchors = (
{
name = bottom;
position = "{135, 0}";
},
{
name = bottomleft;
position = "{20, 0}";
},
{
name = center;
position = "{135, 255}";
},
{
name = top;
position = "{135, 510}";
},
{
name = topleft;
position = "{20, 510}";
}
);
layerId = "A99C00BB-606F-4263-964D-93C8B7F0BADD";
paths = (
{
closed = 1;
nodes = (
"160 -193 OFFCURVE",
"180 -172 OFFCURVE",
"180 -147 CURVE SMOOTH",
"180 548 LINE SMOOTH",
"180 573 OFFCURVE",
"159 594 OFFCURVE",
"134 594 CURVE SMOOTH",
"109 594 OFFCURVE",
"89 573 OFFCURVE",
"89 548 CURVE SMOOTH",
"89 -147 LINE SMOOTH",
"89 -172 OFFCURVE",
"110 -193 OFFCURVE",
"135 -193 CURVE SMOOTH"
);
}
);
width = 269;
}
);
unicode = 05DF;
},
{
glyphname = "nun-hb";
layers = (
{
anchors = (
{
name = bottom;
position = "{158, 0}";
},
{
name = bottomleft;
position = "{20, 0}";
},
{
name = center;
position = "{62, 321}";
},
{
name = top;
position = "{178, 510}";
},
{
name = topleft;
position = "{-10, 510}";
}
);
layerId = "A99C00BB-606F-4263-964D-93C8B7F0BADD";
paths = (
{
closed = 1;
nodes = (
"103 0 LINE SMOOTH",
"226 0 OFFCURVE",
"271 55 OFFCURVE",
"271 203 CURVE SMOOTH",
"271 537 LINE SMOOTH",
"271 567 OFFCURVE",
"245 590 OFFCURVE",
"211 590 CURVE SMOOTH",
"105 590 LINE SMOOTH",
"81 590 OFFCURVE",
"62 572 OFFCURVE",
"62 550 CURVE SMOOTH",
"62 528 OFFCURVE",
"81 510 OFFCURVE",
"105 510 CURVE SMOOTH",
"180 510 LINE",
"180 203 LINE SMOOTH",
"180 113 OFFCURVE",
"159 80 OFFCURVE",
"103 80 CURVE SMOOTH",
"57 80 LINE SMOOTH",
"33 80 OFFCURVE",
"14 62 OFFCURVE",
"14 40 CURVE SMOOTH",
"14 18 OFFCURVE",
"33 0 OFFCURVE",
"57 0 CURVE SMOOTH"
);
}
);
width = 352;
}
);
unicode = 05E0;
},
{
glyphname = "samekh-hb";
layers = (
{
anchors = (
{
name = bottom;
position = "{331, -10}";
},
{
name = bottomleft;
position = "{20, 0}";
},
{
name = center;
position = "{355, 291}";
},
{
name = top;
position = "{331, 510}";
},
{
name = topleft;
position = "{10, 510}";
}
);
layerId = "A99C00BB-606F-4263-964D-93C8B7F0BADD";
paths = (
{
closed = 1;
nodes = (
"527 -10 OFFCURVE",
"612 111 OFFCURVE",
"612 290 CURVE SMOOTH",
"612 469 OFFCURVE",
"547 590 OFFCURVE",
"366 590 CURVE SMOOTH",
"90 590 LINE SMOOTH",
"68 590 OFFCURVE",
"50 572 OFFCURVE",
"50 550 CURVE SMOOTH",
"50 528 OFFCURVE",
"68 510 OFFCURVE",
"90 510 CURVE SMOOTH",
"366 510 LINE SMOOTH",
"489 510 OFFCURVE",
"522 431 OFFCURVE",
"522 290 CURVE SMOOTH",
"522 149 OFFCURVE",
"469 69 OFFCURVE",
"346 69 CURVE SMOOTH",
"223 69 OFFCURVE",
"172 149 OFFCURVE",
"172 290 CURVE SMOOTH",
"172 367 OFFCURVE",
"186 463 OFFCURVE",
"223 523 CURVE",
"167 572 LINE",
"112 502 OFFCURVE",
"82 384 OFFCURVE",
"82 290 CURVE SMOOTH",
"82 111 OFFCURVE",
"164 -10 OFFCURVE",
"346 -10 CURVE SMOOTH"
);
}
);
width = 664;
}
);
unicode = 05E1;
},
{
glyphname = "ayin-hb";
layers = (
{
anchors = (
{
name = bottom;
position = "{286, 0}";
},
{
name = bottomleft;
position = "{20, 0}";
},
{
name = center;
position = "{286, 395}";
},
{
name = top;
position = "{286, 510}";
},
{
name = topleft;
position = "{-20, 510}";
}
);
layerId = "A99C00BB-606F-4263-964D-93C8B7F0BADD";
paths = (
{
closed = 1;
nodes = (
"305 15 LINE SMOOTH",
"450 64 OFFCURVE",
"503 169 OFFCURVE",
"503 364 CURVE SMOOTH",
"503 549 LINE SMOOTH",
"503 574 OFFCURVE",
"483 595 OFFCURVE",
"458 595 CURVE SMOOTH",
"433 595 OFFCURVE",
"412 574 OFFCURVE",
"412 549 CURVE SMOOTH",
"412 364 LINE SMOOTH",
"412 208 OFFCURVE",
"380 124 OFFCURVE",
"294 95 CURVE SMOOTH",
"52 14 LINE SMOOTH",
"30 7 OFFCURVE",
"18 -17 OFFCURVE",
"26 -38 CURVE SMOOTH",
"32 -59 OFFCURVE",
"57 -70 OFFCURVE",
"79 -62 CURVE SMOOTH"
);
},
{
closed = 1;
nodes = (
"284 61 LINE",
"147 561 LINE SMOOTH",
"140 585 OFFCURVE",
"114 599 OFFCURVE",
"91 592 CURVE SMOOTH",
"67 585 OFFCURVE",
"51 561 OFFCURVE",
"58 537 CURVE SMOOTH",
"196 38 LINE"
);
}
);
width = 572;
}
);
unicode = 05E2;
},
{
glyphname = "finalpe-hb";
layers = (
{
anchors = (
{
name = bottom;
position = "{303, 0}";
},
{
name = bottomleft;
position = "{20, 0}";
},
{
name = center;
position = "{303, 379}";
},
{
name = top;
position = "{303, 510}";
},
{
name = topleft;
position = "{20, 510}";
}
);
layerId = "A99C00BB-606F-4263-964D-93C8B7F0BADD";
paths = (
{
closed = 1;
nodes = (
"526 -193 OFFCURVE",
"546 -172 OFFCURVE",
"546 -147 CURVE SMOOTH",
"546 290 LINE SMOOTH",
"546 479 OFFCURVE",
"468 596 OFFCURVE",
"286 596 CURVE SMOOTH",
"125 596 OFFCURVE",
"32 503 OFFCURVE",
"32 367 CURVE SMOOTH",
"32 191 OFFCURVE",
"163 179 OFFCURVE",
"210 179 CURVE SMOOTH",
"242 179 OFFCURVE",
"271 188 OFFCURVE",
"294 201 CURVE SMOOTH",
"308 208 OFFCURVE",
"316 220 OFFCURVE",
"315 237 CURVE SMOOTH",
"314 258 OFFCURVE",
"295 272 OFFCURVE",
"277 271 CURVE SMOOTH",
"260 270 OFFCURVE",
"252 257 OFFCURVE",
"220 257 CURVE SMOOTH",
"195 257 OFFCURVE",
"123 260 OFFCURVE",
"123 375 CURVE SMOOTH",
"123 463 OFFCURVE",
"184 517 OFFCURVE",
"286 517 CURVE SMOOTH",
"406 517 OFFCURVE",
"455 446 OFFCURVE",
"455 290 CURVE SMOOTH",
"455 -147 LINE SMOOTH",
"455 -172 OFFCURVE",
"476 -193 OFFCURVE",
"501 -193 CURVE SMOOTH"
);
}
);
width = 609;
}
);
unicode = 05E3;
},
{
glyphname = "pe-hb";
layers = (
{
anchors = (
{
name = bottom;
position = "{302, -3}";
},
{
name = bottomleft;
position = "{20, 0}";
},
{
name = center;
position = "{333, 401}";
},
{
name = top;
position = "{314, 510}";
},
{
name = topleft;
position = "{20, 510}";
}
);
layerId = "A99C00BB-606F-4263-964D-93C8B7F0BADD";
paths = (
{
closed = 1;
nodes = (
"471 -11 OFFCURVE",
"577 95 OFFCURVE",
"577 300 CURVE SMOOTH",
"577 479 OFFCURVE",
"479 596 OFFCURVE",
"297 596 CURVE SMOOTH",
"136 596 OFFCURVE",
"48 514 OFFCURVE",
"48 385 CURVE SMOOTH",
"48 228 OFFCURVE",
"174 216 OFFCURVE",
"221 216 CURVE SMOOTH",
"267 216 OFFCURVE",
"332 230 OFFCURVE",
"332 275 CURVE SMOOTH",
"332 297 OFFCURVE",
"317 308 OFFCURVE",
"300 308 CURVE SMOOTH",
"284 308 OFFCURVE",
"254 294 OFFCURVE",
"231 294 CURVE SMOOTH",
"206 294 OFFCURVE",
"138 298 OFFCURVE",
"138 393 CURVE SMOOTH",
"138 472 OFFCURVE",
"200 517 OFFCURVE",
"297 517 CURVE SMOOTH",
"421 517 OFFCURVE",
"487 441 OFFCURVE",
"487 300 CURVE SMOOTH",
"487 139 OFFCURVE",
"421 68 OFFCURVE",
"262 68 CURVE SMOOTH",
"219 68 OFFCURVE",
"184 75 OFFCURVE",
"143 83 CURVE SMOOTH",
"121 87 OFFCURVE",
"101 73 OFFCURVE",
"97 50 CURVE SMOOTH",
"93 28 OFFCURVE",
"107 9 OFFCURVE",
"128 4 CURVE SMOOTH",
"167 -6 OFFCURVE",
"212 -11 OFFCURVE",
"262 -11 CURVE SMOOTH"
);
}
);
width = 628;
}
);
unicode = 05E4;
},
{
glyphname = "finaltsadi-hb";
layers = (
{
anchors = (
{
name = bottom;
position = "{264, 0}";
},
{
name = bottomleft;
position = "{20, 0}";
},
{
name = center;
position = "{264, 255}";
},
{
name = top;
position = "{264, 510}";
},
{
name = topleft;
position = "{-10, 510}";
}
);
layerId = "A99C00BB-606F-4263-964D-93C8B7F0BADD";
paths = (
{
closed = 1;
nodes = (
"409 -183 OFFCURVE",
"422 -157 OFFCURVE",
"413 -134 CURVE SMOOTH",
"123 564 LINE SMOOTH",
"114 585 OFFCURVE",
"91 600 OFFCURVE",
"63 590 CURVE SMOOTH",
"41 581 OFFCURVE",
"31 552 OFFCURVE",
"39 533 CURVE SMOOTH",
"329 -165 LINE SMOOTH",
"338 -188 OFFCURVE",
"365 -201 OFFCURVE",
"386 -192 CURVE SMOOTH"
);
},
{
closed = 1;
nodes = (
"476 527 LINE SMOOTH",
"486 549 OFFCURVE",
"483 576 OFFCURVE",
"458 588 CURVE SMOOTH",
"437 598 OFFCURVE",
"409 594 OFFCURVE",
"397 568 CURVE SMOOTH",
"217 181 LINE",
"292 142 LINE"
);
}
);
width = 526;
}
);
unicode = 05E5;
},
{
glyphname = "tsadi-hb";
layers = (
{
anchors = (
{
name = bottom;
position = "{304, 0}";
},
{
name = bottomleft;
position = "{20, 0}";
},
{
name = center;
position = "{111, 201}";
},
{
name = top;
position = "{307, 510}";
},
{
name = topleft;
position = "{0, 510}";
}
);
layerId = "A99C00BB-606F-4263-964D-93C8B7F0BADD";
paths = (
{
closed = 1;
nodes = (
"490 0 LINE SMOOTH",
"519 0 OFFCURVE",
"539 5 OFFCURVE",
"548 22 CURVE SMOOTH",
"557 38 OFFCURVE",
"554 57 OFFCURVE",
"536 79 CURVE SMOOTH",
"121 578 LINE SMOOTH",
"105 598 OFFCURVE",
"77 602 OFFCURVE",
"58 587 CURVE SMOOTH",
"38 571 OFFCURVE",
"33 543 OFFCURVE",
"49 524 CURVE SMOOTH",
"449 45 LINE",
"466 80 LINE",
"93 80 LINE SMOOTH",
"71 80 OFFCURVE",
"53 62 OFFCURVE",
"53 40 CURVE SMOOTH",
"53 18 OFFCURVE",
"71 0 OFFCURVE",
"93 0 CURVE SMOOTH"
);
},
{
closed = 1;
nodes = (
"542 528 LINE SMOOTH",
"548 541 OFFCURVE",
"549 556 OFFCURVE",
"542 570 CURVE SMOOTH",
"528 593 OFFCURVE",
"501 600 OFFCURVE",
"481 588 CURVE SMOOTH",
"472 584 OFFCURVE",
"466 576 OFFCURVE",
"462 568 CURVE SMOOTH",
"318 239 LINE",
"395 201 LINE"
);
}
);
width = 613;
}
);
unicode = 05E6;
},
{
glyphname = "qof-hb";
layers = (
{
anchors = (
{
name = bottom;
position = "{379, 0}";
},
{
name = bottomleft;
position = "{20, 0}";
},
{
name = center;
position = "{311, 270}";
},
{
name = top;
position = "{317, 510}";
},
{
name = topleft;
position = "{0, 510}";
}
);
layerId = "A99C00BB-606F-4263-964D-93C8B7F0BADD";
paths = (
{
closed = 1;
nodes = (
"468 -3 OFFCURVE",
"554 54 OFFCURVE",
"554 213 CURVE SMOOTH",
"554 537 LINE SMOOTH",
"554 567 OFFCURVE",
"528 590 OFFCURVE",
"494 590 CURVE SMOOTH",
"100 590 LINE SMOOTH",
"76 590 OFFCURVE",
"57 572 OFFCURVE",
"57 550 CURVE SMOOTH",
"57 528 OFFCURVE",
"76 510 OFFCURVE",
"100 510 CURVE SMOOTH",
"463 510 LINE",
"463 213 LINE SMOOTH",
"463 104 OFFCURVE",
"411 77 OFFCURVE",
"356 77 CURVE SMOOTH",
"327 77 OFFCURVE",
"314 80 OFFCURVE",
"294 84 CURVE SMOOTH",
"270 89 OFFCURVE",
"249 71 OFFCURVE",
"247 49 CURVE SMOOTH",
"245 27 OFFCURVE",
"259 9 OFFCURVE",
"283 4 CURVE SMOOTH",
"303 0 OFFCURVE",
"327 -3 OFFCURVE",
"356 -3 CURVE SMOOTH"
);
},
{
closed = 1;
nodes = (
"147 -193 OFFCURVE",
"167 -172 OFFCURVE",
"167 -147 CURVE SMOOTH",
"167 320 LINE SMOOTH",
"167 345 OFFCURVE",
"146 366 OFFCURVE",
"121 366 CURVE SMOOTH",
"96 366 OFFCURVE",
"76 345 OFFCURVE",
"76 320 CURVE SMOOTH",
"76 -147 LINE SMOOTH",
"76 -172 OFFCURVE",
"97 -193 OFFCURVE",
"122 -193 CURVE SMOOTH"
);
}
);
width = 634;
}
);
unicode = 05E7;
},
{
glyphname = "resh-hb";
layers = (
{
anchors = (
{
name = bottom;
position = "{435, -4}";
},
{
name = bottomleft;
position = "{20, 0}";
},
{
name = center;
position = "{223, 305}";
},
{
name = top;
position = "{282, 510}";
},
{
name = topleft;
position = "{0, 510}";
}
);
layerId = "A99C00BB-606F-4263-964D-93C8B7F0BADD";
paths = (
{
closed = 1;
nodes = (
"464 -4 OFFCURVE",
"484 17 OFFCURVE",
"484 42 CURVE SMOOTH",
"484 377 LINE SMOOTH",
"484 532 OFFCURVE",
"424 594 OFFCURVE",
"259 594 CURVE SMOOTH",
"196 594 OFFCURVE",
"131 587 OFFCURVE",
"71 576 CURVE SMOOTH",
"48 572 OFFCURVE",
"32 551 OFFCURVE",
"35 530 CURVE SMOOTH",
"39 508 OFFCURVE",
"58 492 OFFCURVE",
"83 496 CURVE SMOOTH",
"144 506 OFFCURVE",
"197 514 OFFCURVE",
"255 514 CURVE SMOOTH",
"359 514 OFFCURVE",
"393 483 OFFCURVE",
"393 377 CURVE SMOOTH",
"393 42 LINE SMOOTH",
"393 17 OFFCURVE",
"414 -4 OFFCURVE",
"439 -4 CURVE SMOOTH"
);
}
);
width = 564;
}
);
unicode = 05E8;
},
{
glyphname = "shin-hb";
layers = (
{
anchors = (
{
name = bottom;
position = "{390, -5}";
},
{
name = bottomleft;
position = "{22, 0}";
},
{
name = center;
position = "{519, 348}";
},
{
name = top;
position = "{390, 510}";
},
{
name = topleft;
position = "{-1, 510}";
},
{
name = topright;
position = "{656, 510}";
}
);
layerId = "A99C00BB-606F-4263-964D-93C8B7F0BADD";
paths = (
{
closed = 1;
nodes = (
"595 -5 OFFCURVE",
"704 83 OFFCURVE",
"704 270 CURVE SMOOTH",
"704 549 LINE SMOOTH",
"704 574 OFFCURVE",
"684 595 OFFCURVE",
"659 595 CURVE SMOOTH",
"634 595 OFFCURVE",
"613 574 OFFCURVE",
"613 549 CURVE SMOOTH",
"613 270 LINE SMOOTH",
"613 134 OFFCURVE",
"538 75 OFFCURVE",
"390 75 CURVE",
"390 -5 LINE"
);
},
{
closed = 1;
nodes = (
"390 75 LINE",
"242 75 OFFCURVE",
"167 134 OFFCURVE",
"167 270 CURVE SMOOTH",
"167 549 LINE SMOOTH",
"167 574 OFFCURVE",
"146 595 OFFCURVE",
"121 595 CURVE SMOOTH",
"96 595 OFFCURVE",
"76 574 OFFCURVE",
"76 549 CURVE SMOOTH",
"76 270 LINE SMOOTH",
"76 83 OFFCURVE",
"185 -5 OFFCURVE",
"390 -5 CURVE"
);
},
{
closed = 1;
nodes = (
"415 186 OFFCURVE",
"435 207 OFFCURVE",
"435 232 CURVE SMOOTH",
"436 549 LINE SMOOTH",
"436 574 OFFCURVE",
"415 595 OFFCURVE",
"390 595 CURVE SMOOTH",
"365 595 OFFCURVE",
"345 574 OFFCURVE",
"345 549 CURVE SMOOTH",
"344 232 LINE SMOOTH",
"344 207 OFFCURVE",
"365 186 OFFCURVE",
"390 186 CURVE SMOOTH"
);
}
);
width = 780;
}
);
unicode = 05E9;
},
{
glyphname = "tav-hb";
layers = (
{
anchors = (
{
name = bottom;
position = "{350, 0}";
},
{
name = bottomleft;
position = "{20, 0}";
},
{
name = center;
position = "{390, 265}";
},
{
name = top;
position = "{350, 510}";
},
{
name = topleft;
position = "{10, 510}";
}
);
layerId = "A99C00BB-606F-4263-964D-93C8B7F0BADD";
paths = (
{
closed = 1;
nodes = (
"599 -5 OFFCURVE",
"619 16 OFFCURVE",
"619 41 CURVE SMOOTH",
"619 377 LINE SMOOTH",
"619 536 OFFCURVE",
"539 590 OFFCURVE",
"421 590 CURVE SMOOTH",
"116 590 LINE SMOOTH",
"92 590 OFFCURVE",
"73 572 OFFCURVE",
"73 550 CURVE SMOOTH",
"73 528 OFFCURVE",
"92 510 OFFCURVE",
"116 510 CURVE SMOOTH",
"421 510 LINE SMOOTH",
"482 510 OFFCURVE",
"528 486 OFFCURVE",
"528 377 CURVE SMOOTH",
"528 41 LINE SMOOTH",
"528 16 OFFCURVE",
"549 -5 OFFCURVE",
"574 -5 CURVE SMOOTH"
);
},
{
closed = 1;
nodes = (
"195 0 LINE SMOOTH",
"218 0 OFFCURVE",
"236 17 OFFCURVE",
"236 40 CURVE SMOOTH",
"236 351 LINE SMOOTH",
"236 410 OFFCURVE",
"236 468 OFFCURVE",
"257 515 CURVE",
"173 515 LINE",
"151 470 OFFCURVE",
"145 410 OFFCURVE",
"145 355 CURVE SMOOTH",
"145 80 LINE",
"69 80 LINE SMOOTH",
"47 80 OFFCURVE",
"29 62 OFFCURVE",
"29 40 CURVE SMOOTH",
"29 18 OFFCURVE",
"47 0 OFFCURVE",
"69 0 CURVE SMOOTH"
);
}
);
width = 698;
}
);
unicode = 05EA;
},
{
glyphname = zero;
layers = (
{
layerId = "A99C00BB-606F-4263-964D-93C8B7F0BADD";
paths = (
{
closed = 1;
nodes = (
"493 -10 OFFCURVE",
"585 135 OFFCURVE",
"585 349 CURVE SMOOTH",
"585 563 OFFCURVE",
"493 708 OFFCURVE",
"314 708 CURVE SMOOTH",
"134 708 OFFCURVE",
"43 563 OFFCURVE",
"43 349 CURVE SMOOTH",
"43 135 OFFCURVE",
"134 -10 OFFCURVE",
"314 -10 CURVE SMOOTH"
);
},
{
closed = 1;
nodes = (
"196 74 OFFCURVE",
"134 180 OFFCURVE",
"134 349 CURVE SMOOTH",
"134 517 OFFCURVE",
"196 623 OFFCURVE",
"314 623 CURVE SMOOTH",
"432 623 OFFCURVE",
"494 517 OFFCURVE",
"494 349 CURVE SMOOTH",
"494 180 OFFCURVE",
"432 74 OFFCURVE",
"314 74 CURVE SMOOTH"
);
}
);
width = 628;
}
);
note = zero;
unicode = 0030;
},
{
glyphname = one;
layers = (
{
layerId = "A99C00BB-606F-4263-964D-93C8B7F0BADD";
paths = (
{
closed = 1;
nodes = (
"486 0 LINE SMOOTH",
"510 0 OFFCURVE",
"529 18 OFFCURVE",
"529 42 CURVE SMOOTH",
"529 66 OFFCURVE",
"510 85 OFFCURVE",
"486 85 CURVE SMOOTH",
"387 85 LINE",
"387 650 LINE SMOOTH",
"387 676 OFFCURVE",
"365 698 OFFCURVE",
"339 698 CURVE SMOOTH",
"318 698 LINE SMOOTH",
"308 698 OFFCURVE",
"298 695 OFFCURVE",
"290 691 CURVE SMOOTH",
"154 620 LINE SMOOTH",
"136 611 OFFCURVE",
"128 598 OFFCURVE",
"128 579 CURVE SMOOTH",
"128 554 OFFCURVE",
"146 536 OFFCURVE",
"171 536 CURVE SMOOTH",
"181 536 OFFCURVE",
"187 539 OFFCURVE",
"194 542 CURVE",
"296 592 LINE",
"296 85 LINE",
"177 85 LINE SMOOTH",
"153 85 OFFCURVE",
"135 66 OFFCURVE",
"135 42 CURVE SMOOTH",
"135 18 OFFCURVE",
"153 0 OFFCURVE",
"177 0 CURVE SMOOTH"
);
}
);
width = 628;
}
);
note = one;
unicode = 0031;
},
{
glyphname = two;
layers = (
{
layerId = "A99C00BB-606F-4263-964D-93C8B7F0BADD";
paths = (
{
closed = 1;
nodes = (
"504 0 LINE SMOOTH",
"528 0 OFFCURVE",
"547 18 OFFCURVE",
"547 42 CURVE SMOOTH",
"547 66 OFFCURVE",
"528 85 OFFCURVE",
"504 85 CURVE SMOOTH",
"156 85 LINE",
"210 202 OFFCURVE",
"553 299 OFFCURVE",
"553 505 CURVE SMOOTH",
"553 627 OFFCURVE",
"451 708 OFFCURVE",
"323 708 CURVE SMOOTH",
"231 708 OFFCURVE",
"157 685 OFFCURVE",
"101 657 CURVE SMOOTH",
"86 649 OFFCURVE",
"79 637 OFFCURVE",
"79 620 CURVE SMOOTH",
"79 598 OFFCURVE",
"95 581 OFFCURVE",
"117 581 CURVE SMOOTH",
"125 581 OFFCURVE",
"134 585 OFFCURVE",
"136 586 CURVE",
"181 606 OFFCURVE",
"239 622 OFFCURVE",
"307 622 CURVE SMOOTH",
"423 622 OFFCURVE",
"465 569 OFFCURVE",
"465 498 CURVE SMOOTH",
"465 335 OFFCURVE",
"65 263 OFFCURVE",
"65 52 CURVE SMOOTH",
"65 21 OFFCURVE",
"87 0 OFFCURVE",
"118 0 CURVE SMOOTH"
);
}
);
width = 628;
}
);
note = two;
unicode = 0032;
},
{
glyphname = three;
layers = (
{
layerId = "A99C00BB-606F-4263-964D-93C8B7F0BADD";
paths = (
{
closed = 1;
nodes = (
"440 -10 OFFCURVE",
"553 56 OFFCURVE",
"553 183 CURVE SMOOTH",
"553 306 OFFCURVE",
"463 348 OFFCURVE",
"407 361 CURVE",
"464 382 OFFCURVE",
"528 427 OFFCURVE",
"528 528 CURVE SMOOTH",
"528 642 OFFCURVE",
"441 708 OFFCURVE",
"287 708 CURVE SMOOTH",
"203 708 OFFCURVE",
"136 682 OFFCURVE",
"89 657 CURVE SMOOTH",
"76 650 OFFCURVE",
"69 637 OFFCURVE",
"69 623 CURVE SMOOTH",
"69 601 OFFCURVE",
"86 586 OFFCURVE",
"106 586 CURVE SMOOTH",
"114 586 OFFCURVE",
"119 588 OFFCURVE",
"124 590 CURVE",
"165 609 OFFCURVE",
"216 623 OFFCURVE",
"279 623 CURVE SMOOTH",
"386 623 OFFCURVE",
"437 581 OFFCURVE",
"437 519 CURVE SMOOTH",
"437 438 OFFCURVE",
"362 398 OFFCURVE",
"231 398 CURVE SMOOTH",
"225 398 LINE SMOOTH",
"202 398 OFFCURVE",
"183 379 OFFCURVE",
"183 356 CURVE SMOOTH",
"183 333 OFFCURVE",
"202 314 OFFCURVE",
"225 314 CURVE SMOOTH",
"241 314 LINE SMOOTH",
"406 314 OFFCURVE",
"462 262 OFFCURVE",
"462 188 CURVE SMOOTH",
"462 100 OFFCURVE",
"364 77 OFFCURVE",
"277 77 CURVE SMOOTH",
"212 77 OFFCURVE",
"158 90 OFFCURVE",
"118 106 CURVE SMOOTH",
"113 108 OFFCURVE",
"105 110 OFFCURVE",
"99 110 CURVE SMOOTH",
"75 110 OFFCURVE",
"59 89 OFFCURVE",
"59 68 CURVE SMOOTH",
"59 49 OFFCURVE",
"70 36 OFFCURVE",
"85 30 CURVE SMOOTH",
"134 10 OFFCURVE",
"205 -10 OFFCURVE",
"294 -10 CURVE SMOOTH"
);
}
);
width = 628;
}
);
note = three;
unicode = 0033;
},
{
glyphname = four;
layers = (
{
layerId = "A99C00BB-606F-4263-964D-93C8B7F0BADD";
paths = (
{
closed = 1;
nodes = (
"458 -5 OFFCURVE",
"479 15 OFFCURVE",
"479 40 CURVE SMOOTH",
"479 176 LINE",
"555 176 LINE SMOOTH",
"578 176 OFFCURVE",
"596 193 OFFCURVE",
"596 216 CURVE SMOOTH",
"596 239 OFFCURVE",
"578 257 OFFCURVE",
"555 257 CURVE SMOOTH",
"479 257 LINE",
"479 645 LINE SMOOTH",
"479 677 OFFCURVE",
"456 703 OFFCURVE",
"421 703 CURVE SMOOTH",
"401 703 LINE SMOOTH",
"381 703 OFFCURVE",
"362 693 OFFCURVE",
"351 679 CURVE SMOOTH",
"37 278 LINE SMOOTH",
"30 269 OFFCURVE",
"25 255 OFFCURVE",
"25 242 CURVE SMOOTH",
"25 233 LINE SMOOTH",
"25 201 OFFCURVE",
"51 176 OFFCURVE",
"83 176 CURVE SMOOTH",
"388 176 LINE",
"388 40 LINE SMOOTH",
"388 15 OFFCURVE",
"408 -5 OFFCURVE",
"433 -5 CURVE SMOOTH"
);
},
{
closed = 1;
nodes = (
"388 600 LINE",
"388 257 LINE",
"122 257 LINE"
);
}
);
width = 628;
}
);
note = four;
unicode = 0034;
},
{
glyphname = five;
layers = (
{
layerId = "A99C00BB-606F-4263-964D-93C8B7F0BADD";
paths = (
{
closed = 1;
nodes = (
"487 -10 OFFCURVE",
"571 88 OFFCURVE",
"571 216 CURVE SMOOTH",
"571 346 OFFCURVE",
"489 442 OFFCURVE",
"338 442 CURVE SMOOTH",
"264 442 OFFCURVE",
"210 423 OFFCURVE",
"169 401 CURVE",
"201 613 LINE",
"491 613 LINE SMOOTH",
"515 613 OFFCURVE",
"534 631 OFFCURVE",
"534 655 CURVE SMOOTH",
"534 679 OFFCURVE",
"515 698 OFFCURVE",
"491 698 CURVE SMOOTH",
"170 698 LINE SMOOTH",
"142 698 OFFCURVE",
"121 679 OFFCURVE",
"117 648 CURVE",
"72 382 LINE SMOOTH",
"71 376 OFFCURVE",
"70 365 OFFCURVE",
"70 358 CURVE SMOOTH",
"70 322 OFFCURVE",
"99 300 OFFCURVE",
"136 300 CURVE SMOOTH",
"152 300 OFFCURVE",
"162 307 OFFCURVE",
"171 312 CURVE",
"204 332 OFFCURVE",
"257 355 OFFCURVE",
"325 355 CURVE SMOOTH",
"421 355 OFFCURVE",
"480 303 OFFCURVE",
"480 221 CURVE SMOOTH",
"480 113 OFFCURVE",
"403 80 OFFCURVE",
"285 80 CURVE SMOOTH",
"222 80 OFFCURVE",
"168 99 OFFCURVE",
"125 122 CURVE SMOOTH",
"119 125 OFFCURVE",
"112 127 OFFCURVE",
"104 127 CURVE SMOOTH",
"80 127 OFFCURVE",
"64 107 OFFCURVE",
"64 84 CURVE SMOOTH",
"64 63 OFFCURVE",
"74 55 OFFCURVE",
"84 48 CURVE",
"134 16 OFFCURVE",
"204 -10 OFFCURVE",
"297 -10 CURVE SMOOTH"
);
}
);
width = 628;
}
);
note = five;
unicode = 0035;
},
{
glyphname = six;
layers = (
{
layerId = "A99C00BB-606F-4263-964D-93C8B7F0BADD";
paths = (
{
closed = 1;
nodes = (
"486 -10 OFFCURVE",
"580 91 OFFCURVE",
"580 217 CURVE SMOOTH",
"580 360 OFFCURVE",
"487 452 OFFCURVE",
"351 452 CURVE SMOOTH",
"241 452 OFFCURVE",
"179 406 OFFCURVE",
"146 364 CURVE",
"151 454 OFFCURVE",
"184 620 OFFCURVE",
"356 620 CURVE SMOOTH",
"411 620 OFFCURVE",
"455 607 OFFCURVE",
"489 591 CURVE",
"494 589 OFFCURVE",
"500 588 OFFCURVE",
"506 588 CURVE SMOOTH",
"531 588 OFFCURVE",
"547 608 OFFCURVE",
"547 629 CURVE SMOOTH",
"547 644 OFFCURVE",
"538 659 OFFCURVE",
"526 665 CURVE SMOOTH",
"486 686 OFFCURVE",
"432 708 OFFCURVE",
"349 708 CURVE SMOOTH",
"129 708 OFFCURVE",
"59 504 OFFCURVE",
"59 348 CURVE SMOOTH",
"59 211 OFFCURVE",
"86 -10 OFFCURVE",
"333 -10 CURVE SMOOTH"
);
},
{
closed = 1;
nodes = (
"209 75 OFFCURVE",
"165 162 OFFCURVE",
"151 259 CURVE",
"172 298 OFFCURVE",
"222 369 OFFCURVE",
"340 369 CURVE SMOOTH",
"440 369 OFFCURVE",
"489 307 OFFCURVE",
"489 219 CURVE SMOOTH",
"489 142 OFFCURVE",
"429 75 OFFCURVE",
"334 75 CURVE SMOOTH"
);
}
);
width = 628;
}
);
note = six;
unicode = 0036;
},
{
glyphname = seven;
layers = (
{
layerId = "A99C00BB-606F-4263-964D-93C8B7F0BADD";
paths = (
{
closed = 1;
nodes = (
"248 -5 OFFCURVE",
"265 5 OFFCURVE",
"273 20 CURVE",
"557 601 LINE SMOOTH",
"563 614 OFFCURVE",
"567 629 OFFCURVE",
"567 645 CURVE SMOOTH",
"567 675 OFFCURVE",
"543 698 OFFCURVE",
"511 698 CURVE SMOOTH",
"103 698 LINE SMOOTH",
"79 698 OFFCURVE",
"60 678 OFFCURVE",
"60 654 CURVE SMOOTH",
"60 630 OFFCURVE",
"79 611 OFFCURVE",
"103 611 CURVE SMOOTH",
"466 611 LINE",
"191 64 LINE SMOOTH",
"187 56 OFFCURVE",
"185 48 OFFCURVE",
"185 40 CURVE SMOOTH",
"185 14 OFFCURVE",
"204 -5 OFFCURVE",
"230 -5 CURVE SMOOTH"
);
}
);
width = 628;
}
);
note = seven;
unicode = 0037;
},
{
glyphname = eight;
layers = (
{
layerId = "A99C00BB-606F-4263-964D-93C8B7F0BADD";
paths = (
{
closed = 1;
nodes = (
"513 -10 OFFCURVE",
"581 96 OFFCURVE",
"581 185 CURVE SMOOTH",
"581 287 OFFCURVE",
"521 344 OFFCURVE",
"432 374 CURVE",
"494 395 OFFCURVE",
"548 444 OFFCURVE",
"548 526 CURVE SMOOTH",
"548 604 OFFCURVE",
"489 708 OFFCURVE",
"314 708 CURVE SMOOTH",
"139 708 OFFCURVE",
"80 604 OFFCURVE",
"80 526 CURVE SMOOTH",
"80 444 OFFCURVE",
"134 395 OFFCURVE",
"196 374 CURVE",
"107 344 OFFCURVE",
"47 287 OFFCURVE",
"47 185 CURVE SMOOTH",
"47 96 OFFCURVE",
"115 -10 OFFCURVE",
"314 -10 CURVE SMOOTH"
);
},
{
closed = 1;
nodes = (
"180 70 OFFCURVE",
"138 150 OFFCURVE",
"138 195 CURVE SMOOTH",
"138 285 OFFCURVE",
"222 330 OFFCURVE",
"314 330 CURVE SMOOTH",
"406 330 OFFCURVE",
"490 285 OFFCURVE",
"490 195 CURVE SMOOTH",
"490 150 OFFCURVE",
"448 70 OFFCURVE",
"314 70 CURVE SMOOTH"
);
},
{
closed = 1;
nodes = (
"205 412 OFFCURVE",
"171 474 OFFCURVE",
"171 520 CURVE SMOOTH",
"171 579 OFFCURVE",
"217 628 OFFCURVE",
"314 628 CURVE SMOOTH",
"411 628 OFFCURVE",
"457 579 OFFCURVE",
"457 520 CURVE SMOOTH",
"457 474 OFFCURVE",
"423 412 OFFCURVE",
"314 412 CURVE SMOOTH"
);
}
);
width = 628;
}
);
note = eight;
unicode = 0038;
},
{
glyphname = nine;
layers = (
{
layerId = "A99C00BB-606F-4263-964D-93C8B7F0BADD";
paths = (
{
closed = 1;
nodes = (
"499 -10 OFFCURVE",
"569 194 OFFCURVE",
"569 350 CURVE SMOOTH",
"569 487 OFFCURVE",
"542 708 OFFCURVE",
"295 708 CURVE SMOOTH",
"142 708 OFFCURVE",
"48 607 OFFCURVE",
"48 481 CURVE SMOOTH",
"48 338 OFFCURVE",
"141 246 OFFCURVE",
"277 246 CURVE SMOOTH",
"387 246 OFFCURVE",
"449 292 OFFCURVE",
"482 334 CURVE",
"477 244 OFFCURVE",
"444 78 OFFCURVE",
"272 78 CURVE SMOOTH",
"217 78 OFFCURVE",
"173 91 OFFCURVE",
"139 107 CURVE",
"134 109 OFFCURVE",
"128 110 OFFCURVE",
"122 110 CURVE SMOOTH",
"97 110 OFFCURVE",
"81 90 OFFCURVE",
"81 69 CURVE SMOOTH",
"81 54 OFFCURVE",
"90 39 OFFCURVE",
"102 33 CURVE SMOOTH",
"142 12 OFFCURVE",
"196 -10 OFFCURVE",
"279 -10 CURVE SMOOTH"
);
},
{
closed = 1;
nodes = (
"188 329 OFFCURVE",
"139 391 OFFCURVE",
"139 479 CURVE SMOOTH",
"139 556 OFFCURVE",
"199 623 OFFCURVE",
"294 623 CURVE SMOOTH",
"419 623 OFFCURVE",
"463 536 OFFCURVE",
"477 439 CURVE",
"456 400 OFFCURVE",
"406 329 OFFCURVE",
"288 329 CURVE SMOOTH"
);
}
);
width = 628;
}
);
note = nine;
unicode = 0039;
},
{
glyphname = onesuperior;
layers = (
{
layerId = "A99C00BB-606F-4263-964D-93C8B7F0BADD";
paths = (
{
closed = 1;
nodes = (
"282 451 LINE SMOOTH",
"299 451 OFFCURVE",
"312 463 OFFCURVE",
"312 480 CURVE SMOOTH",
"312 497 OFFCURVE",
"299 510 OFFCURVE",
"282 510 CURVE SMOOTH",
"232 510 LINE",
"232 806 LINE SMOOTH",
"232 830 OFFCURVE",
"215 849 OFFCURVE",
"189 849 CURVE SMOOTH",
"182 849 OFFCURVE",
"175 847 OFFCURVE",
"169 844 CURVE SMOOTH",
"97 807 LINE SMOOTH",
"85 801 OFFCURVE",
"78 790 OFFCURVE",
"78 779 CURVE SMOOTH",
"78 762 OFFCURVE",
"92 749 OFFCURVE",
"108 749 CURVE SMOOTH",
"114 749 OFFCURVE",
"118 751 OFFCURVE",
"123 753 CURVE",
"168 775 LINE",
"168 510 LINE",
"108 510 LINE SMOOTH",
"91 510 OFFCURVE",
"79 497 OFFCURVE",
"79 480 CURVE SMOOTH",
"79 463 OFFCURVE",
"91 451 OFFCURVE",
"108 451 CURVE SMOOTH"
);
}
);
width = 370;
}
);
note = onesuperior;
unicode = 00B9;
},
{
glyphname = twosuperior;
layers = (
{
layerId = "A99C00BB-606F-4263-964D-93C8B7F0BADD";
paths = (
{
closed = 1;
nodes = (
"297 451 LINE SMOOTH",
"314 451 OFFCURVE",
"327 463 OFFCURVE",
"327 480 CURVE SMOOTH",
"327 497 OFFCURVE",
"314 510 OFFCURVE",
"297 510 CURVE SMOOTH",
"107 510 LINE",
"144 564 OFFCURVE",
"323 621 OFFCURVE",
"323 733 CURVE SMOOTH",
"323 799 OFFCURVE",
"268 850 OFFCURVE",
"190 850 CURVE SMOOTH",
"135 850 OFFCURVE",
"90 836 OFFCURVE",
"60 817 CURVE SMOOTH",
"50 811 OFFCURVE",
"46 802 OFFCURVE",
"46 792 CURVE SMOOTH",
"46 775 OFFCURVE",
"58 764 OFFCURVE",
"74 764 CURVE SMOOTH",
"79 764 OFFCURVE",
"83 765 OFFCURVE",
"87 767 CURVE",
"109 779 OFFCURVE",
"141 789 OFFCURVE",
"182 789 CURVE SMOOTH",
"239 789 OFFCURVE",
"260 762 OFFCURVE",
"260 729 CURVE SMOOTH",
"260 649 OFFCURVE",
"38 603 OFFCURVE",
"38 491 CURVE SMOOTH",
"38 471 OFFCURVE",
"54 451 OFFCURVE",
"77 451 CURVE SMOOTH"
);
}
);
width = 370;
}
);
note = twosuperior;
unicode = 00B2;
},
{
glyphname = threesuperior;
layers = (
{
layerId = "A99C00BB-606F-4263-964D-93C8B7F0BADD";
paths = (
{
closed = 1;
nodes = (
"283 445 OFFCURVE",
"322 500 OFFCURVE",
"322 557 CURVE SMOOTH",
"322 616 OFFCURVE",
"282 643 OFFCURVE",
"246 654 CURVE",
"274 665 OFFCURVE",
"308 691 OFFCURVE",
"308 744 CURVE SMOOTH",
"308 803 OFFCURVE",
"269 850 OFFCURVE",
"172 850 CURVE SMOOTH",
"130 850 OFFCURVE",
"92 837 OFFCURVE",
"60 820 CURVE SMOOTH",
"47 813 OFFCURVE",
"41 803 OFFCURVE",
"41 794 CURVE SMOOTH",
"41 778 OFFCURVE",
"55 767 OFFCURVE",
"69 767 CURVE SMOOTH",
"73 767 OFFCURVE",
"78 768 OFFCURVE",
"82 770 CURVE SMOOTH",
"103 780 OFFCURVE",
"131 789 OFFCURVE",
"168 789 CURVE SMOOTH",
"204 789 OFFCURVE",
"246 778 OFFCURVE",
"246 739 CURVE SMOOTH",
"246 695 OFFCURVE",
"198 681 OFFCURVE",
"141 681 CURVE SMOOTH",
"136 681 LINE SMOOTH",
"119 681 OFFCURVE",
"106 668 OFFCURVE",
"106 651 CURVE SMOOTH",
"106 634 OFFCURVE",
"119 621 OFFCURVE",
"136 621 CURVE SMOOTH",
"147 621 LINE SMOOTH",
"220 621 OFFCURVE",
"259 601 OFFCURVE",
"259 559 CURVE SMOOTH",
"259 522 OFFCURVE",
"219 507 OFFCURVE",
"167 507 CURVE SMOOTH",
"129 507 OFFCURVE",
"99 517 OFFCURVE",
"76 524 CURVE",
"72 525 OFFCURVE",
"69 526 OFFCURVE",
"65 526 CURVE SMOOTH",
"50 526 OFFCURVE",
"36 513 OFFCURVE",
"36 497 CURVE SMOOTH",
"36 485 OFFCURVE",
"44 475 OFFCURVE",
"53 470 CURVE SMOOTH",
"82 454 OFFCURVE",
"123 445 OFFCURVE",
"176 445 CURVE SMOOTH"
);
}
);
width = 370;
}
);
note = threesuperior;
unicode = 00B3;
},
{
glyphname = fraction;
layers = (
{
layerId = "A99C00BB-606F-4263-964D-93C8B7F0BADD";
paths = (
{
closed = 1;
nodes = (
"-95 -24 OFFCURVE",
"-84 -20 OFFCURVE",
"-78 -10 CURVE SMOOTH",
"336 672 LINE",
"339 678 OFFCURVE",
"341 684 OFFCURVE",
"341 690 CURVE SMOOTH",
"341 710 OFFCURVE",
"325 724 OFFCURVE",
"307 724 CURVE SMOOTH",
"296 724 OFFCURVE",
"285 720 OFFCURVE",
"279 710 CURVE SMOOTH",
"-135 28 LINE",
"-138 22 OFFCURVE",
"-140 16 OFFCURVE",
"-140 10 CURVE SMOOTH",
"-140 -10 OFFCURVE",
"-124 -24 OFFCURVE",
"-106 -24 CURVE SMOOTH"
);
}
);
width = 200;
}
);
note = fraction;
unicode = 2044;
},
{
glyphname = onehalf;
layers = (
{
layerId = "A99C00BB-606F-4263-964D-93C8B7F0BADD";
paths = (
{
closed = 1;
nodes = (
"267 -24 OFFCURVE",
"278 -20 OFFCURVE",
"284 -10 CURVE SMOOTH",
"698 672 LINE",
"701 678 OFFCURVE",
"703 684 OFFCURVE",
"703 690 CURVE SMOOTH",
"703 710 OFFCURVE",
"687 724 OFFCURVE",
"669 724 CURVE SMOOTH",
"658 724 OFFCURVE",
"647 720 OFFCURVE",
"641 710 CURVE SMOOTH",
"227 28 LINE",
"224 22 OFFCURVE",
"222 16 OFFCURVE",
"222 10 CURVE SMOOTH",
"222 -10 OFFCURVE",
"238 -24 OFFCURVE",
"256 -24 CURVE SMOOTH"
);
},
{
closed = 1;
nodes = (
"283 310 LINE SMOOTH",
"300 310 OFFCURVE",
"313 322 OFFCURVE",
"313 339 CURVE SMOOTH",
"313 356 OFFCURVE",
"300 369 OFFCURVE",
"283 369 CURVE SMOOTH",
"233 369 LINE",
"233 665 LINE SMOOTH",
"233 689 OFFCURVE",
"216 708 OFFCURVE",
"190 708 CURVE SMOOTH",
"183 708 OFFCURVE",
"176 706 OFFCURVE",
"170 703 CURVE SMOOTH",
"98 666 LINE SMOOTH",
"86 660 OFFCURVE",
"79 649 OFFCURVE",
"79 638 CURVE SMOOTH",
"79 621 OFFCURVE",
"93 608 OFFCURVE",
"109 608 CURVE SMOOTH",
"115 608 OFFCURVE",
"119 610 OFFCURVE",
"124 612 CURVE",
"169 634 LINE",
"169 369 LINE",
"109 369 LINE SMOOTH",
"92 369 OFFCURVE",
"80 356 OFFCURVE",
"80 339 CURVE SMOOTH",
"80 322 OFFCURVE",
"92 310 OFFCURVE",
"109 310 CURVE SMOOTH"
);
},
{
closed = 1;
nodes = (
"835 0 LINE SMOOTH",
"852 0 OFFCURVE",
"865 12 OFFCURVE",
"865 29 CURVE SMOOTH",
"865 46 OFFCURVE",
"852 59 OFFCURVE",
"835 59 CURVE SMOOTH",
"645 59 LINE",
"682 113 OFFCURVE",
"861 170 OFFCURVE",
"861 282 CURVE SMOOTH",
"861 348 OFFCURVE",
"806 399 OFFCURVE",
"728 399 CURVE SMOOTH",
"673 399 OFFCURVE",
"628 385 OFFCURVE",
"598 366 CURVE SMOOTH",
"588 360 OFFCURVE",
"584 351 OFFCURVE",
"584 341 CURVE SMOOTH",
"584 324 OFFCURVE",
"596 313 OFFCURVE",
"612 313 CURVE SMOOTH",
"617 313 OFFCURVE",
"621 314 OFFCURVE",
"625 316 CURVE",
"647 328 OFFCURVE",
"679 338 OFFCURVE",
"720 338 CURVE SMOOTH",
"777 338 OFFCURVE",
"798 311 OFFCURVE",
"798 278 CURVE SMOOTH",
"798 198 OFFCURVE",
"576 152 OFFCURVE",
"576 40 CURVE SMOOTH",
"576 20 OFFCURVE",
"592 0 OFFCURVE",
"615 0 CURVE SMOOTH"
);
}
);
width = 940;
}
);
note = onehalf;
unicode = 00BD;
},
{
glyphname = onequarter;
layers = (
{
layerId = "A99C00BB-606F-4263-964D-93C8B7F0BADD";
paths = (
{
closed = 1;
nodes = (
"273 -24 OFFCURVE",
"284 -20 OFFCURVE",
"290 -10 CURVE SMOOTH",
"704 672 LINE",
"707 678 OFFCURVE",
"709 684 OFFCURVE",
"709 690 CURVE SMOOTH",
"709 710 OFFCURVE",
"693 724 OFFCURVE",
"675 724 CURVE SMOOTH",
"664 724 OFFCURVE",
"653 720 OFFCURVE",
"647 710 CURVE SMOOTH",
"233 28 LINE",
"230 22 OFFCURVE",
"228 16 OFFCURVE",
"228 10 CURVE SMOOTH",
"228 -10 OFFCURVE",
"244 -24 OFFCURVE",
"262 -24 CURVE SMOOTH"
);
},
{
closed = 1;
nodes = (
"289 310 LINE SMOOTH",
"306 310 OFFCURVE",
"319 322 OFFCURVE",
"319 339 CURVE SMOOTH",
"319 356 OFFCURVE",
"306 369 OFFCURVE",
"289 369 CURVE SMOOTH",
"239 369 LINE",
"239 665 LINE SMOOTH",
"239 689 OFFCURVE",
"222 708 OFFCURVE",
"196 708 CURVE SMOOTH",
"189 708 OFFCURVE",
"182 706 OFFCURVE",
"176 703 CURVE SMOOTH",
"104 666 LINE SMOOTH",
"92 660 OFFCURVE",
"85 649 OFFCURVE",
"85 638 CURVE SMOOTH",
"85 621 OFFCURVE",
"99 608 OFFCURVE",
"115 608 CURVE SMOOTH",
"121 608 OFFCURVE",
"125 610 OFFCURVE",
"130 612 CURVE",
"175 634 LINE",
"175 369 LINE",
"115 369 LINE SMOOTH",
"98 369 OFFCURVE",
"86 356 OFFCURVE",
"86 339 CURVE SMOOTH",
"86 322 OFFCURVE",
"98 310 OFFCURVE",
"115 310 CURVE SMOOTH"
);
},
{
closed = 1;
nodes = (
"787 -5 OFFCURVE",
"801 9 OFFCURVE",
"801 27 CURVE SMOOTH",
"801 96 LINE",
"837 96 LINE SMOOTH",
"854 96 OFFCURVE",
"867 108 OFFCURVE",
"867 125 CURVE SMOOTH",
"867 142 OFFCURVE",
"854 155 OFFCURVE",
"837 155 CURVE SMOOTH",
"801 155 LINE",
"801 354 LINE SMOOTH",
"801 377 OFFCURVE",
"783 396 OFFCURVE",
"759 396 CURVE SMOOTH",
"751 396 LINE SMOOTH",
"735 396 OFFCURVE",
"724 386 OFFCURVE",
"715 375 CURVE SMOOTH",
"550 167 LINE SMOOTH",
"543 158 OFFCURVE",
"539 149 OFFCURVE",
"539 138 CURVE SMOOTH",
"539 115 OFFCURVE",
"558 96 OFFCURVE",
"581 96 CURVE SMOOTH",
"737 96 LINE",
"737 27 LINE SMOOTH",
"737 9 OFFCURVE",
"751 -5 OFFCURVE",
"769 -5 CURVE SMOOTH"
);
},
{
closed = 1;
nodes = (
"737 317 LINE",
"737 155 LINE",
"610 155 LINE"
);
}
);
width = 940;
}
);
note = onequarter;
unicode = 00BC;
},
{
glyphname = threequarters;
layers = (
{
layerId = "A99C00BB-606F-4263-964D-93C8B7F0BADD";
paths = (
{
closed = 1;
nodes = (
"287 -24 OFFCURVE",
"298 -20 OFFCURVE",
"304 -10 CURVE SMOOTH",
"718 672 LINE",
"721 678 OFFCURVE",
"723 684 OFFCURVE",
"723 690 CURVE SMOOTH",
"723 710 OFFCURVE",
"707 724 OFFCURVE",
"689 724 CURVE SMOOTH",
"678 724 OFFCURVE",
"667 720 OFFCURVE",
"661 710 CURVE SMOOTH",
"247 28 LINE",
"244 22 OFFCURVE",
"242 16 OFFCURVE",
"242 10 CURVE SMOOTH",
"242 -10 OFFCURVE",
"258 -24 OFFCURVE",
"276 -24 CURVE SMOOTH"
);
},
{
closed = 1;
nodes = (
"310 304 OFFCURVE",
"349 359 OFFCURVE",
"349 416 CURVE SMOOTH",
"349 475 OFFCURVE",
"309 502 OFFCURVE",
"273 513 CURVE",
"301 524 OFFCURVE",
"335 550 OFFCURVE",
"335 603 CURVE SMOOTH",
"335 662 OFFCURVE",
"296 709 OFFCURVE",
"199 709 CURVE SMOOTH",
"157 709 OFFCURVE",
"119 696 OFFCURVE",
"87 679 CURVE SMOOTH",
"74 672 OFFCURVE",
"68 662 OFFCURVE",
"68 653 CURVE SMOOTH",
"68 637 OFFCURVE",
"82 626 OFFCURVE",
"96 626 CURVE SMOOTH",
"100 626 OFFCURVE",
"105 627 OFFCURVE",
"109 629 CURVE SMOOTH",
"130 639 OFFCURVE",
"158 648 OFFCURVE",
"195 648 CURVE SMOOTH",
"231 648 OFFCURVE",
"273 637 OFFCURVE",
"273 598 CURVE SMOOTH",
"273 554 OFFCURVE",
"225 540 OFFCURVE",
"168 540 CURVE SMOOTH",
"163 540 LINE SMOOTH",
"146 540 OFFCURVE",
"133 527 OFFCURVE",
"133 510 CURVE SMOOTH",
"133 493 OFFCURVE",
"146 480 OFFCURVE",
"163 480 CURVE SMOOTH",
"174 480 LINE SMOOTH",
"247 480 OFFCURVE",
"286 460 OFFCURVE",
"286 418 CURVE SMOOTH",
"286 381 OFFCURVE",
"246 366 OFFCURVE",
"194 366 CURVE SMOOTH",
"156 366 OFFCURVE",
"126 376 OFFCURVE",
"103 383 CURVE",
"99 384 OFFCURVE",
"96 385 OFFCURVE",
"92 385 CURVE SMOOTH",
"77 385 OFFCURVE",
"63 372 OFFCURVE",
"63 356 CURVE SMOOTH",
"63 344 OFFCURVE",
"71 334 OFFCURVE",
"80 329 CURVE SMOOTH",
"109 313 OFFCURVE",
"150 304 OFFCURVE",
"203 304 CURVE SMOOTH"
);
},
{
closed = 1;
nodes = (
"801 -5 OFFCURVE",
"815 9 OFFCURVE",
"815 27 CURVE SMOOTH",
"815 96 LINE",
"851 96 LINE SMOOTH",
"868 96 OFFCURVE",
"881 108 OFFCURVE",
"881 125 CURVE SMOOTH",
"881 142 OFFCURVE",
"868 155 OFFCURVE",
"851 155 CURVE SMOOTH",
"815 155 LINE",
"815 354 LINE SMOOTH",
"815 377 OFFCURVE",
"797 396 OFFCURVE",
"773 396 CURVE SMOOTH",
"765 396 LINE SMOOTH",
"749 396 OFFCURVE",
"738 386 OFFCURVE",
"729 375 CURVE SMOOTH",
"564 167 LINE SMOOTH",
"557 158 OFFCURVE",
"553 149 OFFCURVE",
"553 138 CURVE SMOOTH",
"553 115 OFFCURVE",
"572 96 OFFCURVE",
"595 96 CURVE SMOOTH",
"751 96 LINE",
"751 27 LINE SMOOTH",
"751 9 OFFCURVE",
"765 -5 OFFCURVE",
"783 -5 CURVE SMOOTH"
);
},
{
closed = 1;
nodes = (
"751 317 LINE",
"751 155 LINE",
"624 155 LINE"
);
}
);
width = 940;
}
);
note = threequarters;
unicode = 00BE;
},
{
glyphname = asterisk;
layers = (
{
layerId = "A99C00BB-606F-4263-964D-93C8B7F0BADD";
paths = (
{
closed = 1;
nodes = (
"223 384 OFFCURVE",
"238 396 OFFCURVE",
"238 413 CURVE SMOOTH",
"238 415 OFFCURVE",
"238 417 OFFCURVE",
"222 519 CURVE",
"302 454 OFFCURVE",
"304 453 OFFCURVE",
"306 452 CURVE",
"320 444 OFFCURVE",
"338 451 OFFCURVE",
"346 464 CURVE",
"353 477 OFFCURVE",
"350 496 OFFCURVE",
"336 504 CURVE",
"334 505 OFFCURVE",
"332 506 OFFCURVE",
"236 543 CURVE",
"332 580 OFFCURVE",
"334 581 OFFCURVE",
"336 582 CURVE",
"350 591 OFFCURVE",
"353 610 OFFCURVE",
"346 623 CURVE",
"338 636 OFFCURVE",
"320 643 OFFCURVE",
"306 634 CURVE",
"304 633 OFFCURVE",
"302 632 OFFCURVE",
"222 567 CURVE",
"238 669 OFFCURVE",
"238 671 OFFCURVE",
"238 673 CURVE SMOOTH",
"238 690 OFFCURVE",
"223 702 OFFCURVE",
"208 702 CURVE SMOOTH",
"193 702 OFFCURVE",
"178 690 OFFCURVE",
"178 673 CURVE SMOOTH",
"178 671 OFFCURVE",
"178 669 OFFCURVE",
"194 567 CURVE",
"114 632 OFFCURVE",
"112 633 OFFCURVE",
"110 634 CURVE",
"95 643 OFFCURVE",
"78 636 OFFCURVE",
"70 623 CURVE",
"63 610 OFFCURVE",
"65 591 OFFCURVE",
"80 582 CURVE",
"82 581 OFFCURVE",
"84 580 OFFCURVE",
"180 543 CURVE",
"84 506 OFFCURVE",
"82 505 OFFCURVE",
"80 504 CURVE SMOOTH",
"65 496 OFFCURVE",
"63 477 OFFCURVE",
"70 464 CURVE",
"78 451 OFFCURVE",
"95 444 OFFCURVE",
"110 452 CURVE SMOOTH",
"112 453 OFFCURVE",
"114 454 OFFCURVE",
"194 519 CURVE",
"178 417 OFFCURVE",
"178 415 OFFCURVE",
"178 413 CURVE SMOOTH",
"178 396 OFFCURVE",
"193 384 OFFCURVE",
"208 384 CURVE SMOOTH"
);
}
);
width = 417;
}
);
note = asterisk;
unicode = 002A;
},
{
glyphname = backslash;
layers = (
{
layerId = "A99C00BB-606F-4263-964D-93C8B7F0BADD";
paths = (
{
closed = 1;
nodes = (
"378 -95 OFFCURVE",
"395 -77 OFFCURVE",
"395 -54 CURVE SMOOTH",
"395 -49 OFFCURVE",
"393 -42 OFFCURVE",
"392 -39 CURVE SMOOTH",
"127 736 LINE SMOOTH",
"122 752 OFFCURVE",
"108 764 OFFCURVE",
"88 764 CURVE SMOOTH",
"64 764 OFFCURVE",
"47 746 OFFCURVE",
"47 723 CURVE SMOOTH",
"47 718 OFFCURVE",
"49 711 OFFCURVE",
"50 708 CURVE SMOOTH",
"315 -67 LINE SMOOTH",
"320 -83 OFFCURVE",
"334 -95 OFFCURVE",
"354 -95 CURVE SMOOTH"
);
}
);
width = 443;
}
);
note = backslash;
unicode = 005C;
},
{
glyphname = periodcentered;
layers = (
{
layerId = "A99C00BB-606F-4263-964D-93C8B7F0BADD";
paths = (
{
closed = 1;
nodes = (
"135 226 LINE SMOOTH",
"166 226 OFFCURVE",
"191 251 OFFCURVE",
"191 282 CURVE SMOOTH",
"191 288 LINE SMOOTH",
"191 319 OFFCURVE",
"166 344 OFFCURVE",
"135 344 CURVE SMOOTH",
"125 344 LINE SMOOTH",
"94 344 OFFCURVE",
"69 319 OFFCURVE",
"69 288 CURVE SMOOTH",
"69 282 LINE SMOOTH",
"69 251 OFFCURVE",
"94 226 OFFCURVE",
"125 226 CURVE SMOOTH"
);
}
);
width = 260;
}
);
note = periodcentered;
unicode = 00B7;
},
{
glyphname = bullet;
layers = (
{
layerId = "A99C00BB-606F-4263-964D-93C8B7F0BADD";
paths = (
{
closed = 1;
nodes = (
"262 260 OFFCURVE",
"321 319 OFFCURVE",
"321 393 CURVE SMOOTH",
"321 467 OFFCURVE",
"262 526 OFFCURVE",
"189 526 CURVE SMOOTH",
"115 526 OFFCURVE",
"56 467 OFFCURVE",
"56 393 CURVE SMOOTH",
"56 319 OFFCURVE",
"115 260 OFFCURVE",
"189 260 CURVE SMOOTH"
);
}
);
width = 377;
}
);
note = bullet;
unicode = 2022;
},
{
glyphname = colon;
layers = (
{
layerId = "A99C00BB-606F-4263-964D-93C8B7F0BADD";
paths = (
{
closed = 1;
nodes = (
"135 395 LINE SMOOTH",
"166 395 OFFCURVE",
"191 420 OFFCURVE",
"191 451 CURVE SMOOTH",
"191 457 LINE SMOOTH",
"191 488 OFFCURVE",
"166 513 OFFCURVE",
"135 513 CURVE SMOOTH",
"125 513 LINE SMOOTH",
"94 513 OFFCURVE",
"69 488 OFFCURVE",
"69 457 CURVE SMOOTH",
"69 451 LINE SMOOTH",
"69 420 OFFCURVE",
"94 395 OFFCURVE",
"125 395 CURVE SMOOTH"
);
},
{
closed = 1;
nodes = (
"135 -3 LINE SMOOTH",
"166 -3 OFFCURVE",
"191 22 OFFCURVE",
"191 53 CURVE SMOOTH",
"191 59 LINE SMOOTH",
"191 90 OFFCURVE",
"166 115 OFFCURVE",
"135 115 CURVE SMOOTH",
"125 115 LINE SMOOTH",
"94 115 OFFCURVE",
"69 90 OFFCURVE",
"69 59 CURVE SMOOTH",
"69 53 LINE SMOOTH",
"69 22 OFFCURVE",
"94 -3 OFFCURVE",
"125 -3 CURVE SMOOTH"
);
}
);
width = 260;
}
);
leftKerningGroup = colon;
note = colon;
rightKerningGroup = colon;
unicode = 003A;
},
{
glyphname = comma;
layers = (
{
layerId = "A99C00BB-606F-4263-964D-93C8B7F0BADD";
paths = (
{
closed = 1;
nodes = (
"99 -151 OFFCURVE",
"106 -148 OFFCURVE",
"109 -146 CURVE",
"148 -122 OFFCURVE",
"191 -80 OFFCURVE",
"191 0 CURVE SMOOTH",
"191 53 LINE",
"191 59 LINE SMOOTH",
"191 90 OFFCURVE",
"166 115 OFFCURVE",
"135 115 CURVE SMOOTH",
"125 115 LINE SMOOTH",
"94 115 OFFCURVE",
"69 90 OFFCURVE",
"69 59 CURVE SMOOTH",
"69 53 LINE SMOOTH",
"69 22 OFFCURVE",
"94 -3 OFFCURVE",
"125 -3 CURVE SMOOTH",
"129 -3 LINE",
"129 -58 OFFCURVE",
"107 -79 OFFCURVE",
"78 -96 CURVE SMOOTH",
"68 -102 OFFCURVE",
"63 -110 OFFCURVE",
"63 -121 CURVE SMOOTH",
"63 -137 OFFCURVE",
"75 -151 OFFCURVE",
"92 -151 CURVE SMOOTH"
);
}
);
width = 260;
}
);
leftKerningGroup = period;
note = comma;
rightKerningGroup = period;
unicode = 002C;
},
